Cantarell-Regular.ufo
<glyph name="exclam" format="2">
  <advance width="262"/>
  <unicode hex="0021"/>
  <outline>
    <contour>
      <point x="99" y="201" type="line"/>
      <point x="163" y="201" type="line"/>
      <point x="173" y="694" type="line"/>
      <point x="89" y="694" type="line"/>
    </contour>
    <contour>
      <point x="132" y="-10" type="curve" smooth="yes"/>
      <point x="170" y="-10"/>
      <point x="196" y="17"/>
      <point x="196" y="54" type="curve" smooth="yes"/>
      <point x="196" y="91"/>
      <point x="170" y="118"/>
      <point x="132" y="118" type="curve" smooth="yes"/>
      <point x="94" y="118"/>
      <point x="68" y="91"/>
      <point x="68" y="54" type="curve" smooth="yes"/>
      <point x="68" y="17"/>
      <point x="94" y="-10"/>
    </contour>
  </outline>
</glyph>
<glyph name="numbersign" format="2">
  <advance width="658"/>
  <unicode hex="0023"/>
  <outline>
    <contour>
      <point x="423" y="0" type="line"/>
      <point x="492" y="0" type="line"/>
      <point x="492" y="694" type="line"/>
      <point x="423" y="694" type="line"/>
    </contour>
    <contour>
      <point x="36" y="181" type="line"/>
      <point x="621" y="181" type="line"/>
      <point x="621" y="244" type="line"/>
      <point x="36" y="244" type="line"/>
    </contour>
    <contour>
      <point x="168" y="0" type="line"/>
      <point x="237" y="0" type="line"/>
      <point x="237" y="694" type="line"/>
      <point x="168" y="694" type="line"/>
    </contour>
    <contour>
      <point x="36" y="452" type="line"/>
      <point x="621" y="452" type="line"/>
      <point x="621" y="515" type="line"/>
      <point x="36" y="515" type="line"/>
    </contour>
  </outline>
</glyph>
<glyph name="dollar" format="2">
  <advance width="580"/>
  <unicode hex="0024"/>
  <outline>
    <contour>
      <point x="279" y="0" type="curve" smooth="yes"/>
      <point x="426" y="0"/>
      <point x="523" y="77"/>
      <point x="523" y="196" type="curve" smooth="yes"/>
      <point x="523" y="430"/>
      <point x="154" y="344"/>
      <point x="154" y="515" type="curve" smooth="yes"/>
      <point x="154" y="582"/>
      <point x="210" y="621"/>
      <point x="309" y="621" type="curve" smooth="yes"/>
      <point x="364" y="621"/>
      <point x="426" y="609"/>
      <point x="474" y="588" type="curve"/>
      <point x="498" y="653" type="line"/>
      <point x="442" y="679"/>
      <point x="377" y="693"/>
      <point x="315" y="693" type="curve" smooth="yes"/>
      <point x="166" y="693"/>
      <point x="69" y="617"/>
      <point x="69" y="501" type="curve" smooth="yes"/>
      <point x="69" y="273"/>
      <point x="437" y="350"/>
      <point x="437" y="183" type="curve" smooth="yes"/>
      <point x="437" y="118"/>
      <point x="380" y="74"/>
      <point x="283" y="74" type="curve" smooth="yes"/>
      <point x="222" y="74"/>
      <point x="148" y="91"/>
      <point x="83" y="119" type="curve"/>
      <point x="58" y="54" type="line"/>
      <point x="131" y="19"/>
      <point x="206" y="0"/>
    </contour>
    <contour>
      <point x="265" y="648" type="line"/>
      <point x="336" y="648" type="line"/>
      <point x="336" y="818" type="line"/>
      <point x="265" y="818" type="line"/>
    </contour>
    <contour>
      <point x="265" y="-120" type="line"/>
      <point x="336" y="-120" type="line"/>
      <point x="336" y="50" type="line"/>
      <point x="265" y="50" type="line"/>
    </contour>
  </outline>
</glyph>
<glyph name="percent" format="2">
  <advance width="991.0"/>
  <unicode hex="0025"/>
  <outline>
    <contour>
      <point x="265.0" y="0.0" type="line"/>
      <point x="342.0" y="0.0" type="line"/>
      <point x="724.0" y="694.0" type="line"/>
      <point x="641.0" y="694.0" type="line"/>
    </contour>
    <contour>
      <point x="244.0" y="262.0" type="curve" smooth="yes"/>
      <point x="345.0" y="262.0"/>
      <point x="411.0" y="349.0"/>
      <point x="411.0" y="485.0" type="curve" smooth="yes"/>
      <point x="411.0" y="618.0"/>
      <point x="347.0" y="704.0"/>
      <point x="247.0" y="704.0" type="curve" smooth="yes"/>
      <point x="144.0" y="704.0"/>
      <point x="78.0" y="617.0"/>
      <point x="78.0" y="481.0" type="curve" smooth="yes"/>
      <point x="78.0" y="347.0"/>
      <point x="143.0" y="262.0"/>
    </contour>
    <contour>
      <point x="246.0" y="328.0" type="curve" smooth="yes"/>
      <point x="192.0" y="328.0"/>
      <point x="157.0" y="389.0"/>
      <point x="157.0" y="485.0" type="curve" smooth="yes"/>
      <point x="157.0" y="579.0"/>
      <point x="191.0" y="638.0"/>
      <point x="244.0" y="638.0" type="curve" smooth="yes"/>
      <point x="298.0" y="638.0"/>
      <point x="333.0" y="577.0"/>
      <point x="333.0" y="480.0" type="curve" smooth="yes"/>
      <point x="333.0" y="387.0"/>
      <point x="299.0" y="328.0"/>
    </contour>
    <contour>
      <point x="746.0" y="-6.0" type="curve" smooth="yes"/>
      <point x="847.0" y="-6.0"/>
      <point x="913.0" y="81.0"/>
      <point x="913.0" y="217.0" type="curve" smooth="yes"/>
      <point x="913.0" y="350.0"/>
      <point x="849.0" y="436.0"/>
      <point x="749.0" y="436.0" type="curve" smooth="yes"/>
      <point x="646.0" y="436.0"/>
      <point x="580.0" y="349.0"/>
      <point x="580.0" y="213.0" type="curve" smooth="yes"/>
      <point x="580.0" y="79.0"/>
      <point x="645.0" y="-6.0"/>
    </contour>
    <contour>
      <point x="748.0" y="60.0" type="curve" smooth="yes"/>
      <point x="694.0" y="60.0"/>
      <point x="659.0" y="121.0"/>
      <point x="659.0" y="217.0" type="curve" smooth="yes"/>
      <point x="659.0" y="311.0"/>
      <point x="693.0" y="370.0"/>
      <point x="746.0" y="370.0" type="curve" smooth="yes"/>
      <point x="800.0" y="370.0"/>
      <point x="835.0" y="309.0"/>
      <point x="835.0" y="212.0" type="curve" smooth="yes"/>
      <point x="835.0" y="119.0"/>
      <point x="801.0" y="60.0"/>
    </contour>
  </outline>
</glyph>
<glyph name="ampersand" format="2">
  <advance width="708.0"/>
  <unicode hex="0026"/>
  <outline>
    <contour>
      <point x="586.0" y="-10.0" type="curve"/>
      <point x="637.0" y="50.0" type="line"/>
      <point x="302.0" y="326.0"/>
      <point x="225.0" y="415.0"/>
      <point x="225.0" y="524.0" type="curve" smooth="yes"/>
      <point x="225.0" y="598.0"/>
      <point x="260.0" y="638.0"/>
      <point x="322.0" y="638.0" type="curve" smooth="yes"/>
      <point x="380.0" y="638.0"/>
      <point x="422.0" y="602.0"/>
      <point x="422.0" y="553.0" type="curve" smooth="yes"/>
      <point x="422.0" y="401.0"/>
      <point x="72.0" y="426.0"/>
      <point x="72.0" y="187.0" type="curve" smooth="yes"/>
      <point x="72.0" y="69.0"/>
      <point x="159.0" y="-12.0"/>
      <point x="283.0" y="-12.0" type="curve" smooth="yes"/>
      <point x="424.0" y="-12.0"/>
      <point x="560.0" y="95.0"/>
      <point x="639.0" y="277.0" type="curve"/>
      <point x="578.0" y="313.0" type="line"/>
      <point x="494.0" y="141.0"/>
      <point x="396.0" y="57.0"/>
      <point x="293.0" y="57.0" type="curve" smooth="yes"/>
      <point x="210.0" y="57.0"/>
      <point x="150.0" y="114.0"/>
      <point x="150.0" y="194.0" type="curve" smooth="yes"/>
      <point x="150.0" y="388.0"/>
      <point x="498.0" y="353.0"/>
      <point x="498.0" y="554.0" type="curve" smooth="yes"/>
      <point x="498.0" y="643.0"/>
      <point x="430.0" y="704.0"/>
      <point x="331.0" y="704.0" type="curve" smooth="yes"/>
      <point x="221.0" y="704.0"/>
      <point x="149.0" y="630.0"/>
      <point x="149.0" y="517.0" type="curve" smooth="yes"/>
      <point x="149.0" y="386.0"/>
      <point x="245.0" y="274.0"/>
    </contour>
  </outline>
</glyph>
<glyph name="quotesingle" format="2">
  <advance width="276.0"/>
  <unicode hex="0027"/>
  <outline>
    <contour>
      <point x="105.0" y="422.0" type="line"/>
      <point x="171.0" y="422.0" type="line"/>
      <point x="181.0" y="694.0" type="line"/>
      <point x="95.0" y="694.0" type="line"/>
    </contour>
  </outline>
</glyph>
<glyph name="parenleft" format="2">
  <advance width="301.0"/>
  <unicode hex="0028"/>
  <outline>
    <contour>
      <point x="203.0" y="-179.0" type="curve"/>
      <point x="261.0" y="-148.0" type="line"/>
      <point x="177.0" y="1.0"/>
      <point x="143.0" y="124.0"/>
      <point x="143.0" y="299.0" type="curve" smooth="yes"/>
      <point x="143.0" y="448.0"/>
      <point x="176.0" y="566.0"/>
      <point x="259.0" y="718.0" type="curve"/>
      <point x="201.0" y="749.0" type="line"/>
      <point x="102.0" y="582.0"/>
      <point x="63.0" y="452.0"/>
      <point x="63.0" y="292.0" type="curve" smooth="yes"/>
      <point x="63.0" y="106.0"/>
      <point x="103.0" y="-23.0"/>
    </contour>
  </outline>
</glyph>
<glyph name="asterisk" format="2">
	<unicode hex="002A"/>
	<advance width="469"/>
	<outline>
		<contour>
			<point x="242" y="475" type="line"/>
			<point x="427" y="566" type="line"/>
			<point x="390" y="627" type="line"/>
			<point x="226" y="502" type="line"/>
		</contour>
		<contour>
			<point x="78" y="348" type="line"/>
			<point x="243" y="473" type="line"/>
			<point x="227" y="499" type="line"/>
			<point x="41" y="408" type="line"/>
		</contour>
		<contour>
			<point x="198" y="282" type="line"/>
			<point x="269" y="282" type="line"/>
			<point x="251" y="488" type="line"/>
			<point x="219" y="488" type="line"/>
		</contour>
		<contour>
			<point x="227" y="475" type="line"/>
			<point x="244" y="501" type="line"/>
			<point x="80" y="628" type="line"/>
			<point x="43" y="568" type="line"/>
		</contour>
		<contour>
			<point x="390" y="346" type="line"/>
			<point x="427" y="406" type="line"/>
			<point x="243" y="499" type="line"/>
			<point x="226" y="472" type="line"/>
		</contour>
		<contour>
			<point x="219" y="488" type="line"/>
			<point x="251" y="488" type="line"/>
			<point x="269" y="694" type="line"/>
			<point x="198" y="694" type="line"/>
		</contour>
	</outline>
</glyph>
<glyph name="plus" format="2">
  <advance width="642"/>
  <unicode hex="002B"/>
  <outline>
    <contour>
      <point x="289" y="62" type="line"/>
      <point x="359" y="62" type="line"/>
      <point x="359" y="590" type="line"/>
      <point x="289" y="590" type="line"/>
    </contour>
    <contour>
      <point x="69" y="296" type="line"/>
      <point x="573" y="296" type="line"/>
      <point x="573" y="365" type="line"/>
      <point x="69" y="365" type="line"/>
    </contour>
  </outline>
</glyph>
<glyph name="comma" format="2">
	<unicode hex="002C"/>
	<advance width="244"/>
	<outline>
		<contour>
			<point x="60" y="-174" type="curve"/>
			<point x="123" y="-174" type="line"/>
			<point x="159" y="-84"/>
			<point x="180" y="20"/>
			<point x="180" y="107" type="curve"/>
			<point x="97" y="107" type="line"/>
			<point x="97" y="17"/>
			<point x="83" y="-88"/>
		</contour>
	</outline>
</glyph>
<glyph name="hyphen" format="2">
  <advance width="456.0"/>
  <unicode hex="002D"/>
  <outline>
    <contour>
      <point x="83.0" y="220.0" type="line"/>
      <point x="373.0" y="220.0" type="line"/>
      <point x="373.0" y="287.0" type="line"/>
      <point x="83.0" y="287.0" type="line"/>
    </contour>
  </outline>
</glyph>
<glyph name="period" format="2">
  <advance width="272.0"/>
  <unicode hex="002E"/>
  <outline>
    <contour>
      <point x="136.0" y="-10.0" type="curve" smooth="yes"/>
      <point x="174.0" y="-10.0"/>
      <point x="200.0" y="17.0"/>
      <point x="200.0" y="54.0" type="curve" smooth="yes"/>
      <point x="200.0" y="91.0"/>
      <point x="174.0" y="118.0"/>
      <point x="136.0" y="118.0" type="curve" smooth="yes"/>
      <point x="98.0" y="118.0"/>
      <point x="72.0" y="91.0"/>
      <point x="72.0" y="54.0" type="curve" smooth="yes"/>
      <point x="72.0" y="17.0"/>
      <point x="98.0" y="-10.0"/>
    </contour>
  </outline>
</glyph>
<glyph name="slash" format="2">
  <advance width="338.0"/>
  <unicode hex="002F"/>
  <outline>
    <contour>
      <point x="25.0" y="-115.0" type="line"/>
      <point x="99.0" y="-115.0" type="line"/>
      <point x="313.0" y="739.0" type="line"/>
      <point x="233.0" y="739.0" type="line"/>
    </contour>
  </outline>
</glyph>
<glyph name="zero" format="2">
  <advance width="621"/>
  <unicode hex="0030"/>
  <anchor x="311" y="350" name="slash"/>
  <outline>
    <contour>
      <point x="308" y="-10" type="curve" smooth="yes"/>
      <point x="463" y="-10"/>
      <point x="558" y="126"/>
      <point x="558" y="352" type="curve" smooth="yes"/>
      <point x="558" y="570"/>
      <point x="466" y="704"/>
      <point x="315" y="704" type="curve" smooth="yes"/>
      <point x="158" y="704"/>
      <point x="62" y="567"/>
      <point x="62" y="342" type="curve" smooth="yes"/>
      <point x="62" y="123"/>
      <point x="155" y="-10"/>
    </contour>
    <contour>
      <point x="314" y="59" type="curve" smooth="yes"/>
      <point x="209" y="59"/>
      <point x="144" y="169"/>
      <point x="144" y="352" type="curve" smooth="yes"/>
      <point x="144" y="528"/>
      <point x="207" y="635"/>
      <point x="309" y="635" type="curve" smooth="yes"/>
      <point x="412" y="635"/>
      <point x="476" y="524"/>
      <point x="476" y="342" type="curve" smooth="yes"/>
      <point x="476" y="166"/>
      <point x="415" y="59"/>
    </contour>
  </outline>
</glyph>
<glyph name="one" format="2">
  <advance width="439"/>
  <unicode hex="0031"/>
  <outline>
    <contour>
      <point x="226" y="-5" type="line"/>
      <point x="303" y="-5" type="line"/>
      <point x="303" y="694" type="line"/>
      <point x="257" y="694" type="line"/>
      <point x="29" y="526" type="line"/>
      <point x="70" y="470" type="line"/>
      <point x="258" y="609" type="line"/>
      <point x="226" y="632" type="line"/>
    </contour>
  </outline>
</glyph>
<glyph name="two" format="2">
  <advance width="555"/>
  <unicode hex="0032"/>
  <outline>
    <contour>
      <point x="59" y="0" type="line"/>
      <point x="502" y="0" type="line"/>
      <point x="502" y="72" type="line"/>
      <point x="141" y="72" type="line"/>
      <point x="152" y="47" type="line"/>
      <point x="390" y="271"/>
      <point x="472" y="386"/>
      <point x="472" y="510" type="curve" smooth="yes"/>
      <point x="472" y="630"/>
      <point x="391" y="704"/>
      <point x="260" y="704" type="curve" smooth="yes"/>
      <point x="178" y="704"/>
      <point x="98" y="674"/>
      <point x="47" y="625" type="curve"/>
      <point x="71" y="569" type="line"/>
      <point x="121" y="609"/>
      <point x="187" y="633"/>
      <point x="244" y="633" type="curve" smooth="yes"/>
      <point x="333" y="633"/>
      <point x="389" y="580"/>
      <point x="389" y="496" type="curve" smooth="yes"/>
      <point x="389" y="396"/>
      <point x="311" y="292"/>
      <point x="59" y="53" type="curve"/>
    </contour>
  </outline>
</glyph>
<glyph name="three" format="2">
  <advance width="576"/>
  <unicode hex="0033"/>
  <outline>
    <contour>
      <point x="261" y="-10" type="curve" smooth="yes"/>
      <point x="411" y="-10"/>
      <point x="517" y="68"/>
      <point x="517" y="182" type="curve" smooth="yes"/>
      <point x="517" y="283"/>
      <point x="435" y="357"/>
      <point x="314" y="369" type="curve"/>
      <point x="311" y="350" type="line"/>
      <point x="413" y="353"/>
      <point x="483" y="431"/>
      <point x="483" y="526" type="curve" smooth="yes"/>
      <point x="483" y="634"/>
      <point x="396" y="704"/>
      <point x="268" y="704" type="curve" smooth="yes"/>
      <point x="194" y="704"/>
      <point x="118" y="681"/>
      <point x="59" y="647" type="curve"/>
      <point x="78" y="587" type="line"/>
      <point x="140" y="618"/>
      <point x="202" y="634"/>
      <point x="253" y="634" type="curve" smooth="yes"/>
      <point x="342" y="634"/>
      <point x="406" y="586"/>
      <point x="406" y="514" type="curve" smooth="yes"/>
      <point x="406" y="439"/>
      <point x="333" y="387"/>
      <point x="233" y="387" type="curve" smooth="yes"/>
      <point x="178" y="387" type="line"/>
      <point x="178" y="317" type="line"/>
      <point x="231" y="317" type="line" smooth="yes"/>
      <point x="355" y="317"/>
      <point x="435" y="267"/>
      <point x="435" y="180" type="curve" smooth="yes"/>
      <point x="435" y="105"/>
      <point x="373" y="60"/>
      <point x="269" y="60" type="curve" smooth="yes"/>
      <point x="204" y="60"/>
      <point x="127" y="77"/>
      <point x="63" y="109" type="curve"/>
      <point x="45" y="44" type="line"/>
      <point x="111" y="10"/>
      <point x="185" y="-10"/>
    </contour>
  </outline>
</glyph>
<glyph name="four" format="2">
  <advance width="610"/>
  <unicode hex="0034"/>
  <outline>
    <contour>
      <point x="377" y="-10" type="line"/>
      <point x="454" y="-10" type="line"/>
      <point x="454" y="694" type="line"/>
      <point x="379" y="694" type="line"/>
      <point x="30" y="206" type="line"/>
      <point x="30" y="165" type="line"/>
      <point x="579" y="165" type="line"/>
      <point x="579" y="229" type="line"/>
      <point x="109" y="229" type="line"/>
      <point x="112" y="215" type="line"/>
      <point x="393" y="615" type="line"/>
      <point x="378" y="614" type="line"/>
    </contour>
  </outline>
</glyph>
<glyph name="five" format="2">
  <advance width="566"/>
  <unicode hex="0035"/>
  <outline>
    <contour>
      <point x="253" y="-10" type="curve" smooth="yes"/>
      <point x="407" y="-10"/>
      <point x="509" y="78"/>
      <point x="509" y="214" type="curve" smooth="yes"/>
      <point x="509" y="344"/>
      <point x="415" y="425"/>
      <point x="261" y="425" type="curve" smooth="yes"/>
      <point x="228" y="425"/>
      <point x="187" y="421"/>
      <point x="148" y="413" type="curve"/>
      <point x="167" y="389" type="line"/>
      <point x="178" y="627" type="line"/>
      <point x="476" y="627" type="line"/>
      <point x="476" y="694" type="line"/>
      <point x="108" y="694" type="line"/>
      <point x="91" y="341" type="line"/>
      <point x="135" y="353"/>
      <point x="195" y="361"/>
      <point x="240" y="361" type="curve" smooth="yes"/>
      <point x="358" y="361"/>
      <point x="430" y="303"/>
      <point x="430" y="207" type="curve" smooth="yes"/>
      <point x="430" y="114"/>
      <point x="363" y="59"/>
      <point x="258" y="59" type="curve" smooth="yes"/>
      <point x="199" y="59"/>
      <point x="132" y="77"/>
      <point x="80" y="104" type="curve"/>
      <point x="58" y="42" type="line"/>
      <point x="120" y="9"/>
      <point x="184" y="-10"/>
    </contour>
  </outline>
</glyph>
<glyph name="six" format="2">
  <advance width="600"/>
  <unicode hex="0036"/>
  <outline>
    <contour>
      <point x="312" y="-10" type="curve" smooth="yes"/>
      <point x="446" y="-10"/>
      <point x="537" y="84"/>
      <point x="537" y="219" type="curve" smooth="yes"/>
      <point x="537" y="345"/>
      <point x="458" y="427"/>
      <point x="338" y="427" type="curve" smooth="yes"/>
      <point x="234" y="427"/>
      <point x="153" y="365"/>
      <point x="131" y="266" type="curve"/>
      <point x="146" y="225" type="line"/>
      <point x="169" y="316"/>
      <point x="224" y="362"/>
      <point x="310" y="362" type="curve" smooth="yes"/>
      <point x="407" y="362"/>
      <point x="463" y="304"/>
      <point x="463" y="209" type="curve" smooth="yes"/>
      <point x="463" y="116"/>
      <point x="410" y="58"/>
      <point x="322" y="58" type="curve" smooth="yes"/>
      <point x="208" y="58"/>
      <point x="149" y="155"/>
      <point x="149" y="338" type="curve" smooth="yes"/>
      <point x="149" y="537"/>
      <point x="217" y="635"/>
      <point x="356" y="635" type="curve" smooth="yes"/>
      <point x="409" y="635"/>
      <point x="461" y="620"/>
      <point x="496" y="601" type="curve"/>
      <point x="519" y="664" type="line"/>
      <point x="479" y="688"/>
      <point x="426" y="704"/>
      <point x="363" y="704" type="curve" smooth="yes"/>
      <point x="179" y="704"/>
      <point x="71" y="565"/>
      <point x="71" y="327" type="curve" smooth="yes"/>
      <point x="71" y="111"/>
      <point x="160" y="-10"/>
    </contour>
  </outline>
</glyph>
<glyph name="seven" format="2">
  <advance width="544"/>
  <unicode hex="0037"/>
  <outline>
    <contour>
      <point x="132" y="0" type="line"/>
      <point x="215" y="0" type="line"/>
      <point x="503" y="655" type="line"/>
      <point x="503" y="694" type="line"/>
      <point x="39" y="694" type="line"/>
      <point x="39" y="622" type="line"/>
      <point x="439" y="622" type="line"/>
      <point x="421" y="653" type="line"/>
    </contour>
  </outline>
</glyph>
<glyph name="eight" format="2">
  <advance width="585"/>
  <unicode hex="0038"/>
  <outline>
    <contour>
      <point x="294" y="-10" type="curve" smooth="yes"/>
      <point x="437" y="-10"/>
      <point x="534" y="64"/>
      <point x="534" y="174" type="curve" smooth="yes"/>
      <point x="534" y="396"/>
      <point x="157" y="353"/>
      <point x="157" y="531" type="curve" smooth="yes"/>
      <point x="157" y="596"/>
      <point x="206" y="637"/>
      <point x="284" y="637" type="curve" smooth="yes"/>
      <point x="367" y="637"/>
      <point x="427" y="592"/>
      <point x="427" y="524" type="curve" smooth="yes"/>
      <point x="427" y="459"/>
      <point x="371" y="403"/>
      <point x="287" y="386" type="curve"/>
      <point x="347" y="356" type="line"/>
      <point x="443" y="384"/>
      <point x="502" y="455"/>
      <point x="502" y="537" type="curve" smooth="yes"/>
      <point x="502" y="637"/>
      <point x="417" y="704"/>
      <point x="294" y="704" type="curve" smooth="yes"/>
      <point x="165" y="704"/>
      <point x="80" y="630"/>
      <point x="80" y="524" type="curve" smooth="yes"/>
      <point x="80" y="297"/>
      <point x="453" y="350"/>
      <point x="453" y="170" type="curve" smooth="yes"/>
      <point x="453" y="101"/>
      <point x="399" y="59"/>
      <point x="307" y="59" type="curve" smooth="yes"/>
      <point x="205" y="59"/>
      <point x="135" y="109"/>
      <point x="135" y="184" type="curve" smooth="yes"/>
      <point x="135" y="256"/>
      <point x="197" y="315"/>
      <point x="291" y="329" type="curve"/>
      <point x="240" y="361" type="line"/>
      <point x="128" y="346"/>
      <point x="54" y="267"/>
      <point x="54" y="173" type="curve" smooth="yes"/>
      <point x="54" y="64"/>
      <point x="151" y="-10"/>
    </contour>
  </outline>
</glyph>
<glyph name="equal" format="2">
  <advance width="715.0"/>
  <unicode hex="003D"/>
  <outline>
    <contour>
      <point x="125.0" y="406.0" type="line"/>
      <point x="590.0" y="406.0" type="line"/>
      <point x="590.0" y="475.0" type="line"/>
      <point x="125.0" y="475.0" type="line"/>
    </contour>
    <contour>
      <point x="125.0" y="166.0" type="line"/>
      <point x="590.0" y="166.0" type="line"/>
      <point x="590.0" y="235.0" type="line"/>
      <point x="125.0" y="235.0" type="line"/>
    </contour>
  </outline>
</glyph>
<glyph name="greater" format="2">
  <advance width="598.0"/>
  <unicode hex="003E"/>
  <outline>
    <contour>
      <point x="83.0" y="85.0" type="line"/>
      <point x="529.0" y="306.0" type="line"/>
      <point x="529.0" y="370.0" type="line"/>
      <point x="83.0" y="599.0" type="line"/>
      <point x="83.0" y="516.0" type="line"/>
      <point x="473.0" y="322.0" type="line"/>
      <point x="473.0" y="350.0" type="line"/>
      <point x="83.0" y="163.0" type="line"/>
    </contour>
  </outline>
</glyph>
<glyph name="question" format="2">
  <advance width="422.0"/>
  <unicode hex="003F"/>
  <outline>
    <contour>
      <point x="157.0" y="195.0" type="line"/>
      <point x="233.0" y="195.0" type="line"/>
      <point x="233.0" y="248.0" type="line" smooth="yes"/>
      <point x="233.0" y="357.0"/>
      <point x="394.0" y="399.0"/>
      <point x="394.0" y="541.0" type="curve" smooth="yes"/>
      <point x="394.0" y="639.0"/>
      <point x="316.0" y="704.0"/>
      <point x="198.0" y="704.0" type="curve" smooth="yes"/>
      <point x="132.0" y="704.0"/>
      <point x="59.0" y="684.0"/>
      <point x="0.0" y="651.0" type="curve"/>
      <point x="19.0" y="590.0" type="line"/>
      <point x="73.0" y="617.0"/>
      <point x="127.0" y="631.0"/>
      <point x="177.0" y="631.0" type="curve" smooth="yes"/>
      <point x="260.0" y="631.0"/>
      <point x="309.0" y="592.0"/>
      <point x="309.0" y="532.0" type="curve" smooth="yes"/>
      <point x="309.0" y="427.0"/>
      <point x="157.0" y="391.0"/>
      <point x="157.0" y="248.0" type="curve" smooth="yes"/>
    </contour>
    <contour>
      <point x="199.0" y="-10.0" type="curve" smooth="yes"/>
      <point x="237.0" y="-10.0"/>
      <point x="263.0" y="17.0"/>
      <point x="263.0" y="54.0" type="curve" smooth="yes"/>
      <point x="263.0" y="91.0"/>
      <point x="237.0" y="118.0"/>
      <point x="199.0" y="118.0" type="curve" smooth="yes"/>
      <point x="161.0" y="118.0"/>
      <point x="135.0" y="91.0"/>
      <point x="135.0" y="54.0" type="curve" smooth="yes"/>
      <point x="135.0" y="17.0"/>
      <point x="161.0" y="-10.0"/>
    </contour>
  </outline>
</glyph>
<glyph name="at" format="2">
  <advance width="1000.0"/>
  <unicode hex="0040"/>
  <outline>
    <contour>
      <point x="497.0" y="-162.0" type="curve" smooth="yes"/>
      <point x="571.0" y="-162.0"/>
      <point x="637.0" y="-147.0"/>
      <point x="686.0" y="-126.0" type="curve"/>
      <point x="668.0" y="-66.0" type="line"/>
      <point x="621.0" y="-85.0"/>
      <point x="561.0" y="-96.0"/>
      <point x="503.0" y="-96.0" type="curve" smooth="yes"/>
      <point x="295.0" y="-96.0"/>
      <point x="154.0" y="48.0"/>
      <point x="154.0" y="263.0" type="curve" smooth="yes"/>
      <point x="154.0" y="483.0"/>
      <point x="302.0" y="636.0"/>
      <point x="521.0" y="636.0" type="curve" smooth="yes"/>
      <point x="723.0" y="636.0"/>
      <point x="850.0" y="507.0"/>
      <point x="850.0" y="318.0" type="curve" smooth="yes"/>
      <point x="850.0" y="203.0"/>
      <point x="803.0" y="120.0"/>
      <point x="731.0" y="120.0" type="curve" smooth="yes"/>
      <point x="701.0" y="120.0"/>
      <point x="677.0" y="137.0"/>
      <point x="677.0" y="172.0" type="curve"/>
      <point x="595.0" y="173.0" type="line"/>
      <point x="595.0" y="99.0"/>
      <point x="649.0" y="57.0"/>
      <point x="722.0" y="57.0" type="curve" smooth="yes"/>
      <point x="843.0" y="57.0"/>
      <point x="923.0" y="170.0"/>
      <point x="923.0" y="333.0" type="curve" smooth="yes"/>
      <point x="923.0" y="561.0"/>
      <point x="765.0" y="704.0"/>
      <point x="530.0" y="704.0" type="curve" smooth="yes"/>
      <point x="261.0" y="704.0"/>
      <point x="80.0" y="517.0"/>
      <point x="80.0" y="256.0" type="curve" smooth="yes"/>
      <point x="80.0" y="0.0"/>
      <point x="253.0" y="-162.0"/>
    </contour>
    <contour>
      <point x="468.0" y="50.0" type="curve" smooth="yes"/>
      <point x="526.0" y="50.0"/>
      <point x="580.0" y="79.0"/>
      <point x="618.0" y="119.0" type="curve"/>
      <point x="596.0" y="174.0" type="line"/>
      <point x="573.0" y="142.0"/>
      <point x="531.0" y="119.0"/>
      <point x="491.0" y="119.0" type="curve" smooth="yes"/>
      <point x="430.0" y="119.0"/>
      <point x="388.0" y="171.0"/>
      <point x="388.0" y="259.0" type="curve" smooth="yes"/>
      <point x="388.0" y="350.0"/>
      <point x="433.0" y="417.0"/>
      <point x="503.0" y="417.0" type="curve" smooth="yes"/>
      <point x="548.0" y="417.0"/>
      <point x="593.0" y="387.0"/>
      <point x="612.0" y="340.0" type="curve"/>
      <point x="635.0" y="412.0" type="line"/>
      <point x="608.0" y="459.0"/>
      <point x="561.0" y="484.0"/>
      <point x="506.0" y="484.0" type="curve" smooth="yes"/>
      <point x="399.0" y="484.0"/>
      <point x="301.0" y="391.0"/>
      <point x="301.0" y="248.0" type="curve" smooth="yes"/>
      <point x="301.0" y="129.0"/>
      <point x="371.0" y="50.0"/>
    </contour>
    <contour>
      <point x="594.0" y="159.0" type="line"/>
      <point x="676.0" y="159.0" type="line"/>
      <point x="697.0" y="472.0" type="line"/>
      <point x="630.0" y="472.0" type="line"/>
      <point x="609.0" y="389.0" type="line"/>
    </contour>
  </outline>
</glyph>
<glyph name="A" format="2">
  <advance width="652"/>
  <unicode hex="0041"/>
  <note>
A
</note>
  <anchor x="327" y="0" name="bottom"/>
  <anchor x="610" y="10" name="ogonek"/>
  <anchor x="327" y="694" name="top"/>
  <outline>
    <contour>
      <point x="20" y="0" type="line"/>
      <point x="107" y="0" type="line"/>
      <point x="334" y="636" type="line"/>
      <point x="325" y="636" type="line"/>
      <point x="539" y="0" type="line"/>
      <point x="632" y="0" type="line"/>
      <point x="388" y="694" type="line"/>
      <point x="280" y="694" type="line"/>
    </contour>
    <contour>
      <point x="151" y="206" type="line"/>
      <point x="498" y="206" type="line"/>
      <point x="498" y="278" type="line"/>
      <point x="151" y="278" type="line"/>
    </contour>
  </outline>
</glyph>
<glyph name="B" format="2">
  <advance width="648"/>
  <unicode hex="0042"/>
  <note>
B
</note>
  <anchor x="322" y="0" name="bottom"/>
  <anchor x="322" y="694" name="top"/>
  <outline>
    <contour>
      <point x="100" y="0" type="line"/>
      <point x="342" y="0" type="line" smooth="yes"/>
      <point x="502" y="0"/>
      <point x="596" y="75"/>
      <point x="596" y="202" type="curve" smooth="yes"/>
      <point x="596" y="319"/>
      <point x="508" y="396"/>
      <point x="375" y="396" type="curve" smooth="yes"/>
      <point x="149" y="396" type="line"/>
      <point x="149" y="327" type="line"/>
      <point x="366" y="327" type="line" smooth="yes"/>
      <point x="454" y="327"/>
      <point x="511" y="271"/>
      <point x="511" y="185" type="curve" smooth="yes"/>
      <point x="511" y="105"/>
      <point x="463" y="71"/>
      <point x="352" y="71" type="curve" smooth="yes"/>
      <point x="183" y="71" type="line"/>
      <point x="183" y="623" type="line"/>
      <point x="301" y="623" type="line" smooth="yes"/>
      <point x="407" y="623"/>
      <point x="459" y="584"/>
      <point x="459" y="505" type="curve" smooth="yes"/>
      <point x="459" y="444"/>
      <point x="425" y="409"/>
      <point x="333" y="375" type="curve"/>
      <point x="453" y="375" type="line"/>
      <point x="508" y="399"/>
      <point x="544" y="460"/>
      <point x="544" y="527" type="curve" smooth="yes"/>
      <point x="544" y="633"/>
      <point x="459" y="694"/>
      <point x="311" y="694" type="curve" smooth="yes"/>
      <point x="100" y="694" type="line"/>
    </contour>
  </outline>
</glyph>
<glyph name="C" format="2">
  <advance width="649"/>
  <unicode hex="0043"/>
  <note>
C
</note>
  <anchor x="373" y="0" name="bottom"/>
  <anchor x="373" y="694" name="top"/>
  <outline>
    <contour>
      <point x="402" y="-10" type="curve" smooth="yes"/>
      <point x="469" y="-10"/>
      <point x="539" y="5"/>
      <point x="605" y="34" type="curve"/>
      <point x="586" y="95" type="line"/>
      <point x="536" y="75"/>
      <point x="474" y="63"/>
      <point x="421" y="63" type="curve" smooth="yes"/>
      <point x="255" y="63"/>
      <point x="145" y="181"/>
      <point x="145" y="358" type="curve" smooth="yes"/>
      <point x="145" y="527"/>
      <point x="246" y="630"/>
      <point x="413" y="630" type="curve" smooth="yes"/>
      <point x="469" y="630"/>
      <point x="532" y="618"/>
      <point x="585" y="598" type="curve"/>
      <point x="609" y="660" type="line"/>
      <point x="558" y="687"/>
      <point x="486" y="703"/>
      <point x="418" y="703" type="curve" smooth="yes"/>
      <point x="203" y="703"/>
      <point x="60" y="557"/>
      <point x="60" y="339" type="curve" smooth="yes"/>
      <point x="60" y="130"/>
      <point x="197" y="-10"/>
    </contour>
  </outline>
</glyph>
<glyph name="D" format="2">
  <advance width="717"/>
  <unicode hex="0044"/>
  <note>
D
</note>
  <anchor x="326" y="0" name="bottom"/>
  <anchor x="163" y="347" name="center"/>
  <anchor x="326" y="694" name="top"/>
  <outline>
    <contour>
      <point x="96" y="0" type="line"/>
      <point x="308" y="0" type="line" smooth="yes"/>
      <point x="518" y="0"/>
      <point x="661" y="137"/>
      <point x="661" y="360" type="curve" smooth="yes"/>
      <point x="661" y="570"/>
      <point x="535" y="694"/>
      <point x="323" y="694" type="curve" smooth="yes"/>
      <point x="96" y="694" type="line"/>
    </contour>
    <contour>
      <point x="179" y="72" type="line"/>
      <point x="179" y="622" type="line"/>
      <point x="313" y="622" type="line" smooth="yes"/>
      <point x="482" y="622"/>
      <point x="576" y="523"/>
      <point x="576" y="347" type="curve" smooth="yes"/>
      <point x="576" y="172"/>
      <point x="483" y="72"/>
      <point x="318" y="72" type="curve" smooth="yes"/>
    </contour>
  </outline>
</glyph>
<glyph name="E" format="2">
  <advance width="600.0"/>
  <unicode hex="0045"/>
  <note>
E
</note>
  <anchor x="313.0" y="0.0" name="bottom"/>
  <anchor x="518.0" y="10.0" name="ogonek"/>
  <anchor x="333.0" y="694.0" name="top"/>
  <anchor x="15.0" y="694.0" name="topleft"/>
  <outline>
    <contour>
      <point x="104.0" y="0.0" type="line"/>
      <point x="187.0" y="0.0" type="line"/>
      <point x="187.0" y="694.0" type="line"/>
      <point x="104.0" y="694.0" type="line"/>
    </contour>
    <contour>
      <point x="144.0" y="0.0" type="line"/>
      <point x="540.0" y="0.0" type="line"/>
      <point x="540.0" y="72.0" type="line"/>
      <point x="144.0" y="72.0" type="line"/>
    </contour>
    <contour>
      <point x="144.0" y="323.0" type="line"/>
      <point x="513.0" y="323.0" type="line"/>
      <point x="513.0" y="395.0" type="line"/>
      <point x="144.0" y="395.0" type="line"/>
    </contour>
    <contour>
      <point x="144.0" y="622.0" type="line"/>
      <point x="540.0" y="622.0" type="line"/>
      <point x="540.0" y="694.0" type="line"/>
      <point x="144.0" y="694.0" type="line"/>
    </contour>
  </outline>
</glyph>
<glyph name="F" format="2">
	<unicode hex="0046"/>
	<advance width="582"/>
	<outline>
		<contour>
			<point x="104" y="0" type="line"/>
			<point x="187" y="0" type="line"/>
			<point x="187" y="694" type="line"/>
			<point x="104" y="694" type="line"/>
		</contour>
		<contour>
			<point x="136" y="322" type="line"/>
			<point x="506" y="322" type="line"/>
			<point x="506" y="394" type="line"/>
			<point x="136" y="394" type="line"/>
		</contour>
		<contour>
			<point x="136" y="622" type="line"/>
			<point x="535" y="622" type="line"/>
			<point x="535" y="694" type="line"/>
			<point x="136" y="694" type="line"/>
		</contour>
	</outline>
	<anchor name="bottom" x="271" y="0"/>
	<anchor name="top" x="271" y="694"/>
	<note>
		F
	</note>
</glyph>
<glyph name="G" format="2">
  <advance width="722"/>
  <unicode hex="0047"/>
  <note>
G
</note>
  <anchor x="395" y="0" name="bottom"/>
  <anchor x="395" y="694" name="top"/>
  <outline>
    <contour>
      <point x="404" y="-9" type="curve" smooth="yes"/>
      <point x="500" y="-9"/>
      <point x="587" y="19"/>
      <point x="657" y="74" type="curve"/>
      <point x="657" y="368" type="line"/>
      <point x="377" y="368" type="line"/>
      <point x="377" y="296" type="line"/>
      <point x="574" y="296" type="line"/>
      <point x="574" y="71" type="line"/>
      <point x="593" y="112" type="line"/>
      <point x="539" y="81"/>
      <point x="478" y="64"/>
      <point x="416" y="64" type="curve" smooth="yes"/>
      <point x="249" y="64"/>
      <point x="141" y="179"/>
      <point x="141" y="357" type="curve" smooth="yes"/>
      <point x="141" y="530"/>
      <point x="240" y="630"/>
      <point x="409" y="630" type="curve" smooth="yes"/>
      <point x="472" y="630"/>
      <point x="545" y="616"/>
      <point x="606" y="593" type="curve"/>
      <point x="630" y="657" type="line"/>
      <point x="569" y="687"/>
      <point x="496" y="703"/>
      <point x="420" y="703" type="curve" smooth="yes"/>
      <point x="201" y="703"/>
      <point x="56" y="560"/>
      <point x="56" y="342" type="curve" smooth="yes"/>
      <point x="56" y="130"/>
      <point x="194" y="-9"/>
    </contour>
  </outline>
</glyph>
<glyph name="H" format="2">
  <advance width="745.0"/>
  <unicode hex="0048"/>
  <note>
H
</note>
  <anchor x="373.0" y="0.0" name="bottom"/>
  <anchor x="373.0" y="539.0" name="center"/>
  <anchor x="373.0" y="694.0" name="top"/>
  <anchor x="15.0" y="694.0" name="topleft"/>
  <outline>
    <contour>
      <point x="558.0" y="0.0" type="line"/>
      <point x="641.0" y="0.0" type="line"/>
      <point x="641.0" y="694.0" type="line"/>
      <point x="558.0" y="694.0" type="line"/>
    </contour>
    <contour>
      <point x="104.0" y="0.0" type="line"/>
      <point x="187.0" y="0.0" type="line"/>
      <point x="187.0" y="694.0" type="line"/>
      <point x="104.0" y="694.0" type="line"/>
    </contour>
    <contour>
      <point x="136.0" y="323.0" type="line"/>
      <point x="606.0" y="323.0" type="line"/>
      <point x="606.0" y="395.0" type="line"/>
      <point x="136.0" y="395.0" type="line"/>
    </contour>
  </outline>
</glyph>
<glyph name="I" format="2">
  <advance width="275"/>
  <unicode hex="0049"/>
  <note>
I
</note>
  <anchor x="138" y="0" name="bottom"/>
  <anchor x="157" y="10" name="ogonek"/>
  <anchor x="138" y="694" name="top"/>
  <anchor x="7" y="694" name="topleft"/>
  <outline>
    <contour>
      <point x="96" y="0" type="line"/>
      <point x="179" y="0" type="line"/>
      <point x="179" y="694" type="line"/>
      <point x="96" y="694" type="line"/>
    </contour>
  </outline>
</glyph>
<glyph name="J" format="2">
  <advance width="443.0"/>
  <unicode hex="004A"/>
  <note>
J
</note>
  <anchor x="228.0" y="0.0" name="bottom"/>
  <anchor x="303.0" y="694.0" name="top"/>
  <outline>
    <contour>
      <point x="161.0" y="-10.0" type="curve" smooth="yes"/>
      <point x="279.0" y="-10.0"/>
      <point x="346.0" y="65.0"/>
      <point x="346.0" y="200.0" type="curve" smooth="yes"/>
      <point x="346.0" y="694.0" type="line"/>
      <point x="263.0" y="694.0" type="line"/>
      <point x="263.0" y="191.0" type="line" smooth="yes"/>
      <point x="263.0" y="109.0"/>
      <point x="226.0" y="63.0"/>
      <point x="159.0" y="63.0" type="curve" smooth="yes"/>
      <point x="129.0" y="63.0"/>
      <point x="89.0" y="72.0"/>
      <point x="61.0" y="86.0" type="curve"/>
      <point x="37.0" y="24.0" type="line"/>
      <point x="77.0" y="0.0"/>
      <point x="119.0" y="-10.0"/>
    </contour>
  </outline>
</glyph>
<glyph name="K" format="2">
  <advance width="622"/>
  <unicode hex="004B"/>
  <note>
K
</note>
  <anchor x="314" y="0" name="bottom"/>
  <anchor x="314" y="694" name="top"/>
  <outline>
    <contour>
      <point x="498" y="0" type="line"/>
      <point x="607" y="0" type="line"/>
      <point x="264" y="380" type="line"/>
      <point x="268" y="357" type="line"/>
      <point x="594" y="694" type="line"/>
      <point x="492" y="694" type="line"/>
      <point x="176" y="361" type="line"/>
    </contour>
    <contour>
      <point x="96" y="0" type="line"/>
      <point x="179" y="0" type="line"/>
      <point x="179" y="694" type="line"/>
      <point x="96" y="694" type="line"/>
    </contour>
  </outline>
</glyph>
<glyph name="L" format="2">
  <advance width="537.0"/>
  <unicode hex="004C"/>
  <note>
L
</note>
  <anchor x="302.0" y="0.0" name="bottom"/>
  <anchor x="172.0" y="347.0" name="center"/>
  <anchor x="543.0" y="352.0" name="periodcentered"/>
  <anchor x="147.0" y="694.0" name="top"/>
  <anchor x="311.0" y="482.0" name="topright"/>
  <outline>
    <contour>
      <point x="104.0" y="0.0" type="line"/>
      <point x="498.0" y="0.0" type="line"/>
      <point x="498.0" y="74.0" type="line"/>
      <point x="187.0" y="74.0" type="line"/>
      <point x="187.0" y="694.0" type="line"/>
      <point x="104.0" y="694.0" type="line"/>
    </contour>
  </outline>
</glyph>
<glyph name="M" format="2">
  <advance width="883.0"/>
  <unicode hex="004D"/>
  <note>
M
</note>
  <anchor x="442.0" y="0.0" name="bottom"/>
  <anchor x="442.0" y="694.0" name="top"/>
  <outline>
    <contour>
      <point x="104.0" y="0.0" type="line"/>
      <point x="183.0" y="0.0" type="line"/>
      <point x="183.0" y="578.0" type="line"/>
      <point x="166.0" y="578.0" type="line"/>
      <point x="408.0" y="108.0" type="line"/>
      <point x="473.0" y="108.0" type="line"/>
      <point x="712.0" y="578.0" type="line"/>
      <point x="700.0" y="578.0" type="line"/>
      <point x="700.0" y="0.0" type="line"/>
      <point x="779.0" y="0.0" type="line"/>
      <point x="779.0" y="694.0" type="line"/>
      <point x="697.0" y="694.0" type="line"/>
      <point x="418.0" y="148.0" type="line"/>
      <point x="468.0" y="148.0" type="line"/>
      <point x="189.0" y="694.0" type="line"/>
      <point x="104.0" y="694.0" type="line"/>
    </contour>
  </outline>
</glyph>
<glyph name="N" format="2">
  <advance width="774"/>
  <unicode hex="004E"/>
  <note>
N
</note>
  <anchor x="387" y="0" name="bottom"/>
  <anchor x="387" y="694" name="top"/>
  <outline>
    <contour>
      <point x="104" y="0" type="line"/>
      <point x="182" y="0" type="line"/>
      <point x="182" y="605" type="line"/>
      <point x="167" y="605" type="line"/>
      <point x="578" y="0" type="line"/>
      <point x="670" y="0" type="line"/>
      <point x="670" y="694" type="line"/>
      <point x="592" y="694" type="line"/>
      <point x="592" y="87" type="line"/>
      <point x="608" y="87" type="line"/>
      <point x="199" y="694" type="line"/>
      <point x="104" y="694" type="line"/>
    </contour>
  </outline>
</glyph>
<glyph name="O" format="2">
  <advance width="782"/>
  <unicode hex="004F"/>
  <note>
O
</note>
  <anchor x="589" y="107" name="Qtail"/>
  <anchor x="391" y="0" name="bottom"/>
  <anchor x="391" y="347" name="center"/>
  <anchor x="472" y="10" name="ogonek"/>
  <anchor x="391" y="694" name="top"/>
  <anchor x="20" y="694" name="topleft"/>
  <anchor x="706" y="694" name="topright"/>
  <outline>
    <contour>
      <point x="383" y="-7" type="curve" smooth="yes"/>
      <point x="583" y="-7"/>
      <point x="717" y="138"/>
      <point x="717" y="356" type="curve" smooth="yes"/>
      <point x="717" y="564"/>
      <point x="587" y="703"/>
      <point x="393" y="703" type="curve" smooth="yes"/>
      <point x="196" y="703"/>
      <point x="65" y="559"/>
      <point x="65" y="344" type="curve" smooth="yes"/>
      <point x="65" y="133"/>
      <point x="192" y="-7"/>
    </contour>
    <contour>
      <point x="393" y="65" type="curve" smooth="yes"/>
      <point x="247" y="65"/>
      <point x="150" y="181"/>
      <point x="150" y="356" type="curve" smooth="yes"/>
      <point x="150" y="520"/>
      <point x="243" y="630"/>
      <point x="383" y="630" type="curve" smooth="yes"/>
      <point x="532" y="630"/>
      <point x="632" y="516"/>
      <point x="632" y="344" type="curve" smooth="yes"/>
      <point x="632" y="177"/>
      <point x="536" y="65"/>
    </contour>
  </outline>
</glyph>
<glyph name="P" format="2">
  <advance width="602"/>
  <unicode hex="0050"/>
  <note>
P
</note>
  <anchor x="297" y="0" name="bottom"/>
  <anchor x="297" y="694" name="top"/>
  <outline>
    <contour>
      <point x="96" y="0" type="line"/>
      <point x="179" y="0" type="line"/>
      <point x="179" y="694" type="line"/>
      <point x="96" y="694" type="line"/>
    </contour>
    <contour>
      <point x="149" y="242" type="line"/>
      <point x="297" y="242" type="line" smooth="yes"/>
      <point x="452" y="242"/>
      <point x="556" y="334"/>
      <point x="556" y="473" type="curve" smooth="yes"/>
      <point x="556" y="606"/>
      <point x="458" y="694"/>
      <point x="312" y="694" type="curve" smooth="yes"/>
      <point x="149" y="694" type="line"/>
      <point x="149" y="622" type="line"/>
      <point x="302" y="622" type="line" smooth="yes"/>
      <point x="403" y="622"/>
      <point x="471" y="556"/>
      <point x="471" y="458" type="curve" smooth="yes"/>
      <point x="471" y="364"/>
      <point x="415" y="314"/>
      <point x="312" y="314" type="curve" smooth="yes"/>
      <point x="149" y="314" type="line"/>
    </contour>
  </outline>
</glyph>
<glyph name="Q" format="2">
  <advance width="795.0"/>
  <unicode hex="0051"/>
  <note>
Q
</note>
  <anchor x="391.0" y="0.0" name="bottom"/>
  <anchor x="391.0" y="694.0" name="top"/>
  <outline>
    <contour>
      <point x="383.0" y="-7.0" type="curve" smooth="yes"/>
      <point x="583.0" y="-7.0"/>
      <point x="717.0" y="138.0"/>
      <point x="717.0" y="356.0" type="curve" smooth="yes"/>
      <point x="717.0" y="564.0"/>
      <point x="587.0" y="703.0"/>
      <point x="393.0" y="703.0" type="curve" smooth="yes"/>
      <point x="196.0" y="703.0"/>
      <point x="65.0" y="559.0"/>
      <point x="65.0" y="344.0" type="curve" smooth="yes"/>
      <point x="65.0" y="133.0"/>
      <point x="192.0" y="-7.0"/>
    </contour>
    <contour>
      <point x="393.0" y="65.0" type="curve" smooth="yes"/>
      <point x="247.0" y="65.0"/>
      <point x="150.0" y="181.0"/>
      <point x="150.0" y="356.0" type="curve" smooth="yes"/>
      <point x="150.0" y="520.0"/>
      <point x="243.0" y="630.0"/>
      <point x="383.0" y="630.0" type="curve" smooth="yes"/>
      <point x="532.0" y="630.0"/>
      <point x="632.0" y="516.0"/>
      <point x="632.0" y="344.0" type="curve" smooth="yes"/>
      <point x="632.0" y="177.0"/>
      <point x="536.0" y="65.0"/>
    </contour>
    <contour>
      <point x="687.0" y="-32.0" type="line"/>
      <point x="736.0" y="19.0" type="line"/>
      <point x="427.0" y="309.0" type="line"/>
      <point x="382.0" y="259.0" type="line"/>
    </contour>
  </outline>
</glyph>
<glyph name="R" format="2">
  <advance width="641"/>
  <unicode hex="0052"/>
  <note>
R
</note>
  <anchor x="317" y="0" name="bottom"/>
  <anchor x="317" y="694" name="top"/>
  <outline>
    <contour>
      <point x="100" y="0" type="line"/>
      <point x="183" y="0" type="line"/>
      <point x="183" y="694" type="line"/>
      <point x="100" y="694" type="line"/>
    </contour>
    <contour>
      <point x="153" y="281" type="line"/>
      <point x="320" y="281" type="line" smooth="yes"/>
      <point x="464" y="281"/>
      <point x="562" y="372"/>
      <point x="562" y="500" type="curve" smooth="yes"/>
      <point x="562" y="622"/>
      <point x="472" y="694"/>
      <point x="330" y="694" type="curve" smooth="yes"/>
      <point x="153" y="694" type="line"/>
      <point x="153" y="622" type="line"/>
      <point x="320" y="622" type="line" smooth="yes"/>
      <point x="419" y="622"/>
      <point x="477" y="571"/>
      <point x="477" y="485" type="curve" smooth="yes"/>
      <point x="477" y="400"/>
      <point x="425" y="351"/>
      <point x="330" y="351" type="curve" smooth="yes"/>
      <point x="153" y="351" type="line"/>
    </contour>
    <contour>
      <point x="503" y="0" type="line"/>
      <point x="602" y="0" type="line"/>
      <point x="410" y="328" type="line"/>
      <point x="315" y="328" type="line"/>
    </contour>
  </outline>
</glyph>
<glyph name="S" format="2">
  <advance width="569"/>
  <unicode hex="0053"/>
  <note>
S
</note>
  <anchor x="281" y="0" name="bottom"/>
  <anchor x="281" y="694" name="top"/>
  <outline>
    <contour>
      <point x="271" y="-10" type="curve" smooth="yes"/>
      <point x="426" y="-10"/>
      <point x="527" y="69"/>
      <point x="527" y="191" type="curve" smooth="yes"/>
      <point x="527" y="437"/>
      <point x="138" y="339"/>
      <point x="138" y="518" type="curve" smooth="yes"/>
      <point x="138" y="591"/>
      <point x="197" y="631"/>
      <point x="303" y="631" type="curve" smooth="yes"/>
      <point x="362" y="631"/>
      <point x="426" y="619"/>
      <point x="476" y="598" type="curve"/>
      <point x="501" y="663" type="line"/>
      <point x="442" y="689"/>
      <point x="375" y="703"/>
      <point x="309" y="703" type="curve" smooth="yes"/>
      <point x="154" y="703"/>
      <point x="53" y="626"/>
      <point x="53" y="505" type="curve" smooth="yes"/>
      <point x="53" y="267"/>
      <point x="441" y="356"/>
      <point x="441" y="179" type="curve" smooth="yes"/>
      <point x="441" y="109"/>
      <point x="381" y="64"/>
      <point x="276" y="64" type="curve" smooth="yes"/>
      <point x="213" y="64"/>
      <point x="135" y="81"/>
      <point x="67" y="109" type="curve"/>
      <point x="42" y="44" type="line"/>
      <point x="119" y="9"/>
      <point x="197" y="-10"/>
    </contour>
  </outline>
</glyph>
<glyph name="T" format="2">
	<unicode hex="0054"/>
	<advance width="594"/>
	<outline>
		<contour>
			<point x="255" y="0" type="line"/>
			<point x="338" y="0" type="line"/>
			<point x="338" y="660" type="line"/>
			<point x="255" y="660" type="line"/>
		</contour>
		<contour>
			<point x="24" y="622" type="line"/>
			<point x="570" y="622" type="line"/>
			<point x="570" y="694" type="line"/>
			<point x="24" y="694" type="line"/>
		</contour>
	</outline>
	<anchor name="bottom" x="297" y="0"/>
	<anchor name="center" x="297" y="347"/>
	<anchor name="top" x="297" y="694"/>
	<note>
		T
	</note>
</glyph>
<glyph name="U" format="2">
  <advance width="694"/>
  <unicode hex="0055"/>
  <note>
U
</note>
  <anchor x="347" y="0" name="bottom"/>
  <anchor x="441" y="10" name="ogonek"/>
  <anchor x="347" y="694" name="top"/>
  <anchor x="682" y="694" name="topright"/>
  <outline>
    <contour>
      <point x="342" y="-10" type="curve" smooth="yes"/>
      <point x="503" y="-10"/>
      <point x="611" y="92"/>
      <point x="611" y="246" type="curve" smooth="yes"/>
      <point x="611" y="694" type="line"/>
      <point x="530" y="694" type="line"/>
      <point x="530" y="236" type="line" smooth="yes"/>
      <point x="530" y="127"/>
      <point x="465" y="63"/>
      <point x="353" y="63" type="curve" smooth="yes"/>
      <point x="235" y="63"/>
      <point x="167" y="133"/>
      <point x="167" y="253" type="curve" smooth="yes"/>
      <point x="167" y="694" type="line"/>
      <point x="84" y="694" type="line"/>
      <point x="84" y="243" type="line" smooth="yes"/>
      <point x="84" y="90"/>
      <point x="185" y="-10"/>
    </contour>
  </outline>
</glyph>
<glyph name="V" format="2">
  <advance width="637"/>
  <unicode hex="0056"/>
  <note>
V
</note>
  <anchor x="319" y="0" name="bottom"/>
  <anchor x="319" y="694" name="top"/>
  <outline>
    <contour>
      <point x="278" y="0" type="line"/>
      <point x="359" y="0" type="line"/>
      <point x="612" y="694" type="line"/>
      <point x="528" y="694" type="line"/>
      <point x="297" y="29" type="line"/>
      <point x="347" y="29" type="line"/>
      <point x="120" y="694" type="line"/>
      <point x="25" y="694" type="line"/>
    </contour>
  </outline>
</glyph>
<glyph name="W" format="2">
  <advance width="976"/>
  <unicode hex="0057"/>
  <note>
W
</note>
  <anchor x="485" y="0" name="bottom"/>
  <anchor x="485" y="694" name="top"/>
  <outline>
    <contour>
      <point x="229" y="0" type="line"/>
      <point x="312" y="0" type="line"/>
      <point x="504" y="653" type="line"/>
      <point x="462" y="653" type="line"/>
      <point x="670" y="0" type="line"/>
      <point x="750" y="0" type="line"/>
      <point x="966" y="694" type="line"/>
      <point x="883" y="694" type="line"/>
      <point x="691" y="39" type="line"/>
      <point x="736" y="39" type="line"/>
      <point x="535" y="689" type="line"/>
      <point x="442" y="689" type="line"/>
      <point x="253" y="39" type="line"/>
      <point x="293" y="39" type="line"/>
      <point x="106" y="694" type="line"/>
      <point x="10" y="694" type="line"/>
    </contour>
  </outline>
</glyph>
<glyph name="X" format="2">
  <advance width="633.0"/>
  <unicode hex="0058"/>
  <note>
X
</note>
  <anchor x="317.0" y="0.0" name="bottom"/>
  <anchor x="317.0" y="694.0" name="top"/>
  <outline>
    <contour>
      <point x="511.0" y="0.0" type="line"/>
      <point x="610.0" y="0.0" type="line"/>
      <point x="345.0" y="383.0" type="line"/>
      <point x="143.0" y="694.0" type="line"/>
      <point x="44.0" y="694.0" type="line"/>
      <point x="289.0" y="331.0" type="line"/>
    </contour>
    <contour>
      <point x="24.0" y="0.0" type="line"/>
      <point x="118.0" y="0.0" type="line"/>
      <point x="321.0" y="309.0" type="line"/>
      <point x="278.0" y="373.0" type="line"/>
    </contour>
    <contour>
      <point x="349.0" y="351.0" type="line"/>
      <point x="584.0" y="694.0" type="line"/>
      <point x="490.0" y="694.0" type="line"/>
      <point x="306.0" y="415.0" type="line"/>
    </contour>
  </outline>
</glyph>
<glyph name="Y" format="2">
  <advance width="598"/>
  <unicode hex="0059"/>
  <note>
Y
</note>
  <anchor x="305" y="0" name="bottom"/>
  <anchor x="305" y="694" name="top"/>
  <anchor x="27" y="694" name="topleft"/>
  <outline>
    <contour>
      <point x="260" y="0" type="line"/>
      <point x="343" y="0" type="line"/>
      <point x="343" y="299" type="line"/>
      <point x="583" y="694" type="line"/>
      <point x="492" y="694" type="line"/>
      <point x="299" y="362" type="line"/>
      <point x="310" y="362" type="line"/>
      <point x="112" y="694" type="line"/>
      <point x="15" y="694" type="line"/>
      <point x="260" y="299" type="line"/>
    </contour>
  </outline>
</glyph>
<glyph name="Z" format="2">
  <advance width="646"/>
  <unicode hex="005A"/>
  <note>
Z
</note>
  <anchor x="323" y="0" name="bottom"/>
  <anchor x="323" y="694" name="top"/>
  <outline>
    <contour>
      <point x="44" y="0" type="line"/>
      <point x="602" y="0" type="line"/>
      <point x="602" y="72" type="line"/>
      <point x="122" y="72" type="line"/>
      <point x="134" y="47" type="line"/>
      <point x="589" y="642" type="line"/>
      <point x="589" y="694" type="line"/>
      <point x="58" y="694" type="line"/>
      <point x="58" y="622" type="line"/>
      <point x="510" y="622" type="line"/>
      <point x="498" y="647" type="line"/>
      <point x="44" y="53" type="line"/>
    </contour>
  </outline>
</glyph>
<glyph name="bracketleft" format="2">
  <advance width="367"/>
  <unicode hex="005B"/>
  <outline>
    <contour>
      <point x="100" y="-180" type="line"/>
      <point x="327" y="-180" type="line"/>
      <point x="327" y="-113" type="line"/>
      <point x="175" y="-113" type="line"/>
      <point x="175" y="672" type="line"/>
      <point x="327" y="672" type="line"/>
      <point x="327" y="739" type="line"/>
      <point x="100" y="739" type="line"/>
    </contour>
  </outline>
</glyph>
<glyph name="asciicircum" format="2">
  <advance width="638"/>
  <unicode hex="005E"/>
  <outline>
    <contour>
      <point x="125" y="232" type="line"/>
      <point x="324" y="619" type="line"/>
      <point x="302" y="620" type="line"/>
      <point x="496" y="232" type="line"/>
      <point x="572" y="268" type="line"/>
      <point x="349" y="699" type="line"/>
      <point x="279" y="699" type="line"/>
      <point x="65" y="260" type="line"/>
    </contour>
  </outline>
</glyph>
<glyph name="underscore" format="2">
	<unicode hex="005F"/>
	<advance width="604"/>
	<outline>
		<contour>
			<point x="83" y="-69" type="line"/>
			<point x="521" y="-69" type="line"/>
			<point x="521" y="0" type="line"/>
			<point x="83" y="0" type="line"/>
		</contour>
	</outline>
</glyph>
<glyph name="a" format="2">
  <advance width="512.0"/>
  <unicode hex="0061"/>
  <note>
a
</note>
  <anchor x="261.0" y="0.0" name="bottom"/>
  <anchor x="415.0" y="10.0" name="ogonek"/>
  <anchor x="246.0" y="482.0" name="top"/>
  <outline>
    <contour>
      <point x="381.0" y="0.0" type="line"/>
      <point x="437.0" y="0.0" type="line"/>
      <point x="437.0" y="313.0" type="line" smooth="yes"/>
      <point x="437.0" y="428.0"/>
      <point x="369.0" y="492.0"/>
      <point x="243.0" y="492.0" type="curve" smooth="yes"/>
      <point x="180.0" y="492.0"/>
      <point x="112.0" y="475.0"/>
      <point x="60.0" y="446.0" type="curve"/>
      <point x="80.0" y="387.0" type="line"/>
      <point x="130.0" y="409.0"/>
      <point x="180.0" y="420.0"/>
      <point x="227.0" y="420.0" type="curve" smooth="yes"/>
      <point x="313.0" y="420.0"/>
      <point x="357.0" y="384.0"/>
      <point x="357.0" y="313.0" type="curve" smooth="yes"/>
      <point x="357.0" y="56.0" type="line"/>
    </contour>
    <contour>
      <point x="210.0" y="-10.0" type="curve" smooth="yes"/>
      <point x="325.0" y="-10.0"/>
      <point x="412.0" y="62.0"/>
      <point x="426.0" y="169.0" type="curve"/>
      <point x="397.0" y="183.0" type="line"/>
      <point x="382.0" y="109.0"/>
      <point x="316.0" y="60.0"/>
      <point x="233.0" y="60.0" type="curve" smooth="yes"/>
      <point x="169.0" y="60.0"/>
      <point x="127.0" y="92.0"/>
      <point x="127.0" y="140.0" type="curve" smooth="yes"/>
      <point x="127.0" y="201.0"/>
      <point x="198.0" y="226.0"/>
      <point x="369.0" y="226.0" type="curve"/>
      <point x="369.0" y="281.0" type="line"/>
      <point x="144.0" y="281.0"/>
      <point x="47.0" y="236.0"/>
      <point x="47.0" y="131.0" type="curve" smooth="yes"/>
      <point x="47.0" y="45.0"/>
      <point x="111.0" y="-10.0"/>
    </contour>
  </outline>
</glyph>
<glyph name="b" format="2">
  <advance width="569.0"/>
  <unicode hex="0062"/>
  <note>
b
</note>
  <anchor x="283.0" y="0.0" name="bottom"/>
  <anchor x="283.0" y="482.0" name="top"/>
  <outline>
    <contour>
      <point x="83.0" y="0.0" type="line"/>
      <point x="139.0" y="0.0" type="line"/>
      <point x="163.0" y="56.0" type="line"/>
      <point x="163.0" y="739.0" type="line"/>
      <point x="83.0" y="739.0" type="line"/>
    </contour>
    <contour>
      <point x="288.0" y="-10.0" type="curve" smooth="yes"/>
      <point x="426.0" y="-10.0"/>
      <point x="518.0" y="93.0"/>
      <point x="518.0" y="247.0" type="curve" smooth="yes"/>
      <point x="518.0" y="394.0"/>
      <point x="430.0" y="492.0"/>
      <point x="298.0" y="492.0" type="curve" smooth="yes"/>
      <point x="206.0" y="492.0"/>
      <point x="139.0" y="445.0"/>
      <point x="107.0" y="364.0" type="curve"/>
      <point x="137.0" y="320.0" type="line"/>
      <point x="159.0" y="384.0"/>
      <point x="211.0" y="422.0"/>
      <point x="279.0" y="422.0" type="curve" smooth="yes"/>
      <point x="375.0" y="422.0"/>
      <point x="438.0" y="346.0"/>
      <point x="438.0" y="235.0" type="curve" smooth="yes"/>
      <point x="438.0" y="130.0"/>
      <point x="381.0" y="60.0"/>
      <point x="288.0" y="60.0" type="curve" smooth="yes"/>
      <point x="221.0" y="60.0"/>
      <point x="169.0" y="96.0"/>
      <point x="143.0" y="155.0" type="curve"/>
      <point x="106.0" y="111.0" type="line"/>
      <point x="137.0" y="33.0"/>
      <point x="200.0" y="-10.0"/>
    </contour>
  </outline>
</glyph>
<glyph name="c" format="2">
  <advance width="466"/>
  <unicode hex="0063"/>
  <note>
c
</note>
  <anchor x="247" y="0" name="bottom"/>
  <anchor x="267" y="482" name="top"/>
  <outline>
    <contour>
      <point x="271" y="-10" type="curve" smooth="yes"/>
      <point x="329" y="-10"/>
      <point x="389" y="4"/>
      <point x="429" y="28" type="curve"/>
      <point x="411" y="86" type="line"/>
      <point x="371" y="67"/>
      <point x="327" y="56"/>
      <point x="290" y="56" type="curve" smooth="yes"/>
      <point x="190" y="56"/>
      <point x="133" y="126"/>
      <point x="133" y="243" type="curve" smooth="yes"/>
      <point x="133" y="359"/>
      <point x="189" y="422"/>
      <point x="289" y="422" type="curve" smooth="yes"/>
      <point x="327" y="422"/>
      <point x="370" y="413"/>
      <point x="410" y="395" type="curve"/>
      <point x="429" y="460" type="line"/>
      <point x="385" y="481"/>
      <point x="338" y="492"/>
      <point x="290" y="492" type="curve" smooth="yes"/>
      <point x="147" y="492"/>
      <point x="51" y="386"/>
      <point x="51" y="227" type="curve" smooth="yes"/>
      <point x="51" y="78"/>
      <point x="133" y="-10"/>
    </contour>
  </outline>
</glyph>
<glyph name="d" format="2">
  <advance width="570.0"/>
  <unicode hex="0064"/>
  <note>
d
</note>
  <anchor x="287.0" y="0.0" name="bottom"/>
  <anchor x="412.0" y="598.0" name="center"/>
  <anchor x="287.0" y="482.0" name="top"/>
  <anchor x="591.0" y="482.0" name="topright"/>
  <outline>
    <contour>
      <point x="431.0" y="0.0" type="line"/>
      <point x="487.0" y="0.0" type="line"/>
      <point x="487.0" y="739.0" type="line"/>
      <point x="407.0" y="739.0" type="line"/>
      <point x="407.0" y="56.0" type="line"/>
    </contour>
    <contour>
      <point x="267.0" y="-10.0" type="curve" smooth="yes"/>
      <point x="348.0" y="-10.0"/>
      <point x="411.0" y="30.0"/>
      <point x="448.0" y="96.0" type="curve"/>
      <point x="419.0" y="132.0" type="line"/>
      <point x="392.0" y="87.0"/>
      <point x="347.0" y="60.0"/>
      <point x="290.0" y="60.0" type="curve" smooth="yes"/>
      <point x="194.0" y="60.0"/>
      <point x="132.0" y="135.0"/>
      <point x="132.0" y="246.0" type="curve" smooth="yes"/>
      <point x="132.0" y="352.0"/>
      <point x="188.0" y="422.0"/>
      <point x="281.0" y="422.0" type="curve" smooth="yes"/>
      <point x="342.0" y="422.0"/>
      <point x="390.0" y="394.0"/>
      <point x="418.0" y="346.0" type="curve"/>
      <point x="455.0" y="390.0" type="line"/>
      <point x="420.0" y="455.0"/>
      <point x="358.0" y="492.0"/>
      <point x="278.0" y="492.0" type="curve" smooth="yes"/>
      <point x="142.0" y="492.0"/>
      <point x="52.0" y="390.0"/>
      <point x="52.0" y="237.0" type="curve" smooth="yes"/>
      <point x="52.0" y="89.0"/>
      <point x="138.0" y="-10.0"/>
    </contour>
  </outline>
</glyph>
<glyph name="e" format="2">
  <advance width="527.0"/>
  <unicode hex="0065"/>
  <note>
e
</note>
  <anchor x="285.0" y="0.0" name="bottom"/>
  <anchor x="428.0" y="10.0" name="ogonek"/>
  <anchor x="270.0" y="482.0" name="top"/>
  <outline>
    <contour>
      <point x="299.0" y="-10.0" type="curve" smooth="yes"/>
      <point x="354.0" y="-10.0"/>
      <point x="414.0" y="3.0"/>
      <point x="457.0" y="26.0" type="curve"/>
      <point x="439.0" y="84.0" type="line"/>
      <point x="402.0" y="66.0"/>
      <point x="355.0" y="55.0"/>
      <point x="313.0" y="55.0" type="curve" smooth="yes"/>
      <point x="200.0" y="55.0"/>
      <point x="133.0" y="130.0"/>
      <point x="133.0" y="255.0" type="curve" smooth="yes"/>
      <point x="133.0" y="364.0"/>
      <point x="182.0" y="424.0"/>
      <point x="270.0" y="424.0" type="curve" smooth="yes"/>
      <point x="352.0" y="424.0"/>
      <point x="400.0" y="371.0"/>
      <point x="400.0" y="279.0" type="curve"/>
      <point x="119.0" y="279.0" type="line"/>
      <point x="119.0" y="219.0" type="line"/>
      <point x="471.0" y="219.0" type="line"/>
      <point x="473.0" y="234.0"/>
      <point x="475.0" y="269.0"/>
      <point x="475.0" y="288.0" type="curve" smooth="yes"/>
      <point x="475.0" y="409.0"/>
      <point x="395.0" y="492.0"/>
      <point x="276.0" y="492.0" type="curve" smooth="yes"/>
      <point x="142.0" y="492.0"/>
      <point x="51.0" y="387.0"/>
      <point x="51.0" y="239.0" type="curve" smooth="yes"/>
      <point x="51.0" y="85.0"/>
      <point x="146.0" y="-10.0"/>
    </contour>
  </outline>
</glyph>
<glyph name="f" format="2">
  <advance width="340.0"/>
  <unicode hex="0066"/>
  <note>
f
</note>
  <anchor x="139.0" y="0.0" name="bottom"/>
  <anchor x="266.0" y="739.0" name="top"/>
  <outline>
    <contour>
      <point x="99.0" y="0.0" type="line"/>
      <point x="179.0" y="0.0" type="line"/>
      <point x="179.0" y="587.0" type="line" smooth="yes"/>
      <point x="179.0" y="649.0"/>
      <point x="208.0" y="681.0"/>
      <point x="263.0" y="681.0" type="curve" smooth="yes"/>
      <point x="289.0" y="681.0"/>
      <point x="323.0" y="676.0"/>
      <point x="348.0" y="664.0" type="curve"/>
      <point x="365.0" y="724.0" type="line"/>
      <point x="334.0" y="739.0"/>
      <point x="303.0" y="749.0"/>
      <point x="269.0" y="749.0" type="curve" smooth="yes"/>
      <point x="167.0" y="749.0"/>
      <point x="99.0" y="680.0"/>
      <point x="99.0" y="577.0" type="curve" smooth="yes"/>
    </contour>
    <contour>
      <point x="27.0" y="415.0" type="line"/>
      <point x="329.0" y="415.0" type="line"/>
      <point x="329.0" y="482.0" type="line"/>
      <point x="27.0" y="482.0" type="line"/>
    </contour>
  </outline>
</glyph>
<glyph name="g" format="2">
  <advance width="570.0"/>
  <unicode hex="0067"/>
  <note>
g
</note>
  <anchor x="287.0" y="0.0" name="bottom"/>
  <anchor x="277.0" y="482.0" name="top"/>
  <outline>
    <contour>
      <point x="257.0" y="-227.0" type="curve" smooth="yes"/>
      <point x="396.0" y="-227.0"/>
      <point x="487.0" y="-131.0"/>
      <point x="487.0" y="14.0" type="curve" smooth="yes"/>
      <point x="487.0" y="482.0" type="line"/>
      <point x="431.0" y="482.0" type="line"/>
      <point x="407.0" y="417.0" type="line"/>
      <point x="407.0" y="2.0" type="line" smooth="yes"/>
      <point x="407.0" y="-105.0"/>
      <point x="359.0" y="-158.0"/>
      <point x="263.0" y="-158.0" type="curve" smooth="yes"/>
      <point x="220.0" y="-158.0"/>
      <point x="168.0" y="-147.0"/>
      <point x="123.0" y="-128.0" type="curve"/>
      <point x="106.0" y="-189.0" type="line"/>
      <point x="156.0" y="-214.0"/>
      <point x="207.0" y="-227.0"/>
    </contour>
    <contour>
      <point x="267.0" y="-10.0" type="curve" smooth="yes"/>
      <point x="348.0" y="-10.0"/>
      <point x="411.0" y="30.0"/>
      <point x="448.0" y="96.0" type="curve"/>
      <point x="419.0" y="132.0" type="line"/>
      <point x="392.0" y="87.0"/>
      <point x="347.0" y="60.0"/>
      <point x="290.0" y="60.0" type="curve" smooth="yes"/>
      <point x="194.0" y="60.0"/>
      <point x="132.0" y="135.0"/>
      <point x="132.0" y="246.0" type="curve" smooth="yes"/>
      <point x="132.0" y="352.0"/>
      <point x="188.0" y="422.0"/>
      <point x="281.0" y="422.0" type="curve" smooth="yes"/>
      <point x="342.0" y="422.0"/>
      <point x="390.0" y="394.0"/>
      <point x="418.0" y="346.0" type="curve"/>
      <point x="455.0" y="390.0" type="line"/>
      <point x="420.0" y="455.0"/>
      <point x="358.0" y="492.0"/>
      <point x="277.0" y="492.0" type="curve" smooth="yes"/>
      <point x="143.0" y="492.0"/>
      <point x="52.0" y="391.0"/>
      <point x="52.0" y="238.0" type="curve" smooth="yes"/>
      <point x="52.0" y="89.0"/>
      <point x="138.0" y="-10.0"/>
    </contour>
  </outline>
</glyph>
<glyph name="h" format="2">
  <advance width="567.0"/>
  <unicode hex="0068"/>
  <note>
h
</note>
  <anchor x="283.0" y="0.0" name="bottom"/>
  <anchor x="161.0" y="593.0" name="center"/>
  <anchor x="289.0" y="739.0" name="top"/>
  <outline>
    <contour>
      <point x="83.0" y="0.0" type="line"/>
      <point x="163.0" y="0.0" type="line"/>
      <point x="163.0" y="739.0" type="line"/>
      <point x="83.0" y="739.0" type="line"/>
    </contour>
    <contour>
      <point x="412.0" y="0.0" type="line"/>
      <point x="492.0" y="0.0" type="line"/>
      <point x="492.0" y="316.0" type="line" smooth="yes"/>
      <point x="492.0" y="423.0"/>
      <point x="421.0" y="492.0"/>
      <point x="313.0" y="492.0" type="curve" smooth="yes"/>
      <point x="243.0" y="492.0"/>
      <point x="174.0" y="462.0"/>
      <point x="123.0" y="403.0" type="curve"/>
      <point x="142.0" y="352.0" type="line"/>
      <point x="182.0" y="399.0"/>
      <point x="235.0" y="422.0"/>
      <point x="291.0" y="422.0" type="curve" smooth="yes"/>
      <point x="369.0" y="422.0"/>
      <point x="412.0" y="378.0"/>
      <point x="412.0" y="300.0" type="curve" smooth="yes"/>
    </contour>
  </outline>
</glyph>
<glyph name="k" format="2">
  <advance width="498.0"/>
  <unicode hex="006B"/>
  <note>
k
</note>
  <anchor x="251.0" y="0.0" name="bottom"/>
  <anchor x="231.0" y="739.0" name="top"/>
  <outline>
    <contour>
      <point x="83.0" y="0.0" type="line"/>
      <point x="163.0" y="0.0" type="line"/>
      <point x="163.0" y="739.0" type="line"/>
      <point x="83.0" y="739.0" type="line"/>
    </contour>
    <contour>
      <point x="388.0" y="0.0" type="line"/>
      <point x="494.0" y="0.0" type="line"/>
      <point x="243.0" y="286.0" type="line"/>
      <point x="237.0" y="237.0" type="line"/>
      <point x="472.0" y="482.0" type="line"/>
      <point x="377.0" y="482.0" type="line"/>
      <point x="161.0" y="257.0" type="line"/>
    </contour>
  </outline>
</glyph>
<glyph name="l" format="2">
  <advance width="271.0"/>
  <unicode hex="006C"/>
  <note>
l
</note>
  <anchor x="160.0" y="0.0" name="bottom"/>
  <anchor x="139.0" y="386.0" name="center"/>
  <anchor x="272.0" y="353.0" name="periodcentered"/>
  <anchor x="121.0" y="739.0" name="top"/>
  <anchor x="268.0" y="482.0" name="topright"/>
  <outline>
    <contour>
      <point x="189.0" y="-6.0" type="curve" smooth="yes"/>
      <point x="215.0" y="-6.0"/>
      <point x="246.0" y="0.0"/>
      <point x="265.0" y="10.0" type="curve"/>
      <point x="247.0" y="66.0" type="line"/>
      <point x="235.0" y="61.0"/>
      <point x="224.0" y="58.0"/>
      <point x="212.0" y="58.0" type="curve" smooth="yes"/>
      <point x="178.0" y="58.0"/>
      <point x="160.0" y="81.0"/>
      <point x="160.0" y="118.0" type="curve" smooth="yes"/>
      <point x="160.0" y="739.0" type="line"/>
      <point x="80.0" y="739.0" type="line"/>
      <point x="80.0" y="108.0" type="line" smooth="yes"/>
      <point x="80.0" y="39.0"/>
      <point x="123.0" y="-6.0"/>
    </contour>
  </outline>
</glyph>
<glyph name="m" format="2">
  <advance width="886.0"/>
  <unicode hex="006D"/>
  <note>
m
</note>
  <anchor x="443.0" y="0.0" name="bottom"/>
  <anchor x="443.0" y="482.0" name="top"/>
  <outline>
    <contour>
      <point x="83.0" y="0.0" type="line"/>
      <point x="163.0" y="0.0" type="line"/>
      <point x="163.0" y="426.0" type="line"/>
      <point x="139.0" y="482.0" type="line"/>
      <point x="83.0" y="482.0" type="line"/>
    </contour>
    <contour>
      <point x="407.0" y="0.0" type="line"/>
      <point x="487.0" y="0.0" type="line"/>
      <point x="487.0" y="316.0" type="line" smooth="yes"/>
      <point x="487.0" y="423.0"/>
      <point x="417.0" y="492.0"/>
      <point x="311.0" y="492.0" type="curve" smooth="yes"/>
      <point x="241.0" y="492.0"/>
      <point x="173.0" y="462.0"/>
      <point x="123.0" y="409.0" type="curve"/>
      <point x="142.0" y="358.0" type="line"/>
      <point x="181.0" y="399.0"/>
      <point x="233.0" y="422.0"/>
      <point x="288.0" y="422.0" type="curve" smooth="yes"/>
      <point x="365.0" y="422.0"/>
      <point x="407.0" y="378.0"/>
      <point x="407.0" y="300.0" type="curve" smooth="yes"/>
    </contour>
    <contour>
      <point x="731.0" y="0.0" type="line"/>
      <point x="811.0" y="0.0" type="line"/>
      <point x="811.0" y="316.0" type="line" smooth="yes"/>
      <point x="811.0" y="423.0"/>
      <point x="741.0" y="492.0"/>
      <point x="634.0" y="492.0" type="curve" smooth="yes"/>
      <point x="565.0" y="492.0"/>
      <point x="497.0" y="462.0"/>
      <point x="447.0" y="409.0" type="curve"/>
      <point x="466.0" y="358.0" type="line"/>
      <point x="505.0" y="399.0"/>
      <point x="557.0" y="422.0"/>
      <point x="612.0" y="422.0" type="curve" smooth="yes"/>
      <point x="689.0" y="422.0"/>
      <point x="731.0" y="378.0"/>
      <point x="731.0" y="300.0" type="curve" smooth="yes"/>
    </contour>
  </outline>
</glyph>
<glyph name="n" format="2">
  <advance width="567.0"/>
  <unicode hex="006E"/>
  <note>
n
</note>
  <anchor x="286.0" y="0.0" name="bottom"/>
  <anchor x="286.0" y="482.0" name="top"/>
  <outline>
    <contour>
      <point x="83.0" y="0.0" type="line"/>
      <point x="163.0" y="0.0" type="line"/>
      <point x="163.0" y="426.0" type="line"/>
      <point x="139.0" y="482.0" type="line"/>
      <point x="83.0" y="482.0" type="line"/>
    </contour>
    <contour>
      <point x="412.0" y="0.0" type="line"/>
      <point x="492.0" y="0.0" type="line"/>
      <point x="492.0" y="316.0" type="line" smooth="yes"/>
      <point x="492.0" y="423.0"/>
      <point x="421.0" y="492.0"/>
      <point x="313.0" y="492.0" type="curve" smooth="yes"/>
      <point x="243.0" y="492.0"/>
      <point x="174.0" y="462.0"/>
      <point x="123.0" y="409.0" type="curve"/>
      <point x="142.0" y="358.0" type="line"/>
      <point x="182.0" y="399.0"/>
      <point x="235.0" y="422.0"/>
      <point x="291.0" y="422.0" type="curve" smooth="yes"/>
      <point x="369.0" y="422.0"/>
      <point x="412.0" y="378.0"/>
      <point x="412.0" y="300.0" type="curve" smooth="yes"/>
    </contour>
  </outline>
</glyph>
<glyph name="o" format="2">
  <advance width="565"/>
  <unicode hex="006F"/>
  <note>
o
</note>
  <anchor x="283" y="0" name="bottom"/>
  <anchor x="283" y="241" name="center"/>
  <anchor x="368" y="10" name="ogonek"/>
  <anchor x="283" y="482" name="top"/>
  <anchor x="507" y="482" name="topright"/>
  <outline>
    <contour>
      <point x="276" y="-10" type="curve" smooth="yes"/>
      <point x="418" y="-10"/>
      <point x="514" y="93"/>
      <point x="514" y="247" type="curve" smooth="yes"/>
      <point x="514" y="396"/>
      <point x="425" y="492"/>
      <point x="288" y="492" type="curve" smooth="yes"/>
      <point x="146" y="492"/>
      <point x="51" y="390"/>
      <point x="51" y="236" type="curve" smooth="yes"/>
      <point x="51" y="87"/>
      <point x="139" y="-10"/>
    </contour>
    <contour>
      <point x="287" y="60" type="curve" smooth="yes"/>
      <point x="194" y="60"/>
      <point x="131" y="135"/>
      <point x="131" y="246" type="curve" smooth="yes"/>
      <point x="131" y="353"/>
      <point x="188" y="422"/>
      <point x="277" y="422" type="curve" smooth="yes"/>
      <point x="370" y="422"/>
      <point x="434" y="346"/>
      <point x="434" y="236" type="curve" smooth="yes"/>
      <point x="434" y="130"/>
      <point x="376" y="60"/>
    </contour>
  </outline>
</glyph>
<glyph name="p" format="2">
  <advance width="571.0"/>
  <unicode hex="0070"/>
  <note>
p
</note>
  <anchor x="284.0" y="0.0" name="bottom"/>
  <anchor x="284.0" y="482.0" name="top"/>
  <outline>
    <contour>
      <point x="83.0" y="-217.0" type="line"/>
      <point x="163.0" y="-217.0" type="line"/>
      <point x="163.0" y="426.0" type="line"/>
      <point x="139.0" y="482.0" type="line"/>
      <point x="83.0" y="482.0" type="line"/>
    </contour>
    <contour>
      <point x="295.0" y="-10.0" type="curve" smooth="yes"/>
      <point x="429.0" y="-10.0"/>
      <point x="519.0" y="94.0"/>
      <point x="519.0" y="250.0" type="curve" smooth="yes"/>
      <point x="519.0" y="395.0"/>
      <point x="436.0" y="492.0"/>
      <point x="312.0" y="492.0" type="curve" smooth="yes"/>
      <point x="243.0" y="492.0"/>
      <point x="178.0" y="462.0"/>
      <point x="137.0" y="410.0" type="curve"/>
      <point x="155.0" y="360.0" type="line"/>
      <point x="190.0" y="399.0"/>
      <point x="240.0" y="422.0"/>
      <point x="291.0" y="422.0" type="curve" smooth="yes"/>
      <point x="381.0" y="422.0"/>
      <point x="439.0" y="350.0"/>
      <point x="439.0" y="240.0" type="curve" smooth="yes"/>
      <point x="439.0" y="132.0"/>
      <point x="386.0" y="60.0"/>
      <point x="299.0" y="60.0" type="curve" smooth="yes"/>
      <point x="227.0" y="60.0"/>
      <point x="167.0" y="107.0"/>
      <point x="150.0" y="178.0" type="curve"/>
      <point x="117.0" y="123.0" type="line"/>
      <point x="139.0" y="39.0"/>
      <point x="208.0" y="-10.0"/>
    </contour>
  </outline>
</glyph>
<glyph name="r" format="2">
  <advance width="377.0"/>
  <unicode hex="0072"/>
  <note>
r
</note>
  <anchor x="122.0" y="0.0" name="bottom"/>
  <anchor x="227.0" y="482.0" name="top"/>
  <outline>
    <contour>
      <point x="83.0" y="0.0" type="line"/>
      <point x="163.0" y="0.0" type="line"/>
      <point x="163.0" y="370.0" type="line"/>
      <point x="149.0" y="482.0" type="line"/>
      <point x="83.0" y="482.0" type="line"/>
    </contour>
    <contour>
      <point x="145.0" y="313.0" type="line"/>
      <point x="173.0" y="374.0"/>
      <point x="231.0" y="411.0"/>
      <point x="297.0" y="411.0" type="curve" smooth="yes"/>
      <point x="316.0" y="411.0"/>
      <point x="334.0" y="408.0"/>
      <point x="350.0" y="402.0" type="curve"/>
      <point x="370.0" y="476.0" type="line"/>
      <point x="349.0" y="483.0"/>
      <point x="328.0" y="487.0"/>
      <point x="306.0" y="487.0" type="curve" smooth="yes"/>
      <point x="241.0" y="487.0"/>
      <point x="181.0" y="452.0"/>
      <point x="145.0" y="394.0" type="curve"/>
    </contour>
  </outline>
</glyph>
<glyph name="s" format="2">
  <advance width="464.0"/>
  <unicode hex="0073"/>
  <note>
s
</note>
  <anchor x="236.0" y="0.0" name="bottom"/>
  <anchor x="231.0" y="482.0" name="top"/>
  <outline>
    <contour>
      <point x="229.0" y="-10.0" type="curve" smooth="yes"/>
      <point x="348.0" y="-10.0"/>
      <point x="421.0" y="46.0"/>
      <point x="421.0" y="135.0" type="curve" smooth="yes"/>
      <point x="421.0" y="312.0"/>
      <point x="133.0" y="246.0"/>
      <point x="133.0" y="355.0" type="curve" smooth="yes"/>
      <point x="133.0" y="397.0"/>
      <point x="178.0" y="424.0"/>
      <point x="250.0" y="424.0" type="curve" smooth="yes"/>
      <point x="291.0" y="424.0"/>
      <point x="339.0" y="415.0"/>
      <point x="380.0" y="401.0" type="curve"/>
      <point x="399.0" y="466.0" type="line"/>
      <point x="358.0" y="483.0"/>
      <point x="309.0" y="492.0"/>
      <point x="258.0" y="492.0" type="curve" smooth="yes"/>
      <point x="133.0" y="492.0"/>
      <point x="53.0" y="437.0"/>
      <point x="53.0" y="346.0" type="curve" smooth="yes"/>
      <point x="53.0" y="173.0"/>
      <point x="340.0" y="245.0"/>
      <point x="340.0" y="127.0" type="curve" smooth="yes"/>
      <point x="340.0" y="83.0"/>
      <point x="301.0" y="58.0"/>
      <point x="235.0" y="58.0" type="curve" smooth="yes"/>
      <point x="184.0" y="58.0"/>
      <point x="116.0" y="72.0"/>
      <point x="65.0" y="94.0" type="curve"/>
      <point x="46.0" y="29.0" type="line"/>
      <point x="101.0" y="4.0"/>
      <point x="168.0" y="-10.0"/>
    </contour>
  </outline>
</glyph>
<glyph name="t" format="2">
  <advance width="361.0"/>
  <unicode hex="0074"/>
  <note>
t
</note>
  <anchor x="204.0" y="5.0" name="bottom"/>
  <anchor x="168.0" y="246.0" name="center"/>
  <anchor x="132.0" y="623.0" name="top"/>
  <anchor x="289.0" y="482.0" name="topright"/>
  <outline>
    <contour>
      <point x="241.0" y="-5.0" type="curve" smooth="yes"/>
      <point x="274.0" y="-5.0"/>
      <point x="307.0" y="3.0"/>
      <point x="330.0" y="13.0" type="curve"/>
      <point x="312.0" y="71.0" type="line"/>
      <point x="297.0" y="64.0"/>
      <point x="275.0" y="60.0"/>
      <point x="258.0" y="60.0" type="curve" smooth="yes"/>
      <point x="208.0" y="60.0"/>
      <point x="175.0" y="92.0"/>
      <point x="175.0" y="140.0" type="curve" smooth="yes"/>
      <point x="175.0" y="623.0" type="line"/>
      <point x="95.0" y="623.0" type="line"/>
      <point x="95.0" y="129.0" type="line" smooth="yes"/>
      <point x="95.0" y="49.0"/>
      <point x="153.0" y="-5.0"/>
    </contour>
    <contour>
      <point x="30.0" y="415.0" type="line"/>
      <point x="307.0" y="415.0" type="line"/>
      <point x="307.0" y="482.0" type="line"/>
      <point x="30.0" y="482.0" type="line"/>
    </contour>
  </outline>
</glyph>
<glyph name="u" format="2">
  <advance width="557.0"/>
  <unicode hex="0075"/>
  <note>
u
</note>
  <anchor x="273.0" y="0.0" name="bottom"/>
  <anchor x="452.0" y="10.0" name="ogonek"/>
  <anchor x="273.0" y="482.0" name="top"/>
  <anchor x="531.0" y="482.0" name="topright"/>
  <outline>
    <contour>
      <point x="474.0" y="482.0" type="line"/>
      <point x="394.0" y="482.0" type="line"/>
      <point x="394.0" y="56.0" type="line"/>
      <point x="418.0" y="0.0" type="line"/>
      <point x="474.0" y="0.0" type="line"/>
    </contour>
    <contour>
      <point x="154.0" y="482.0" type="line"/>
      <point x="74.0" y="482.0" type="line"/>
      <point x="74.0" y="166.0" type="line" smooth="yes"/>
      <point x="74.0" y="59.0"/>
      <point x="145.0" y="-10.0"/>
      <point x="248.0" y="-10.0" type="curve" smooth="yes"/>
      <point x="316.0" y="-10.0"/>
      <point x="385.0" y="20.0"/>
      <point x="434.0" y="73.0" type="curve"/>
      <point x="415.0" y="124.0" type="line"/>
      <point x="377.0" y="83.0"/>
      <point x="324.0" y="60.0"/>
      <point x="272.0" y="60.0" type="curve" smooth="yes"/>
      <point x="197.0" y="60.0"/>
      <point x="154.0" y="104.0"/>
      <point x="154.0" y="182.0" type="curve" smooth="yes"/>
    </contour>
  </outline>
</glyph>
<glyph name="v" format="2">
  <advance width="480.0"/>
  <unicode hex="0076"/>
  <note>
v
</note>
  <anchor x="240.0" y="0.0" name="bottom"/>
  <anchor x="240.0" y="482.0" name="top"/>
  <outline>
    <contour>
      <point x="202.0" y="0.0" type="line"/>
      <point x="280.0" y="0.0" type="line"/>
      <point x="468.0" y="482.0" type="line"/>
      <point x="388.0" y="482.0" type="line"/>
      <point x="221.0" y="16.0" type="line"/>
      <point x="265.0" y="16.0" type="line"/>
      <point x="101.0" y="482.0" type="line"/>
      <point x="12.0" y="482.0" type="line"/>
    </contour>
  </outline>
</glyph>
<glyph name="w" format="2">
  <advance width="787.0"/>
  <unicode hex="0077"/>
  <note>
w
</note>
  <anchor x="401.0" y="0.0" name="bottom"/>
  <anchor x="401.0" y="482.0" name="top"/>
  <outline>
    <contour>
      <point x="190.0" y="0.0" type="line"/>
      <point x="266.0" y="0.0" type="line"/>
      <point x="407.0" y="440.0" type="line"/>
      <point x="374.0" y="440.0" type="line"/>
      <point x="521.0" y="0.0" type="line"/>
      <point x="602.0" y="0.0" type="line"/>
      <point x="772.0" y="482.0" type="line"/>
      <point x="692.0" y="482.0" type="line"/>
      <point x="549.0" y="35.0" type="line"/>
      <point x="582.0" y="35.0" type="line"/>
      <point x="442.0" y="480.0" type="line"/>
      <point x="352.0" y="480.0" type="line"/>
      <point x="215.0" y="35.0" type="line"/>
      <point x="247.0" y="35.0" type="line"/>
      <point x="105.0" y="482.0" type="line"/>
      <point x="14.0" y="482.0" type="line"/>
    </contour>
  </outline>
</glyph>
<glyph name="x" format="2">
  <advance width="469.0"/>
  <unicode hex="0078"/>
  <note>
x
</note>
  <anchor x="234.0" y="0.0" name="bottom"/>
  <anchor x="234.0" y="482.0" name="top"/>
  <outline>
    <contour>
      <point x="14.0" y="0.0" type="line"/>
      <point x="105.0" y="0.0" type="line"/>
      <point x="255.0" y="214.0" type="line"/>
      <point x="458.0" y="482.0" type="line"/>
      <point x="367.0" y="482.0" type="line"/>
      <point x="214.0" y="264.0" type="line"/>
    </contour>
    <contour>
      <point x="357.0" y="0.0" type="line"/>
      <point x="449.0" y="0.0" type="line"/>
      <point x="251.0" y="272.0" type="line"/>
      <point x="105.0" y="482.0" type="line"/>
      <point x="13.0" y="482.0" type="line"/>
      <point x="208.0" y="211.0" type="line"/>
    </contour>
  </outline>
</glyph>
<glyph name="y" format="2">
  <advance width="482.0"/>
  <unicode hex="0079"/>
  <note>
y
</note>
  <anchor x="381.0" y="0.0" name="bottom"/>
  <anchor x="231.0" y="482.0" name="top"/>
  <outline>
    <contour>
      <point x="203.0" y="0.0" type="line"/>
      <point x="281.0" y="0.0" type="line"/>
      <point x="469.0" y="482.0" type="line"/>
      <point x="389.0" y="482.0" type="line"/>
      <point x="222.0" y="16.0" type="line"/>
      <point x="266.0" y="16.0" type="line"/>
      <point x="102.0" y="482.0" type="line"/>
      <point x="13.0" y="482.0" type="line"/>
    </contour>
    <contour>
      <point x="116.0" y="-217.0" type="line"/>
      <point x="201.0" y="-217.0" type="line"/>
      <point x="281.0" y="0.0" type="line"/>
      <point x="203.0" y="0.0" type="line"/>
    </contour>
  </outline>
</glyph>
<glyph name="z" format="2">
	<unicode hex="007A"/>
	<advance width="464"/>
	<outline>
		<contour>
			<point x="39" y="0" type="line"/>
			<point x="429" y="0" type="line"/>
			<point x="429" y="67" type="line"/>
			<point x="117" y="67" type="line"/>
			<point x="129" y="49" type="line"/>
			<point x="417" y="433" type="line"/>
			<point x="417" y="482" type="line"/>
			<point x="39" y="482" type="line"/>
			<point x="39" y="415" type="line"/>
			<point x="338" y="415" type="line"/>
			<point x="326" y="433" type="line"/>
			<point x="39" y="49" type="line"/>
		</contour>
	</outline>
	<anchor name="bottom" x="232" y="0"/>
	<anchor name="top" x="232" y="482"/>
	<note>
		z
	</note>
</glyph>
<glyph name="braceleft" format="2">
  <advance width="375"/>
  <unicode hex="007B"/>
  <outline>
    <contour>
      <point x="335" y="-173" type="curve"/>
      <point x="335" y="-104" type="line"/>
      <point x="256" y="-104"/>
      <point x="219" y="-78"/>
      <point x="219" y="-21" type="curve" smooth="yes"/>
      <point x="219" y="128" type="line" smooth="yes"/>
      <point x="219" y="218"/>
      <point x="182" y="281"/>
      <point x="118" y="295" type="curve"/>
      <point x="118" y="291" type="line"/>
      <point x="180" y="310"/>
      <point x="220" y="374"/>
      <point x="220" y="452" type="curve" smooth="yes"/>
      <point x="220" y="596" type="line" smooth="yes"/>
      <point x="220" y="654"/>
      <point x="256" y="680"/>
      <point x="335" y="680" type="curve"/>
      <point x="335" y="749" type="line"/>
      <point x="203" y="749"/>
      <point x="143" y="699"/>
      <point x="143" y="587" type="curve" smooth="yes"/>
      <point x="143" y="442" type="line" smooth="yes"/>
      <point x="143" y="378"/>
      <point x="101" y="330"/>
      <point x="36" y="327" type="curve"/>
      <point x="36" y="248" type="line"/>
      <point x="106" y="245"/>
      <point x="143" y="197"/>
      <point x="143" y="118" type="curve" smooth="yes"/>
      <point x="143" y="-32" type="line" smooth="yes"/>
      <point x="143" y="-127"/>
      <point x="206" y="-173"/>
    </contour>
  </outline>
</glyph>
<glyph name="bar" format="2">
  <advance width="327.0"/>
  <unicode hex="007C"/>
  <outline>
    <contour>
      <point x="125.0" y="-159.0" type="line"/>
      <point x="202.0" y="-159.0" type="line"/>
      <point x="202.0" y="741.0" type="line"/>
      <point x="125.0" y="741.0" type="line"/>
    </contour>
  </outline>
</glyph>
<glyph name="asciitilde" format="2">
  <advance width="674.0"/>
  <unicode hex="007E"/>
  <outline>
    <contour>
      <point x="146.0" y="252.0" type="line"/>
      <point x="158.0" y="296.0"/>
      <point x="197.0" y="330.0"/>
      <point x="237.0" y="330.0" type="curve" smooth="yes"/>
      <point x="299.0" y="330.0"/>
      <point x="334.0" y="247.0"/>
      <point x="424.0" y="247.0" type="curve" smooth="yes"/>
      <point x="494.0" y="247.0"/>
      <point x="560.0" y="297.0"/>
      <point x="581.0" y="378.0" type="curve"/>
      <point x="526.0" y="401.0" type="line"/>
      <point x="510.0" y="350.0"/>
      <point x="469.0" y="322.0"/>
      <point x="433.0" y="322.0" type="curve" smooth="yes"/>
      <point x="369.0" y="322.0"/>
      <point x="337.0" y="405.0"/>
      <point x="249.0" y="405.0" type="curve" smooth="yes"/>
      <point x="176.0" y="405.0"/>
      <point x="114.0" y="352.0"/>
      <point x="93.0" y="275.0" type="curve"/>
    </contour>
  </outline>
</glyph>
<glyph name="sterling" format="2">
  <advance width="637.0"/>
  <unicode hex="00A3"/>
  <outline>
    <contour>
      <point x="81.0" y="0.0" type="line"/>
      <point x="563.0" y="0.0" type="line"/>
      <point x="563.0" y="72.0" type="line"/>
      <point x="176.0" y="72.0" type="line"/>
      <point x="220.0" y="90.0"/>
      <point x="236.0" y="145.0"/>
      <point x="236.0" y="208.0" type="curve" smooth="yes"/>
      <point x="236.0" y="491.0" type="line" smooth="yes"/>
      <point x="236.0" y="577.0"/>
      <point x="287.0" y="631.0"/>
      <point x="395.0" y="631.0" type="curve" smooth="yes"/>
      <point x="433.0" y="631.0"/>
      <point x="471.0" y="624.0"/>
      <point x="512.0" y="612.0" type="curve"/>
      <point x="536.0" y="681.0" type="line"/>
      <point x="494.0" y="697.0"/>
      <point x="454.0" y="704.0"/>
      <point x="407.0" y="704.0" type="curve" smooth="yes"/>
      <point x="239.0" y="704.0"/>
      <point x="159.0" y="615.0"/>
      <point x="159.0" y="481.0" type="curve" smooth="yes"/>
      <point x="159.0" y="198.0" type="line" smooth="yes"/>
      <point x="159.0" y="141.0"/>
      <point x="134.0" y="90.0"/>
      <point x="81.0" y="72.0" type="curve"/>
    </contour>
    <contour>
      <point x="89.0" y="318.0" type="line"/>
      <point x="454.0" y="318.0" type="line"/>
      <point x="454.0" y="378.0" type="line"/>
      <point x="89.0" y="378.0" type="line"/>
    </contour>
  </outline>
</glyph>
<glyph name="currency" format="2">
  <advance width="662.0"/>
  <unicode hex="00A4"/>
  <outline>
    <contour>
      <point x="326.0" y="131.0" type="curve" smooth="yes"/>
      <point x="450.0" y="131.0"/>
      <point x="532.0" y="215.0"/>
      <point x="532.0" y="342.0" type="curve" smooth="yes"/>
      <point x="532.0" y="461.0"/>
      <point x="454.0" y="540.0"/>
      <point x="336.0" y="540.0" type="curve" smooth="yes"/>
      <point x="212.0" y="540.0"/>
      <point x="130.0" y="456.0"/>
      <point x="130.0" y="331.0" type="curve" smooth="yes"/>
      <point x="130.0" y="211.0"/>
      <point x="208.0" y="131.0"/>
    </contour>
    <contour>
      <point x="135.0" y="90.0" type="line"/>
      <point x="227.0" y="181.0" type="line"/>
      <point x="186.0" y="222.0" type="line"/>
      <point x="94.0" y="131.0" type="line"/>
    </contour>
    <contour>
      <point x="527.0" y="90.0" type="line"/>
      <point x="567.0" y="131.0" type="line"/>
      <point x="475.0" y="221.0" type="line"/>
      <point x="435.0" y="181.0" type="line"/>
    </contour>
    <contour>
      <point x="336.0" y="204.0" type="curve" smooth="yes"/>
      <point x="260.0" y="204.0"/>
      <point x="210.0" y="259.0"/>
      <point x="210.0" y="341.0" type="curve" smooth="yes"/>
      <point x="210.0" y="417.0"/>
      <point x="256.0" y="467.0"/>
      <point x="326.0" y="467.0" type="curve" smooth="yes"/>
      <point x="402.0" y="467.0"/>
      <point x="452.0" y="413.0"/>
      <point x="452.0" y="332.0" type="curve" smooth="yes"/>
      <point x="452.0" y="255.0"/>
      <point x="406.0" y="204.0"/>
    </contour>
    <contour>
      <point x="185.0" y="448.0" type="line"/>
      <point x="227.0" y="488.0" type="line"/>
      <point x="135.0" y="580.0" type="line"/>
      <point x="94.0" y="539.0" type="line"/>
    </contour>
    <contour>
      <point x="475.0" y="448.0" type="line"/>
      <point x="567.0" y="539.0" type="line"/>
      <point x="526.0" y="580.0" type="line"/>
      <point x="434.0" y="488.0" type="line"/>
    </contour>
  </outline>
</glyph>
<glyph name="yen" format="2">
  <advance width="711.0"/>
  <unicode hex="00A5"/>
  <outline>
    <contour>
      <point x="121.0" y="128.0" type="line"/>
      <point x="594.0" y="128.0" type="line"/>
      <point x="594.0" y="188.0" type="line"/>
      <point x="121.0" y="188.0" type="line"/>
    </contour>
    <contour>
      <point x="121.0" y="298.0" type="line"/>
      <point x="594.0" y="298.0" type="line"/>
      <point x="594.0" y="358.0" type="line"/>
      <point x="121.0" y="358.0" type="line"/>
    </contour>
    <contour>
      <point x="316.0" y="0.0" type="line"/>
      <point x="399.0" y="0.0" type="line"/>
      <point x="399.0" y="309.0" type="line"/>
      <point x="639.0" y="694.0" type="line"/>
      <point x="548.0" y="694.0" type="line"/>
      <point x="355.0" y="372.0" type="line"/>
      <point x="366.0" y="372.0" type="line"/>
      <point x="168.0" y="694.0" type="line"/>
      <point x="71.0" y="694.0" type="line"/>
      <point x="316.0" y="309.0" type="line"/>
    </contour>
  </outline>
</glyph>
<glyph name="brokenbar" format="2">
  <advance width="329.0"/>
  <unicode hex="00A6"/>
  <outline>
    <contour>
      <point x="125.0" y="-159.0" type="line"/>
      <point x="204.0" y="-159.0" type="line"/>
      <point x="204.0" y="181.0" type="line"/>
      <point x="125.0" y="181.0" type="line"/>
    </contour>
    <contour>
      <point x="125.0" y="412.0" type="line"/>
      <point x="204.0" y="412.0" type="line"/>
      <point x="204.0" y="741.0" type="line"/>
      <point x="125.0" y="741.0" type="line"/>
    </contour>
  </outline>
</glyph>
<glyph name="section" format="2">
  <advance width="554.0"/>
  <unicode hex="00A7"/>
  <outline>
    <contour>
      <point x="265.0" y="-60.0" type="curve" smooth="yes"/>
      <point x="387.0" y="-60.0"/>
      <point x="465.0" y="0.0"/>
      <point x="465.0" y="95.0" type="curve" smooth="yes"/>
      <point x="465.0" y="282.0"/>
      <point x="177.0" y="219.0"/>
      <point x="177.0" y="331.0" type="curve" smooth="yes"/>
      <point x="177.0" y="376.0"/>
      <point x="225.0" y="413.0"/>
      <point x="282.0" y="413.0" type="curve"/>
      <point x="296.0" y="454.0" type="line"/>
      <point x="177.0" y="454.0"/>
      <point x="97.0" y="401.0"/>
      <point x="97.0" y="317.0" type="curve" smooth="yes"/>
      <point x="97.0" y="151.0"/>
      <point x="385.0" y="214.0"/>
      <point x="385.0" y="86.0" type="curve" smooth="yes"/>
      <point x="385.0" y="38.0"/>
      <point x="344.0" y="10.0"/>
      <point x="274.0" y="10.0" type="curve" smooth="yes"/>
      <point x="219.0" y="10.0"/>
      <point x="153.0" y="26.0"/>
      <point x="108.0" y="48.0" type="curve"/>
      <point x="89.0" y="-19.0" type="line"/>
      <point x="143.0" y="-44.0"/>
      <point x="206.0" y="-60.0"/>
    </contour>
    <contour>
      <point x="264.0" y="191.0" type="line"/>
      <point x="385.0" y="191.0"/>
      <point x="465.0" y="250.0"/>
      <point x="465.0" y="338.0" type="curve" smooth="yes"/>
      <point x="465.0" y="505.0"/>
      <point x="177.0" y="445.0"/>
      <point x="177.0" y="562.0" type="curve" smooth="yes"/>
      <point x="177.0" y="606.0"/>
      <point x="218.0" y="634.0"/>
      <point x="282.0" y="634.0" type="curve" smooth="yes"/>
      <point x="324.0" y="634.0"/>
      <point x="379.0" y="623.0"/>
      <point x="420.0" y="607.0" type="curve"/>
      <point x="439.0" y="672.0" type="line"/>
      <point x="396.0" y="693.0"/>
      <point x="346.0" y="704.0"/>
      <point x="295.0" y="704.0" type="curve" smooth="yes"/>
      <point x="175.0" y="704.0"/>
      <point x="97.0" y="644.0"/>
      <point x="97.0" y="553.0" type="curve" smooth="yes"/>
      <point x="97.0" y="376.0"/>
      <point x="385.0" y="441.0"/>
      <point x="385.0" y="316.0" type="curve" smooth="yes"/>
      <point x="385.0" y="269.0"/>
      <point x="346.0" y="241.0"/>
      <point x="278.0" y="241.0" type="curve"/>
    </contour>
  </outline>
</glyph>
<glyph name="copyright" format="2">
  <advance width="885.0"/>
  <unicode hex="00A9"/>
  <outline>
    <contour>
      <point x="438.0" y="-3.0" type="curve" smooth="yes"/>
      <point x="656.0" y="-3.0"/>
      <point x="802.0" y="140.0"/>
      <point x="802.0" y="354.0" type="curve" smooth="yes"/>
      <point x="802.0" y="564.0"/>
      <point x="660.0" y="704.0"/>
      <point x="446.0" y="704.0" type="curve" smooth="yes"/>
      <point x="228.0" y="704.0"/>
      <point x="83.0" y="560.0"/>
      <point x="83.0" y="344.0" type="curve" smooth="yes"/>
      <point x="83.0" y="136.0"/>
      <point x="225.0" y="-3.0"/>
    </contour>
    <contour>
      <point x="448.0" y="59.0" type="curve" smooth="yes"/>
      <point x="266.0" y="59.0"/>
      <point x="145.0" y="177.0"/>
      <point x="145.0" y="354.0" type="curve" smooth="yes"/>
      <point x="145.0" y="527.0"/>
      <point x="262.0" y="642.0"/>
      <point x="438.0" y="642.0" type="curve" smooth="yes"/>
      <point x="619.0" y="642.0"/>
      <point x="740.0" y="523.0"/>
      <point x="740.0" y="344.0" type="curve" smooth="yes"/>
      <point x="740.0" y="173.0"/>
      <point x="623.0" y="59.0"/>
    </contour>
    <contour>
      <point x="453.0" y="134.0" type="curve" smooth="yes"/>
      <point x="496.0" y="134.0"/>
      <point x="543.0" y="143.0"/>
      <point x="580.0" y="160.0" type="curve"/>
      <point x="562.0" y="219.0" type="line"/>
      <point x="534.0" y="209.0"/>
      <point x="500.0" y="202.0"/>
      <point x="471.0" y="202.0" type="curve" smooth="yes"/>
      <point x="381.0" y="202.0"/>
      <point x="323.0" y="262.0"/>
      <point x="323.0" y="355.0" type="curve" smooth="yes"/>
      <point x="323.0" y="442.0"/>
      <point x="374.0" y="494.0"/>
      <point x="462.0" y="494.0" type="curve" smooth="yes"/>
      <point x="494.0" y="494.0"/>
      <point x="531.0" y="487.0"/>
      <point x="562.0" y="475.0" type="curve"/>
      <point x="583.0" y="538.0" type="line"/>
      <point x="548.0" y="554.0"/>
      <point x="508.0" y="562.0"/>
      <point x="466.0" y="562.0" type="curve" smooth="yes"/>
      <point x="331.0" y="562.0"/>
      <point x="241.0" y="475.0"/>
      <point x="241.0" y="343.0" type="curve" smooth="yes"/>
      <point x="241.0" y="217.0"/>
      <point x="325.0" y="134.0"/>
    </contour>
  </outline>
</glyph>
<glyph name="ordfeminine" format="2">
  <advance width="429.0"/>
  <unicode hex="00AA"/>
  <outline>
    <contour>
      <point x="303.0" y="380.0" type="line"/>
      <point x="354.0" y="380.0" type="line"/>
      <point x="354.0" y="608.0" type="line" smooth="yes"/>
      <point x="354.0" y="699.0"/>
      <point x="301.0" y="750.0"/>
      <point x="204.0" y="750.0" type="curve" smooth="yes"/>
      <point x="157.0" y="750.0"/>
      <point x="103.0" y="737.0"/>
      <point x="62.0" y="716.0" type="curve"/>
      <point x="79.0" y="666.0" type="line"/>
      <point x="116.0" y="682.0"/>
      <point x="157.0" y="690.0"/>
      <point x="189.0" y="690.0" type="curve" smooth="yes"/>
      <point x="251.0" y="690.0"/>
      <point x="284.0" y="663.0"/>
      <point x="284.0" y="612.0" type="curve" smooth="yes"/>
      <point x="284.0" y="441.0" type="line"/>
    </contour>
    <contour>
      <point x="175.0" y="373.0" type="curve" smooth="yes"/>
      <point x="249.0" y="373.0"/>
      <point x="306.0" y="413.0"/>
      <point x="327.0" y="485.0" type="curve"/>
      <point x="305.0" y="498.0" type="line"/>
      <point x="286.0" y="455.0"/>
      <point x="245.0" y="429.0"/>
      <point x="198.0" y="429.0" type="curve" smooth="yes"/>
      <point x="155.0" y="429.0"/>
      <point x="124.0" y="452.0"/>
      <point x="124.0" y="487.0" type="curve" smooth="yes"/>
      <point x="124.0" y="531.0"/>
      <point x="174.0" y="549.0"/>
      <point x="297.0" y="549.0" type="curve"/>
      <point x="297.0" y="591.0" type="line"/>
      <point x="128.0" y="591.0"/>
      <point x="53.0" y="556.0"/>
      <point x="53.0" y="477.0" type="curve" smooth="yes"/>
      <point x="53.0" y="414.0"/>
      <point x="101.0" y="373.0"/>
    </contour>
  </outline>
</glyph>
<glyph name="guillemetleft" format="2">
  <advance width="538"/>
  <unicode hex="00AB"/>
  <outline>
    <contour>
      <point x="193" y="30" type="line"/>
      <point x="283" y="30" type="line"/>
      <point x="118" y="268" type="line"/>
      <point x="118" y="221" type="line"/>
      <point x="278" y="452" type="line"/>
      <point x="197" y="452" type="line"/>
      <point x="44" y="242" type="line"/>
    </contour>
    <contour>
      <point x="406" y="30" type="line"/>
      <point x="496" y="30" type="line"/>
      <point x="330" y="268" type="line"/>
      <point x="330" y="221" type="line"/>
      <point x="491" y="452" type="line"/>
      <point x="410" y="452" type="line"/>
      <point x="257" y="242" type="line"/>
    </contour>
  </outline>
</glyph>
<glyph name="logicalnot" format="2">
  <advance width="681.0"/>
  <unicode hex="00AC"/>
  <outline>
    <contour>
      <point x="80.0" y="328.0" type="line"/>
      <point x="556.0" y="328.0" type="line"/>
      <point x="556.0" y="395.0" type="line"/>
      <point x="80.0" y="395.0" type="line"/>
    </contour>
    <contour>
      <point x="476.0" y="152.0" type="line"/>
      <point x="556.0" y="152.0" type="line"/>
      <point x="556.0" y="353.0" type="line"/>
      <point x="476.0" y="353.0" type="line"/>
    </contour>
  </outline>
</glyph>
<glyph name="registered" format="2">
  <advance width="659.0"/>
  <unicode hex="00AE"/>
  <outline>
    <contour>
      <point x="327.0" y="279.0" type="curve" smooth="yes"/>
      <point x="469.0" y="279.0"/>
      <point x="570.0" y="377.0"/>
      <point x="570.0" y="515.0" type="curve" smooth="yes"/>
      <point x="570.0" y="652.0"/>
      <point x="471.0" y="749.0"/>
      <point x="332.0" y="749.0" type="curve" smooth="yes"/>
      <point x="190.0" y="749.0"/>
      <point x="89.0" y="649.0"/>
      <point x="89.0" y="510.0" type="curve" smooth="yes"/>
      <point x="89.0" y="374.0"/>
      <point x="187.0" y="279.0"/>
    </contour>
    <contour>
      <point x="333.0" y="325.0" type="curve" smooth="yes"/>
      <point x="218.0" y="325.0"/>
      <point x="136.0" y="405.0"/>
      <point x="136.0" y="516.0" type="curve" smooth="yes"/>
      <point x="136.0" y="625.0"/>
      <point x="215.0" y="703.0"/>
      <point x="327.0" y="703.0" type="curve" smooth="yes"/>
      <point x="441.0" y="703.0"/>
      <point x="523.0" y="622.0"/>
      <point x="523.0" y="510.0" type="curve" smooth="yes"/>
      <point x="523.0" y="401.0"/>
      <point x="445.0" y="325.0"/>
    </contour>
    <contour>
      <point x="237.0" y="380.0" type="line"/>
      <point x="298.0" y="380.0" type="line"/>
      <point x="298.0" y="658.0" type="line"/>
      <point x="237.0" y="658.0" type="line"/>
    </contour>
    <contour>
      <point x="280.0" y="476.0" type="line"/>
      <point x="328.0" y="476.0" type="line" smooth="yes"/>
      <point x="395.0" y="476.0"/>
      <point x="440.0" y="513.0"/>
      <point x="440.0" y="569.0" type="curve" smooth="yes"/>
      <point x="440.0" y="622.0"/>
      <point x="396.0" y="658.0"/>
      <point x="331.0" y="658.0" type="curve" smooth="yes"/>
      <point x="280.0" y="658.0" type="line"/>
      <point x="280.0" y="605.0" type="line"/>
      <point x="328.0" y="605.0" type="line" smooth="yes"/>
      <point x="357.0" y="605.0"/>
      <point x="376.0" y="589.0"/>
      <point x="376.0" y="566.0" type="curve" smooth="yes"/>
      <point x="376.0" y="542.0"/>
      <point x="362.0" y="528.0"/>
      <point x="331.0" y="528.0" type="curve" smooth="yes"/>
      <point x="280.0" y="528.0" type="line"/>
    </contour>
    <contour>
      <point x="395.0" y="380.0" type="line"/>
      <point x="460.0" y="380.0" type="line"/>
      <point x="399.0" y="501.0" type="line"/>
      <point x="340.0" y="501.0" type="line"/>
    </contour>
  </outline>
</glyph>
<glyph name="degree" format="2">
  <advance width="486.0"/>
  <unicode hex="00B0"/>
  <outline>
    <contour>
      <point x="241.0" y="417.0" type="curve" smooth="yes"/>
      <point x="327.0" y="417.0"/>
      <point x="385.0" y="475.0"/>
      <point x="385.0" y="562.0" type="curve" smooth="yes"/>
      <point x="385.0" y="647.0"/>
      <point x="329.0" y="704.0"/>
      <point x="244.0" y="704.0" type="curve" smooth="yes"/>
      <point x="158.0" y="704.0"/>
      <point x="100.0" y="646.0"/>
      <point x="100.0" y="559.0" type="curve" smooth="yes"/>
      <point x="100.0" y="474.0"/>
      <point x="156.0" y="417.0"/>
    </contour>
    <contour>
      <point x="244.0" y="484.0" type="curve" smooth="yes"/>
      <point x="197.0" y="484.0"/>
      <point x="165.0" y="515.0"/>
      <point x="165.0" y="562.0" type="curve" smooth="yes"/>
      <point x="165.0" y="608.0"/>
      <point x="195.0" y="639.0"/>
      <point x="241.0" y="639.0" type="curve" smooth="yes"/>
      <point x="288.0" y="639.0"/>
      <point x="320.0" y="607.0"/>
      <point x="320.0" y="559.0" type="curve" smooth="yes"/>
      <point x="320.0" y="514.0"/>
      <point x="290.0" y="484.0"/>
    </contour>
  </outline>
</glyph>
<glyph name="plusminus" format="2">
	<unicode hex="00B1"/>
	<advance width="631"/>
	<outline>
		<contour>
			<point x="280" y="147" type="line"/>
			<point x="350" y="147" type="line"/>
			<point x="350" y="623" type="line"/>
			<point x="280" y="623" type="line"/>
		</contour>
		<contour>
			<point x="81" y="39" type="line"/>
			<point x="550" y="39" type="line"/>
			<point x="550" y="104" type="line"/>
			<point x="81" y="104" type="line"/>
		</contour>
		<contour>
			<point x="81" y="355" type="line"/>
			<point x="550" y="355" type="line"/>
			<point x="550" y="424" type="line"/>
			<point x="81" y="424" type="line"/>
		</contour>
	</outline>
</glyph>
<glyph name="micro" format="2">
  <advance width="639.0"/>
  <unicode hex="00B5"/>
  <outline>
    <contour>
      <point x="323.0" y="-10.0" type="curve" smooth="yes"/>
      <point x="380.0" y="-10.0"/>
      <point x="428.0" y="14.0"/>
      <point x="484.0" y="73.0" type="curve"/>
      <point x="465.0" y="134.0" type="line"/>
      <point x="425.0" y="82.0"/>
      <point x="384.0" y="60.0"/>
      <point x="332.0" y="60.0" type="curve" smooth="yes"/>
      <point x="255.0" y="60.0"/>
      <point x="200.0" y="108.0"/>
      <point x="200.0" y="182.0" type="curve"/>
      <point x="160.0" y="166.0" type="line"/>
      <point x="160.0" y="60.0"/>
      <point x="225.0" y="-10.0"/>
    </contour>
    <contour>
      <point x="125.0" y="-217.0" type="line"/>
      <point x="200.0" y="-217.0" type="line"/>
      <point x="200.0" y="482.0" type="line"/>
      <point x="125.0" y="482.0" type="line"/>
    </contour>
    <contour>
      <point x="478.0" y="0.0" type="line"/>
      <point x="534.0" y="0.0" type="line"/>
      <point x="534.0" y="482.0" type="line"/>
      <point x="454.0" y="482.0" type="line"/>
      <point x="454.0" y="56.0" type="line"/>
    </contour>
  </outline>
</glyph>
<glyph name="paragraph" format="2">
  <advance width="725.0"/>
  <unicode hex="00B6"/>
  <outline>
    <contour>
      <point x="287.0" y="-170.0" type="line"/>
      <point x="365.0" y="-170.0" type="line"/>
      <point x="365.0" y="625.0" type="line"/>
      <point x="522.0" y="625.0" type="line"/>
      <point x="522.0" y="-170.0" type="line"/>
      <point x="600.0" y="-170.0" type="line"/>
      <point x="600.0" y="694.0" type="line"/>
      <point x="307.0" y="694.0" type="line" smooth="yes"/>
      <point x="165.0" y="694.0"/>
      <point x="70.0" y="610.0"/>
      <point x="70.0" y="484.0" type="curve" smooth="yes"/>
      <point x="70.0" y="349.0"/>
      <point x="157.0" y="259.0"/>
      <point x="287.0" y="259.0" type="curve"/>
    </contour>
  </outline>
</glyph>
<glyph name="ordmasculine" format="2">
  <advance width="461.0"/>
  <unicode hex="00BA"/>
  <outline>
    <contour>
      <point x="227.0" y="373.0" type="curve" smooth="yes"/>
      <point x="334.0" y="373.0"/>
      <point x="407.0" y="450.0"/>
      <point x="407.0" y="565.0" type="curve" smooth="yes"/>
      <point x="407.0" y="677.0"/>
      <point x="339.0" y="749.0"/>
      <point x="235.0" y="749.0" type="curve" smooth="yes"/>
      <point x="126.0" y="749.0"/>
      <point x="54.0" y="672.0"/>
      <point x="54.0" y="557.0" type="curve" smooth="yes"/>
      <point x="54.0" y="446.0"/>
      <point x="122.0" y="373.0"/>
    </contour>
    <contour>
      <point x="233.0" y="430.0" type="curve" smooth="yes"/>
      <point x="166.0" y="430.0"/>
      <point x="123.0" y="483.0"/>
      <point x="123.0" y="563.0" type="curve" smooth="yes"/>
      <point x="123.0" y="640.0"/>
      <point x="163.0" y="692.0"/>
      <point x="228.0" y="692.0" type="curve" smooth="yes"/>
      <point x="295.0" y="692.0"/>
      <point x="339.0" y="638.0"/>
      <point x="339.0" y="558.0" type="curve" smooth="yes"/>
      <point x="339.0" y="480.0"/>
      <point x="297.0" y="430.0"/>
    </contour>
  </outline>
</glyph>
<glyph name="guillemetright" format="2">
  <advance width="538"/>
  <unicode hex="00BB"/>
  <outline>
    <contour>
      <point x="262" y="30" type="line"/>
      <point x="343" y="30" type="line"/>
      <point x="494" y="241" type="line"/>
      <point x="342" y="452" type="line"/>
      <point x="254" y="452" type="line"/>
      <point x="422" y="215" type="line"/>
      <point x="422" y="262" type="line"/>
    </contour>
    <contour>
      <point x="50" y="30" type="line"/>
      <point x="131" y="30" type="line"/>
      <point x="282" y="241" type="line"/>
      <point x="130" y="452" type="line"/>
      <point x="42" y="452" type="line"/>
      <point x="210" y="215" type="line"/>
      <point x="210" y="262" type="line"/>
    </contour>
  </outline>
</glyph>
<glyph name="AE" format="2">
  <advance width="969"/>
  <unicode hex="00C6"/>
  <anchor x="530" y="0" name="bottom"/>
  <anchor x="530" y="694" name="top"/>
  <outline>
    <contour>
      <point x="34" y="0" type="line"/>
      <point x="126" y="0" type="line"/>
      <point x="540" y="694" type="line"/>
      <point x="457" y="694" type="line"/>
    </contour>
    <contour>
      <point x="254" y="202" type="line"/>
      <point x="530" y="202" type="line"/>
      <point x="530" y="282" type="line"/>
      <point x="254" y="282" type="line"/>
    </contour>
    <contour>
      <point x="481" y="0" type="line"/>
      <point x="564" y="0" type="line"/>
      <point x="564" y="694" type="line"/>
      <point x="481" y="694" type="line"/>
    </contour>
    <contour>
      <point x="521" y="0" type="line"/>
      <point x="917" y="0" type="line"/>
      <point x="917" y="72" type="line"/>
      <point x="521" y="72" type="line"/>
    </contour>
    <contour>
      <point x="521" y="323" type="line"/>
      <point x="890" y="323" type="line"/>
      <point x="890" y="395" type="line"/>
      <point x="521" y="395" type="line"/>
    </contour>
    <contour>
      <point x="521" y="622" type="line"/>
      <point x="917" y="622" type="line"/>
      <point x="917" y="694" type="line"/>
      <point x="521" y="694" type="line"/>
    </contour>
  </outline>
</glyph>
<glyph name="multiply" format="2">
  <advance width="578.0"/>
  <unicode hex="00D7"/>
  <outline>
    <contour>
      <point x="455.0" y="90.0" type="line"/>
      <point x="505.0" y="140.0" type="line"/>
      <point x="130.0" y="537.0" type="line"/>
      <point x="80.0" y="487.0" type="line"/>
    </contour>
    <contour>
      <point x="122.0" y="96.0" type="line"/>
      <point x="501.0" y="483.0" type="line"/>
      <point x="451.0" y="533.0" type="line"/>
      <point x="72.0" y="146.0" type="line"/>
    </contour>
  </outline>
</glyph>
<glyph name="Thorn" format="2">
  <advance width="602"/>
  <unicode hex="00DE"/>
  <outline>
    <contour>
      <point x="96" y="0" type="line"/>
      <point x="179" y="0" type="line"/>
      <point x="179" y="694" type="line"/>
      <point x="96" y="694" type="line"/>
    </contour>
    <contour>
      <point x="149" y="139" type="line"/>
      <point x="302" y="139" type="line" smooth="yes"/>
      <point x="455" y="139"/>
      <point x="556" y="229"/>
      <point x="556" y="365" type="curve" smooth="yes"/>
      <point x="556" y="499"/>
      <point x="457" y="591"/>
      <point x="312" y="591" type="curve" smooth="yes"/>
      <point x="149" y="591" type="line"/>
      <point x="149" y="519" type="line"/>
      <point x="302" y="519" type="line" smooth="yes"/>
      <point x="406" y="519"/>
      <point x="471" y="456"/>
      <point x="471" y="355" type="curve" smooth="yes"/>
      <point x="471" y="261"/>
      <point x="415" y="211"/>
      <point x="312" y="211" type="curve" smooth="yes"/>
      <point x="149" y="211" type="line"/>
    </contour>
  </outline>
</glyph>
<glyph name="germandbls" format="2">
  <advance width="595.0"/>
  <unicode hex="00DF"/>
  <outline>
    <contour>
      <point x="366.0" y="-10.0" type="curve" smooth="yes"/>
      <point x="478.0" y="-10.0"/>
      <point x="558.0" y="58.0"/>
      <point x="558.0" y="154.0" type="curve" smooth="yes"/>
      <point x="558.0" y="302.0"/>
      <point x="369.0" y="304.0"/>
      <point x="369.0" y="387.0" type="curve" smooth="yes"/>
      <point x="369.0" y="451.0"/>
      <point x="482.0" y="469.0"/>
      <point x="482.0" y="582.0" type="curve" smooth="yes"/>
      <point x="482.0" y="679.0"/>
      <point x="399.0" y="749.0"/>
      <point x="285.0" y="749.0" type="curve" smooth="yes"/>
      <point x="162.0" y="749.0"/>
      <point x="83.0" y="666.0"/>
      <point x="83.0" y="539.0" type="curve" smooth="yes"/>
      <point x="83.0" y="0.0" type="line"/>
      <point x="163.0" y="0.0" type="line"/>
      <point x="163.0" y="548.0" type="line" smooth="yes"/>
      <point x="163.0" y="633.0"/>
      <point x="203.0" y="679.0"/>
      <point x="275.0" y="679.0" type="curve" smooth="yes"/>
      <point x="348.0" y="679.0"/>
      <point x="402.0" y="633.0"/>
      <point x="402.0" y="572.0" type="curve" smooth="yes"/>
      <point x="402.0" y="483.0"/>
      <point x="289.0" y="468.0"/>
      <point x="289.0" y="374.0" type="curve" smooth="yes"/>
      <point x="289.0" y="253.0"/>
      <point x="478.0" y="250.0"/>
      <point x="478.0" y="141.0" type="curve" smooth="yes"/>
      <point x="478.0" y="94.0"/>
      <point x="434.0" y="60.0"/>
      <point x="372.0" y="60.0" type="curve" smooth="yes"/>
      <point x="336.0" y="60.0"/>
      <point x="290.0" y="71.0"/>
      <point x="246.0" y="92.0" type="curve"/>
      <point x="227.0" y="27.0" type="line"/>
      <point x="268.0" y="4.0"/>
      <point x="318.0" y="-10.0"/>
    </contour>
  </outline>
</glyph>
<glyph name="ae" format="2">
  <advance width="834.0"/>
  <unicode hex="00E6"/>
  <anchor x="418.0" y="0.0" name="bottom"/>
  <anchor x="418.0" y="482.0" name="top"/>
  <outline>
    <contour>
      <point x="362.0" y="224.0" type="line"/>
      <point x="424.0" y="224.0" type="line"/>
      <point x="424.0" y="326.0" type="line" smooth="yes"/>
      <point x="424.0" y="434.0"/>
      <point x="362.0" y="492.0"/>
      <point x="247.0" y="492.0" type="curve" smooth="yes"/>
      <point x="183.0" y="492.0"/>
      <point x="123.0" y="474.0"/>
      <point x="59.0" y="436.0" type="curve"/>
      <point x="77.0" y="378.0" type="line"/>
      <point x="134.0" y="407.0"/>
      <point x="180.0" y="420.0"/>
      <point x="230.0" y="420.0" type="curve" smooth="yes"/>
      <point x="314.0" y="420.0"/>
      <point x="362.0" y="384.0"/>
      <point x="362.0" y="313.0" type="curve" smooth="yes"/>
    </contour>
    <contour>
      <point x="208.0" y="-10.0" type="curve" smooth="yes"/>
      <point x="322.0" y="-10.0"/>
      <point x="410.0" y="62.0"/>
      <point x="426.0" y="169.0" type="curve"/>
      <point x="397.0" y="183.0" type="line"/>
      <point x="381.0" y="108.0"/>
      <point x="316.0" y="60.0"/>
      <point x="232.0" y="60.0" type="curve" smooth="yes"/>
      <point x="168.0" y="60.0"/>
      <point x="127.0" y="89.0"/>
      <point x="127.0" y="134.0" type="curve" smooth="yes"/>
      <point x="127.0" y="196.0"/>
      <point x="201.0" y="219.0"/>
      <point x="369.0" y="219.0" type="curve"/>
      <point x="369.0" y="279.0" type="line"/>
      <point x="162.0" y="279.0"/>
      <point x="47.0" y="225.0"/>
      <point x="47.0" y="120.0" type="curve" smooth="yes"/>
      <point x="47.0" y="42.0"/>
      <point x="111.0" y="-10.0"/>
    </contour>
    <contour>
      <point x="607.0" y="-10.0" type="curve" smooth="yes"/>
      <point x="661.0" y="-10.0"/>
      <point x="709.0" y="1.0"/>
      <point x="765.0" y="26.0" type="curve"/>
      <point x="747.0" y="84.0" type="line"/>
      <point x="701.0" y="65.0"/>
      <point x="660.0" y="55.0"/>
      <point x="619.0" y="55.0" type="curve" smooth="yes"/>
      <point x="508.0" y="55.0"/>
      <point x="432.0" y="130.0"/>
      <point x="432.0" y="255.0" type="curve" smooth="yes"/>
      <point x="432.0" y="364.0"/>
      <point x="489.0" y="424.0"/>
      <point x="577.0" y="424.0" type="curve" smooth="yes"/>
      <point x="659.0" y="424.0"/>
      <point x="707.0" y="371.0"/>
      <point x="707.0" y="279.0" type="curve"/>
      <point x="426.0" y="279.0" type="line"/>
      <point x="426.0" y="219.0" type="line"/>
      <point x="778.0" y="219.0" type="line"/>
      <point x="780.0" y="234.0"/>
      <point x="782.0" y="269.0"/>
      <point x="782.0" y="288.0" type="curve" smooth="yes"/>
      <point x="782.0" y="409.0"/>
      <point x="702.0" y="492.0"/>
      <point x="583.0" y="492.0" type="curve" smooth="yes"/>
      <point x="449.0" y="492.0"/>
      <point x="358.0" y="388.0"/>
      <point x="358.0" y="236.0" type="curve" smooth="yes"/>
      <point x="358.0" y="82.0"/>
      <point x="451.0" y="-10.0"/>
    </contour>
  </outline>
</glyph>
<glyph name="eth" format="2">
  <advance width="553.0"/>
  <unicode hex="00F0"/>
  <outline>
    <contour>
      <point x="265.0" y="-9.0" type="curve" smooth="yes"/>
      <point x="410.0" y="-9.0"/>
      <point x="493.0" y="94.0"/>
      <point x="493.0" y="273.0" type="curve" smooth="yes"/>
      <point x="493.0" y="499.0"/>
      <point x="375.0" y="662.0"/>
      <point x="149.0" y="748.0" type="curve"/>
      <point x="129.0" y="688.0" type="line"/>
      <point x="313.0" y="609.0"/>
      <point x="421.0" y="467.0"/>
      <point x="421.0" y="305.0" type="curve"/>
      <point x="443.0" y="327.0" type="line"/>
      <point x="411.0" y="404.0"/>
      <point x="344.0" y="449.0"/>
      <point x="259.0" y="449.0" type="curve" smooth="yes"/>
      <point x="132.0" y="449.0"/>
      <point x="48.0" y="355.0"/>
      <point x="48.0" y="215.0" type="curve" smooth="yes"/>
      <point x="48.0" y="81.0"/>
      <point x="135.0" y="-9.0"/>
    </contour>
    <contour>
      <point x="273.0" y="61.0" type="curve" smooth="yes"/>
      <point x="184.0" y="61.0"/>
      <point x="128.0" y="126.0"/>
      <point x="128.0" y="230.0" type="curve" smooth="yes"/>
      <point x="128.0" y="325.0"/>
      <point x="175.0" y="379.0"/>
      <point x="258.0" y="379.0" type="curve" smooth="yes"/>
      <point x="352.0" y="379.0"/>
      <point x="415.0" y="313.0"/>
      <point x="415.0" y="213.0" type="curve" smooth="yes"/>
      <point x="415.0" y="121.0"/>
      <point x="358.0" y="61.0"/>
    </contour>
    <contour>
      <point x="159.0" y="547.0" type="line"/>
      <point x="419.0" y="683.0" type="line"/>
      <point x="394.0" y="729.0" type="line"/>
      <point x="134.0" y="593.0" type="line"/>
    </contour>
  </outline>
</glyph>
<glyph name="divide" format="2">
  <advance width="637"/>
  <unicode hex="00F7"/>
  <outline>
    <contour>
      <point x="70" y="306" type="line"/>
      <point x="562" y="306" type="line"/>
      <point x="562" y="375" type="line"/>
      <point x="70" y="375" type="line"/>
    </contour>
    <contour>
      <point x="316" y="485" type="curve" smooth="yes"/>
      <point x="352" y="485"/>
      <point x="373" y="506"/>
      <point x="373" y="542" type="curve" smooth="yes"/>
      <point x="373" y="578"/>
      <point x="352" y="599"/>
      <point x="316" y="599" type="curve" smooth="yes"/>
      <point x="280" y="599"/>
      <point x="259" y="578"/>
      <point x="259" y="542" type="curve" smooth="yes"/>
      <point x="259" y="506"/>
      <point x="280" y="485"/>
    </contour>
    <contour>
      <point x="316" y="82" type="curve" smooth="yes"/>
      <point x="352" y="82"/>
      <point x="373" y="103"/>
      <point x="373" y="139" type="curve" smooth="yes"/>
      <point x="373" y="175"/>
      <point x="352" y="196"/>
      <point x="316" y="196" type="curve" smooth="yes"/>
      <point x="280" y="196"/>
      <point x="259" y="175"/>
      <point x="259" y="139" type="curve" smooth="yes"/>
      <point x="259" y="103"/>
      <point x="280" y="82"/>
    </contour>
  </outline>
</glyph>
<glyph name="oslash" format="2">
  <advance width="570.0"/>
  <unicode hex="00F8"/>
  <anchor x="286.0" y="482.0" name="top"/>
  <outline>
    <contour>
      <point x="279.0" y="-10.0" type="curve" smooth="yes"/>
      <point x="421.0" y="-10.0"/>
      <point x="517.0" y="93.0"/>
      <point x="517.0" y="247.0" type="curve" smooth="yes"/>
      <point x="517.0" y="396.0"/>
      <point x="428.0" y="492.0"/>
      <point x="291.0" y="492.0" type="curve" smooth="yes"/>
      <point x="149.0" y="492.0"/>
      <point x="54.0" y="390.0"/>
      <point x="54.0" y="236.0" type="curve" smooth="yes"/>
      <point x="54.0" y="87.0"/>
      <point x="142.0" y="-10.0"/>
    </contour>
    <contour>
      <point x="290.0" y="60.0" type="curve" smooth="yes"/>
      <point x="197.0" y="60.0"/>
      <point x="134.0" y="135.0"/>
      <point x="134.0" y="246.0" type="curve" smooth="yes"/>
      <point x="134.0" y="353.0"/>
      <point x="191.0" y="422.0"/>
      <point x="280.0" y="422.0" type="curve" smooth="yes"/>
      <point x="373.0" y="422.0"/>
      <point x="437.0" y="346.0"/>
      <point x="437.0" y="236.0" type="curve" smooth="yes"/>
      <point x="437.0" y="130.0"/>
      <point x="379.0" y="60.0"/>
    </contour>
    <contour>
      <point x="111.0" y="-58.0" type="line"/>
      <point x="497.0" y="513.0" type="line"/>
      <point x="450.0" y="542.0" type="line"/>
      <point x="68.0" y="-29.0" type="line"/>
    </contour>
  </outline>
</glyph>
<glyph name="thorn" format="2">
  <advance width="568.0"/>
  <unicode hex="00FE"/>
  <outline>
    <contour>
      <point x="83.0" y="-217.0" type="line"/>
      <point x="161.0" y="-217.0" type="line"/>
      <point x="161.0" y="739.0" type="line"/>
      <point x="83.0" y="739.0" type="line"/>
    </contour>
    <contour>
      <point x="286.0" y="-10.0" type="curve" smooth="yes"/>
      <point x="424.0" y="-10.0"/>
      <point x="516.0" y="93.0"/>
      <point x="516.0" y="247.0" type="curve" smooth="yes"/>
      <point x="516.0" y="394.0"/>
      <point x="428.0" y="492.0"/>
      <point x="296.0" y="492.0" type="curve" smooth="yes"/>
      <point x="204.0" y="492.0"/>
      <point x="137.0" y="445.0"/>
      <point x="105.0" y="364.0" type="curve"/>
      <point x="135.0" y="320.0" type="line"/>
      <point x="157.0" y="384.0"/>
      <point x="209.0" y="422.0"/>
      <point x="277.0" y="422.0" type="curve" smooth="yes"/>
      <point x="373.0" y="422.0"/>
      <point x="436.0" y="346.0"/>
      <point x="436.0" y="235.0" type="curve" smooth="yes"/>
      <point x="436.0" y="130.0"/>
      <point x="379.0" y="60.0"/>
      <point x="286.0" y="60.0" type="curve" smooth="yes"/>
      <point x="219.0" y="60.0"/>
      <point x="167.0" y="96.0"/>
      <point x="141.0" y="155.0" type="curve"/>
      <point x="104.0" y="111.0" type="line"/>
      <point x="135.0" y="33.0"/>
      <point x="198.0" y="-10.0"/>
    </contour>
  </outline>
</glyph>
<glyph name="idotless" format="2">
  <advance width="254.0"/>
  <unicode hex="0131"/>
  <note>
dotlessi
</note>
  <anchor x="127.0" y="0.0" name="bottom"/>
  <anchor x="145.0" y="10.0" name="ogonek"/>
  <anchor x="128.0" y="482.0" name="top"/>
  <outline>
    <contour>
      <point x="87.0" y="0.0" type="line"/>
      <point x="167.0" y="0.0" type="line"/>
      <point x="167.0" y="482.0" type="line"/>
      <point x="87.0" y="482.0" type="line"/>
    </contour>
  </outline>
</glyph>
<glyph name="kgreenlandic" format="2">
  <advance width="498.0"/>
  <unicode hex="0138"/>
  <outline>
    <contour>
      <point x="83.0" y="0.0" type="line"/>
      <point x="163.0" y="0.0" type="line"/>
      <point x="163.0" y="482.0" type="line"/>
      <point x="83.0" y="482.0" type="line"/>
    </contour>
    <contour>
      <point x="388.0" y="-3.0" type="line"/>
      <point x="494.0" y="-3.0" type="line"/>
      <point x="243.0" y="286.0" type="line"/>
      <point x="237.0" y="237.0" type="line"/>
      <point x="472.0" y="479.0" type="line"/>
      <point x="377.0" y="479.0" type="line"/>
      <point x="161.0" y="257.0" type="line"/>
    </contour>
  </outline>
</glyph>
<glyph name="Eng" format="2">
  <advance width="758"/>
  <unicode hex="014A"/>
  <outline>
    <contour>
      <point x="96" y="0" type="line"/>
      <point x="174" y="0" type="line"/>
      <point x="174" y="605" type="line"/>
      <point x="157" y="605" type="line"/>
      <point x="591" y="-25" type="line"/>
      <point x="662" y="0" type="line"/>
      <point x="662" y="694" type="line"/>
      <point x="584" y="694" type="line"/>
      <point x="584" y="87" type="line"/>
      <point x="602" y="87" type="line"/>
      <point x="191" y="694" type="line"/>
      <point x="96" y="694" type="line"/>
    </contour>
    <contour>
      <point x="539" y="-234" type="line"/>
      <point x="613" y="-201"/>
      <point x="662" y="-117"/>
      <point x="662" y="-23" type="curve" smooth="yes"/>
      <point x="662" y="0" type="line"/>
      <point x="582" y="0" type="line"/>
      <point x="582" y="-35" type="line" smooth="yes"/>
      <point x="582" y="-102"/>
      <point x="554" y="-162"/>
      <point x="512" y="-186" type="curve"/>
    </contour>
  </outline>
</glyph>
<glyph name="eng" format="2">
  <advance width="567.0"/>
  <unicode hex="014B"/>
  <outline>
    <contour>
      <point x="83.0" y="0.0" type="line"/>
      <point x="163.0" y="0.0" type="line"/>
      <point x="163.0" y="426.0" type="line"/>
      <point x="139.0" y="482.0" type="line"/>
      <point x="83.0" y="482.0" type="line"/>
    </contour>
    <contour>
      <point x="412.0" y="0.0" type="line"/>
      <point x="492.0" y="0.0" type="line"/>
      <point x="492.0" y="316.0" type="line" smooth="yes"/>
      <point x="492.0" y="423.0"/>
      <point x="421.0" y="492.0"/>
      <point x="313.0" y="492.0" type="curve" smooth="yes"/>
      <point x="243.0" y="492.0"/>
      <point x="174.0" y="462.0"/>
      <point x="123.0" y="409.0" type="curve"/>
      <point x="142.0" y="358.0" type="line"/>
      <point x="182.0" y="399.0"/>
      <point x="235.0" y="422.0"/>
      <point x="291.0" y="422.0" type="curve" smooth="yes"/>
      <point x="369.0" y="422.0"/>
      <point x="412.0" y="378.0"/>
      <point x="412.0" y="300.0" type="curve" smooth="yes"/>
    </contour>
    <contour>
      <point x="369.0" y="-227.0" type="line"/>
      <point x="443.0" y="-194.0"/>
      <point x="492.0" y="-113.0"/>
      <point x="492.0" y="-23.0" type="curve" smooth="yes"/>
      <point x="492.0" y="0.0" type="line"/>
      <point x="412.0" y="0.0" type="line"/>
      <point x="412.0" y="-35.0" type="line" smooth="yes"/>
      <point x="412.0" y="-98.0"/>
      <point x="384.0" y="-155.0"/>
      <point x="342.0" y="-179.0" type="curve"/>
    </contour>
  </outline>
</glyph>
<glyph name="OE" format="2">
  <advance width="995"/>
  <unicode hex="0152"/>
  <anchor x="557" y="0" name="bottom"/>
  <anchor x="557" y="694" name="top"/>
  <outline>
    <contour>
      <point x="405" y="-7" type="curve" smooth="yes"/>
      <point x="459" y="-7"/>
      <point x="531" y="1"/>
      <point x="555" y="10" type="curve"/>
      <point x="515" y="79" type="line"/>
      <point x="494" y="71"/>
      <point x="450" y="65"/>
      <point x="405" y="65" type="curve" smooth="yes"/>
      <point x="244" y="65"/>
      <point x="141" y="178"/>
      <point x="141" y="355" type="curve" smooth="yes"/>
      <point x="141" y="525"/>
      <point x="237" y="630"/>
      <point x="397" y="630" type="curve" smooth="yes"/>
      <point x="442" y="630"/>
      <point x="489" y="625"/>
      <point x="515" y="611" type="curve"/>
      <point x="555" y="686" type="line"/>
      <point x="531" y="695"/>
      <point x="458" y="703"/>
      <point x="406" y="703" type="curve" smooth="yes"/>
      <point x="189" y="703"/>
      <point x="56" y="564"/>
      <point x="56" y="343" type="curve" smooth="yes"/>
      <point x="56" y="127"/>
      <point x="183" y="-7"/>
    </contour>
    <contour>
      <point x="507" y="0" type="line"/>
      <point x="590" y="0" type="line"/>
      <point x="590" y="694" type="line"/>
      <point x="507" y="694" type="line"/>
    </contour>
    <contour>
      <point x="547" y="0" type="line"/>
      <point x="943" y="0" type="line"/>
      <point x="943" y="72" type="line"/>
      <point x="547" y="72" type="line"/>
    </contour>
    <contour>
      <point x="547" y="323" type="line"/>
      <point x="916" y="323" type="line"/>
      <point x="916" y="395" type="line"/>
      <point x="547" y="395" type="line"/>
    </contour>
    <contour>
      <point x="547" y="622" type="line"/>
      <point x="943" y="622" type="line"/>
      <point x="943" y="694" type="line"/>
      <point x="547" y="694" type="line"/>
    </contour>
  </outline>
</glyph>
<glyph name="oe" format="2">
  <advance width="910.0"/>
  <unicode hex="0153"/>
  <anchor x="455.0" y="0.0" name="bottom"/>
  <anchor x="455.0" y="482.0" name="top"/>
  <outline>
    <contour>
      <point x="276.0" y="-10.0" type="curve" smooth="yes"/>
      <point x="418.0" y="-10.0"/>
      <point x="504.0" y="93.0"/>
      <point x="504.0" y="247.0" type="curve" smooth="yes"/>
      <point x="504.0" y="396.0"/>
      <point x="425.0" y="492.0"/>
      <point x="288.0" y="492.0" type="curve" smooth="yes"/>
      <point x="146.0" y="492.0"/>
      <point x="51.0" y="390.0"/>
      <point x="51.0" y="236.0" type="curve" smooth="yes"/>
      <point x="51.0" y="87.0"/>
      <point x="139.0" y="-10.0"/>
    </contour>
    <contour>
      <point x="287.0" y="60.0" type="curve" smooth="yes"/>
      <point x="194.0" y="60.0"/>
      <point x="131.0" y="135.0"/>
      <point x="131.0" y="246.0" type="curve" smooth="yes"/>
      <point x="131.0" y="353.0"/>
      <point x="188.0" y="422.0"/>
      <point x="277.0" y="422.0" type="curve" smooth="yes"/>
      <point x="370.0" y="422.0"/>
      <point x="434.0" y="346.0"/>
      <point x="434.0" y="236.0" type="curve" smooth="yes"/>
      <point x="434.0" y="130.0"/>
      <point x="376.0" y="60.0"/>
    </contour>
    <contour>
      <point x="682.0" y="-10.0" type="curve" smooth="yes"/>
      <point x="735.0" y="-10.0"/>
      <point x="782.0" y="1.0"/>
      <point x="840.0" y="27.0" type="curve"/>
      <point x="823.0" y="83.0" type="line"/>
      <point x="778.0" y="64.0"/>
      <point x="736.0" y="55.0"/>
      <point x="697.0" y="55.0" type="curve" smooth="yes"/>
      <point x="583.0" y="55.0"/>
      <point x="516.0" y="130.0"/>
      <point x="516.0" y="255.0" type="curve" smooth="yes"/>
      <point x="516.0" y="364.0"/>
      <point x="565.0" y="424.0"/>
      <point x="653.0" y="424.0" type="curve" smooth="yes"/>
      <point x="735.0" y="424.0"/>
      <point x="783.0" y="371.0"/>
      <point x="783.0" y="279.0" type="curve"/>
      <point x="502.0" y="279.0" type="line"/>
      <point x="502.0" y="219.0" type="line"/>
      <point x="854.0" y="219.0" type="line"/>
      <point x="856.0" y="234.0"/>
      <point x="858.0" y="269.0"/>
      <point x="858.0" y="288.0" type="curve" smooth="yes"/>
      <point x="858.0" y="409.0"/>
      <point x="778.0" y="492.0"/>
      <point x="659.0" y="492.0" type="curve" smooth="yes"/>
      <point x="525.0" y="492.0"/>
      <point x="434.0" y="388.0"/>
      <point x="434.0" y="236.0" type="curve" smooth="yes"/>
      <point x="434.0" y="82.0"/>
      <point x="527.0" y="-10.0"/>
    </contour>
  </outline>
</glyph>
<glyph name="Schwa" format="2">
  <advance width="726"/>
  <unicode hex="018F"/>
  <anchor x="360" y="0" name="bottom"/>
  <anchor x="360" y="694" name="top"/>
  <outline>
    <contour>
      <point x="313" y="700" type="curve" smooth="yes"/>
      <point x="226" y="700"/>
      <point x="148" y="680"/>
      <point x="78" y="640" type="curve"/>
      <point x="97" y="579" type="line"/>
      <point x="161" y="610"/>
      <point x="231" y="627"/>
      <point x="299" y="627" type="curve" smooth="yes"/>
      <point x="477" y="627"/>
      <point x="585" y="521"/>
      <point x="585" y="329" type="curve" smooth="yes"/>
      <point x="585" y="158"/>
      <point x="500" y="63"/>
      <point x="353" y="63" type="curve" smooth="yes"/>
      <point x="213" y="63"/>
      <point x="131" y="148"/>
      <point x="131" y="300" type="curve"/>
      <point x="606" y="300" type="line"/>
      <point x="606" y="368" type="line"/>
      <point x="58" y="368" type="line"/>
      <point x="56" y="345"/>
      <point x="54" y="312"/>
      <point x="54" y="291" type="curve" smooth="yes"/>
      <point x="54" y="111"/>
      <point x="170" y="-10"/>
      <point x="346" y="-10" type="curve" smooth="yes"/>
      <point x="537" y="-10"/>
      <point x="670" y="132"/>
      <point x="670" y="347" type="curve" smooth="yes"/>
      <point x="670" y="566"/>
      <point x="532" y="700"/>
    </contour>
  </outline>
</glyph>
<glyph name="florin" format="2">
  <advance width="483.0"/>
  <unicode hex="0192"/>
  <outline>
    <contour>
      <point x="148.0" y="0.0" type="line"/>
      <point x="228.0" y="0.0" type="line"/>
      <point x="228.0" y="587.0" type="line" smooth="yes"/>
      <point x="228.0" y="649.0"/>
      <point x="257.0" y="681.0"/>
      <point x="312.0" y="681.0" type="curve" smooth="yes"/>
      <point x="338.0" y="681.0"/>
      <point x="371.0" y="674.0"/>
      <point x="396.0" y="662.0" type="curve"/>
      <point x="415.0" y="726.0" type="line"/>
      <point x="384.0" y="741.0"/>
      <point x="352.0" y="749.0"/>
      <point x="318.0" y="749.0" type="curve" smooth="yes"/>
      <point x="216.0" y="749.0"/>
      <point x="148.0" y="680.0"/>
      <point x="148.0" y="577.0" type="curve" smooth="yes"/>
    </contour>
    <contour>
      <point x="76.0" y="415.0" type="line"/>
      <point x="378.0" y="415.0" type="line"/>
      <point x="378.0" y="482.0" type="line"/>
      <point x="76.0" y="482.0" type="line"/>
    </contour>
    <contour>
      <point x="105.0" y="-227.0" type="line"/>
      <point x="179.0" y="-194.0"/>
      <point x="228.0" y="-113.0"/>
      <point x="228.0" y="-23.0" type="curve" smooth="yes"/>
      <point x="228.0" y="0.0" type="line"/>
      <point x="148.0" y="0.0" type="line"/>
      <point x="148.0" y="-35.0" type="line" smooth="yes"/>
      <point x="148.0" y="-98.0"/>
      <point x="120.0" y="-155.0"/>
      <point x="78.0" y="-179.0" type="curve"/>
    </contour>
  </outline>
</glyph>
<glyph name="jdotless" format="2">
  <advance width="255.0"/>
  <unicode hex="0237"/>
  <note>
uni0237
</note>
  <anchor x="128.0" y="0.0" name="bottom"/>
  <anchor x="128.0" y="482.0" name="top"/>
  <outline>
    <contour>
      <point x="24.0" y="-227.0" type="line"/>
      <point x="115.0" y="-187.0"/>
      <point x="168.0" y="-111.0"/>
      <point x="168.0" y="-23.0" type="curve" smooth="yes"/>
      <point x="168.0" y="482.0" type="line"/>
      <point x="88.0" y="482.0" type="line"/>
      <point x="88.0" y="-35.0" type="line" smooth="yes"/>
      <point x="88.0" y="-91.0"/>
      <point x="52.0" y="-148.0"/>
      <point x="-2.0" y="-179.0" type="curve"/>
    </contour>
  </outline>
</glyph>
<glyph name="ringhalfright" format="2">
  <advance width="258.0"/>
  <unicode hex="02BE"/>
  <outline>
    <contour>
      <point x="76.0" y="556.0" type="line"/>
      <point x="154.0" y="557.0"/>
      <point x="195.0" y="593.0"/>
      <point x="195.0" y="660.0" type="curve" smooth="yes"/>
      <point x="195.0" y="726.0"/>
      <point x="154.0" y="760.0"/>
      <point x="76.0" y="760.0" type="curve"/>
      <point x="76.0" y="700.0" type="line"/>
      <point x="113.0" y="700.0"/>
      <point x="133.0" y="686.0"/>
      <point x="133.0" y="659.0" type="curve" smooth="yes"/>
      <point x="133.0" y="632.0"/>
      <point x="113.0" y="617.0"/>
      <point x="76.0" y="616.0" type="curve"/>
    </contour>
  </outline>
</glyph>
<glyph name="gravecomb" format="2">
  <unicode hex="0300"/>
  <anchor x="178.0" y="482.0" name="_top"/>
  <anchor x="144.0" y="704.0" name="top"/>
  <anchor x="261.0" y="546.0" name="top_dot"/>
  <outline>
    <contour>
      <point x="166.0" y="560.0" type="line"/>
      <point x="203.0" y="589.0" type="line"/>
      <point x="99.0" y="745.0" type="line"/>
      <point x="36.0" y="694.0" type="line"/>
    </contour>
  </outline>
</glyph>
<glyph name="acutecomb" format="2">
  <unicode hex="0301"/>
  <anchor x="83.0" y="482.0" name="_top"/>
  <anchor x="117.0" y="704.0" name="top"/>
  <anchor x="0.0" y="546.0" name="top_dot"/>
  <outline>
    <contour>
      <point x="89.0" y="560.0" type="line"/>
      <point x="219.0" y="694.0" type="line"/>
      <point x="156.0" y="745.0" type="line"/>
      <point x="52.0" y="589.0" type="line"/>
    </contour>
  </outline>
</glyph>
<glyph name="circumflexcomb" format="2">
  <unicode hex="0302"/>
  <anchor x="193.0" y="482.0" name="_top"/>
  <anchor x="193.0" y="658.0" name="top"/>
  <anchor x="355.0" y="602.0" name="top_viet"/>
  <outline>
    <contour>
      <point x="45.0" y="587.0" type="line"/>
      <point x="80.0" y="559.0" type="line"/>
      <point x="190.0" y="657.0" type="line"/>
      <point x="299.0" y="559.0" type="line"/>
      <point x="343.0" y="601.0" type="line"/>
      <point x="216.0" y="728.0" type="line"/>
      <point x="173.0" y="728.0" type="line"/>
    </contour>
  </outline>
</glyph>
<glyph name="tildecomb" format="2">
  <unicode hex="0303"/>
  <anchor x="232.0" y="482.0" name="_top"/>
  <anchor x="232.0" y="641.0" name="top"/>
  <outline>
    <contour>
      <point x="114.0" y="572.0" type="line"/>
      <point x="124.0" y="604.0"/>
      <point x="145.0" y="625.0"/>
      <point x="171.0" y="625.0" type="curve" smooth="yes"/>
      <point x="212.0" y="625.0"/>
      <point x="229.0" y="574.0"/>
      <point x="296.0" y="574.0" type="curve" smooth="yes"/>
      <point x="353.0" y="574.0"/>
      <point x="398.0" y="610.0"/>
      <point x="412.0" y="679.0" type="curve"/>
      <point x="359.0" y="693.0" type="line"/>
      <point x="348.0" y="658.0"/>
      <point x="326.0" y="638.0"/>
      <point x="299.0" y="638.0" type="curve" smooth="yes"/>
      <point x="255.0" y="638.0"/>
      <point x="235.0" y="691.0"/>
      <point x="174.0" y="691.0" type="curve" smooth="yes"/>
      <point x="126.0" y="691.0"/>
      <point x="81.0" y="658.0"/>
      <point x="61.0" y="586.0" type="curve"/>
    </contour>
  </outline>
</glyph>
<glyph name="macroncomb" format="2">
  <unicode hex="0304"/>
  <anchor x="245.0" y="482.0" name="_top"/>
  <anchor x="245.0" y="635.0" name="top"/>
  <outline>
    <contour>
      <point x="88.0" y="606.0" type="line"/>
      <point x="401.0" y="606.0" type="line"/>
      <point x="401.0" y="672.0" type="line"/>
      <point x="88.0" y="672.0" type="line"/>
    </contour>
  </outline>
</glyph>
<glyph name="brevecomb" format="2">
  <unicode hex="0306"/>
  <anchor x="208.0" y="482.0" name="_top"/>
  <anchor x="208.0" y="681.0" name="top"/>
  <outline>
    <contour>
      <point x="205.0" y="561.0" type="curve" smooth="yes"/>
      <point x="282.0" y="561.0"/>
      <point x="343.0" y="619.0"/>
      <point x="356.0" y="705.0" type="curve"/>
      <point x="317.0" y="731.0" type="line"/>
      <point x="310.0" y="668.0"/>
      <point x="270.0" y="626.0"/>
      <point x="217.0" y="626.0" type="curve" smooth="yes"/>
      <point x="166.0" y="626.0"/>
      <point x="127.0" y="668.0"/>
      <point x="119.0" y="730.0" type="curve"/>
      <point x="55.0" y="693.0" type="line"/>
      <point x="69.0" y="614.0"/>
      <point x="129.0" y="561.0"/>
    </contour>
  </outline>
</glyph>
<glyph name="dotaccentcomb" format="2">
  <unicode hex="0307"/>
  <anchor x="133.0" y="482.0" name="_top"/>
  <anchor x="133.0" y="674.0" name="top"/>
  <outline>
    <contour>
      <point x="133.0" y="595.0" type="curve" smooth="yes"/>
      <point x="169.0" y="595.0"/>
      <point x="190.0" y="616.0"/>
      <point x="190.0" y="652.0" type="curve" smooth="yes"/>
      <point x="190.0" y="688.0"/>
      <point x="169.0" y="709.0"/>
      <point x="133.0" y="709.0" type="curve" smooth="yes"/>
      <point x="97.0" y="709.0"/>
      <point x="76.0" y="688.0"/>
      <point x="76.0" y="652.0" type="curve" smooth="yes"/>
      <point x="76.0" y="616.0"/>
      <point x="97.0" y="595.0"/>
    </contour>
  </outline>
</glyph>
<glyph name="dieresiscomb" format="2">
  <unicode hex="0308"/>
  <anchor x="233.0" y="482.0" name="_top"/>
  <anchor x="233.0" y="674.0" name="top"/>
  <outline>
    <contour>
      <point x="133.0" y="595.0" type="curve" smooth="yes"/>
      <point x="169.0" y="595.0"/>
      <point x="190.0" y="616.0"/>
      <point x="190.0" y="652.0" type="curve" smooth="yes"/>
      <point x="190.0" y="688.0"/>
      <point x="169.0" y="709.0"/>
      <point x="133.0" y="709.0" type="curve" smooth="yes"/>
      <point x="97.0" y="709.0"/>
      <point x="76.0" y="688.0"/>
      <point x="76.0" y="652.0" type="curve" smooth="yes"/>
      <point x="76.0" y="616.0"/>
      <point x="97.0" y="595.0"/>
    </contour>
    <contour>
      <point x="333.0" y="595.0" type="curve" smooth="yes"/>
      <point x="369.0" y="595.0"/>
      <point x="390.0" y="616.0"/>
      <point x="390.0" y="652.0" type="curve" smooth="yes"/>
      <point x="390.0" y="688.0"/>
      <point x="369.0" y="709.0"/>
      <point x="333.0" y="709.0" type="curve" smooth="yes"/>
      <point x="297.0" y="709.0"/>
      <point x="276.0" y="688.0"/>
      <point x="276.0" y="652.0" type="curve" smooth="yes"/>
      <point x="276.0" y="616.0"/>
      <point x="297.0" y="595.0"/>
    </contour>
  </outline>
</glyph>
<glyph name="hookabovecomb" format="2">
  <unicode hex="0309"/>
  <anchor x="153.0" y="482.0" name="_top"/>
  <anchor x="145.0" y="709.0" name="top"/>
  <outline>
    <contour>
      <point x="136.0" y="549.0" type="line"/>
      <point x="209.0" y="584.0"/>
      <point x="248.0" y="636.0"/>
      <point x="248.0" y="688.0" type="curve" smooth="yes"/>
      <point x="248.0" y="739.0"/>
      <point x="211.0" y="772.0"/>
      <point x="151.0" y="772.0" type="curve" smooth="yes"/>
      <point x="118.0" y="772.0"/>
      <point x="76.0" y="762.0"/>
      <point x="40.0" y="740.0" type="curve"/>
      <point x="59.0" y="686.0" type="line"/>
      <point x="87.0" y="700.0"/>
      <point x="115.0" y="709.0"/>
      <point x="135.0" y="709.0" type="curve" smooth="yes"/>
      <point x="162.0" y="709.0"/>
      <point x="181.0" y="693.0"/>
      <point x="181.0" y="669.0" type="curve" smooth="yes"/>
      <point x="181.0" y="642.0"/>
      <point x="157.0" y="611.0"/>
      <point x="121.0" y="591.0" type="curve"/>
    </contour>
  </outline>
</glyph>
<glyph name="ringcomb" format="2">
  <unicode hex="030A"/>
  <anchor x="173.0" y="482.0" name="_top"/>
  <anchor x="176.0" y="739.0" name="top"/>
  <outline>
    <contour>
      <point x="171.0" y="555.0" type="curve" smooth="yes"/>
      <point x="235.0" y="555.0"/>
      <point x="277.0" y="597.0"/>
      <point x="277.0" y="661.0" type="curve" smooth="yes"/>
      <point x="277.0" y="722.0"/>
      <point x="236.0" y="763.0"/>
      <point x="175.0" y="763.0" type="curve" smooth="yes"/>
      <point x="111.0" y="763.0"/>
      <point x="69.0" y="721.0"/>
      <point x="69.0" y="657.0" type="curve" smooth="yes"/>
      <point x="69.0" y="596.0"/>
      <point x="110.0" y="555.0"/>
    </contour>
    <contour>
      <point x="175.0" y="613.0" type="curve" smooth="yes"/>
      <point x="146.0" y="613.0"/>
      <point x="127.0" y="632.0"/>
      <point x="127.0" y="661.0" type="curve" smooth="yes"/>
      <point x="127.0" y="687.0"/>
      <point x="145.0" y="705.0"/>
      <point x="171.0" y="705.0" type="curve" smooth="yes"/>
      <point x="200.0" y="705.0"/>
      <point x="219.0" y="686.0"/>
      <point x="219.0" y="657.0" type="curve" smooth="yes"/>
      <point x="219.0" y="631.0"/>
      <point x="201.0" y="613.0"/>
    </contour>
  </outline>
</glyph>
<glyph name="hungarumlautcomb" format="2">
  <unicode hex="030B"/>
  <anchor x="188.0" y="482.0" name="_top"/>
  <anchor x="188.0" y="704.0" name="top"/>
  <outline>
    <contour>
      <point x="278.0" y="553.0" type="line"/>
      <point x="383.0" y="708.0" type="line"/>
      <point x="312.0" y="747.0" type="line"/>
      <point x="236.0" y="575.0" type="line"/>
    </contour>
    <contour>
      <point x="108.0" y="553.0" type="line"/>
      <point x="213.0" y="708.0" type="line"/>
      <point x="142.0" y="747.0" type="line"/>
      <point x="66.0" y="575.0" type="line"/>
    </contour>
  </outline>
</glyph>
<glyph name="caroncomb" format="2">
  <unicode hex="030C"/>
  <anchor x="183.0" y="482.0" name="_top"/>
  <anchor x="183.0" y="642.0" name="top"/>
  <outline>
    <contour>
      <point x="164.0" y="567.0" type="line"/>
      <point x="207.0" y="567.0" type="line"/>
      <point x="334.0" y="706.0" type="line"/>
      <point x="300.0" y="736.0" type="line"/>
      <point x="188.0" y="635.0" type="line"/>
      <point x="83.0" y="735.0" type="line"/>
      <point x="34.0" y="693.0" type="line"/>
    </contour>
  </outline>
</glyph>
<glyph name="verticallineabovecomb" format="2">
  <unicode hex="030D"/>
  <anchor x="125.0" y="482.0" name="_top"/>
  <anchor x="125.0" y="750.0" name="top"/>
  <outline>
    <contour>
      <point x="160.0" y="750.0" type="line"/>
      <point x="90.0" y="750.0" type="line"/>
      <point x="96.0" y="566.0" type="line"/>
      <point x="154.0" y="566.0" type="line"/>
    </contour>
  </outline>
</glyph>
<glyph name="dblgravecomb" format="2">
  <unicode hex="030F"/>
  <anchor x="254.0" y="482.0" name="_top"/>
  <anchor x="254.0" y="704.0" name="top"/>
  <outline>
    <contour>
      <point x="159.0" y="553.0" type="line"/>
      <point x="201.0" y="575.0" type="line"/>
      <point x="125.0" y="747.0" type="line"/>
      <point x="54.0" y="708.0" type="line"/>
    </contour>
    <contour>
      <point x="329.0" y="553.0" type="line"/>
      <point x="371.0" y="575.0" type="line"/>
      <point x="295.0" y="747.0" type="line"/>
      <point x="224.0" y="708.0" type="line"/>
    </contour>
  </outline>
</glyph>
<glyph name="breveinvertedcomb" format="2">
  <unicode hex="0311"/>
  <anchor x="210.0" y="482.0" name="_top"/>
  <anchor x="210.0" y="716.0" name="top"/>
  <outline>
    <contour>
      <point x="104.0" y="565.0" type="line"/>
      <point x="111.0" y="631.0"/>
      <point x="152.0" y="670.0"/>
      <point x="200.0" y="670.0" type="curve" smooth="yes"/>
      <point x="249.0" y="670.0"/>
      <point x="288.0" y="628.0"/>
      <point x="295.0" y="566.0" type="curve"/>
      <point x="359.0" y="603.0" type="line"/>
      <point x="346.0" y="682.0"/>
      <point x="286.0" y="735.0"/>
      <point x="213.0" y="735.0" type="curve" smooth="yes"/>
      <point x="137.0" y="735.0"/>
      <point x="78.0" y="677.0"/>
      <point x="65.0" y="591.0" type="curve"/>
    </contour>
  </outline>
</glyph>
<glyph name="commaturnedabovecomb" format="2">
	<unicode hex="0312"/>
	<outline>
		<contour>
			<point x="205" y="732" type="curve"/>
			<point x="146" y="732" type="line"/>
			<point x="114" y="688"/>
			<point x="99" y="637"/>
			<point x="99" y="570" type="curve"/>
			<point x="174" y="570" type="line"/>
			<point x="174" y="632"/>
			<point x="186" y="697"/>
		</contour>
	</outline>
	<anchor name="_top" x="151" y="482"/>
	<anchor name="top" x="151" y="749"/>
</glyph>
<glyph name="horncomb" format="2">
  <unicode hex="031B"/>
  <anchor x="142.0" y="482.0" name="_topright"/>
  <anchor x="142.0" y="482.0" name="topright"/>
  <outline>
    <contour>
      <point x="71.0" y="334.0" type="line"/>
      <point x="174.0" y="334.0"/>
      <point x="236.0" y="390.0"/>
      <point x="236.0" y="485.0" type="curve" smooth="yes"/>
      <point x="236.0" y="523.0"/>
      <point x="226.0" y="555.0"/>
      <point x="206.0" y="581.0" type="curve"/>
      <point x="129.0" y="581.0" type="line"/>
      <point x="148.0" y="551.0"/>
      <point x="159.0" y="515.0"/>
      <point x="159.0" y="483.0" type="curve" smooth="yes"/>
      <point x="159.0" y="424.0"/>
      <point x="124.0" y="385.0"/>
      <point x="71.0" y="385.0" type="curve"/>
    </contour>
  </outline>
</glyph>
<glyph name="dotbelowcomb" format="2">
  <unicode hex="0323"/>
  <anchor x="136.0" y="0.0" name="_bottom"/>
  <anchor x="136.0" y="-205.0" name="bottom"/>
  <outline>
    <contour>
      <point x="136.0" y="-195.0" type="curve" smooth="yes"/>
      <point x="172.0" y="-195.0"/>
      <point x="193.0" y="-174.0"/>
      <point x="193.0" y="-138.0" type="curve" smooth="yes"/>
      <point x="193.0" y="-102.0"/>
      <point x="172.0" y="-81.0"/>
      <point x="136.0" y="-81.0" type="curve" smooth="yes"/>
      <point x="100.0" y="-81.0"/>
      <point x="79.0" y="-102.0"/>
      <point x="79.0" y="-138.0" type="curve" smooth="yes"/>
      <point x="79.0" y="-174.0"/>
      <point x="100.0" y="-195.0"/>
    </contour>
  </outline>
</glyph>
<glyph name="dieresisbelowcomb" format="2">
  <unicode hex="0324"/>
  <anchor x="236.0" y="0.0" name="_bottom"/>
  <anchor x="236.0" y="-195.0" name="bottom"/>
  <outline>
    <contour>
      <point x="136.0" y="-195.0" type="curve" smooth="yes"/>
      <point x="172.0" y="-195.0"/>
      <point x="193.0" y="-174.0"/>
      <point x="193.0" y="-138.0" type="curve" smooth="yes"/>
      <point x="193.0" y="-102.0"/>
      <point x="172.0" y="-81.0"/>
      <point x="136.0" y="-81.0" type="curve" smooth="yes"/>
      <point x="100.0" y="-81.0"/>
      <point x="79.0" y="-102.0"/>
      <point x="79.0" y="-138.0" type="curve" smooth="yes"/>
      <point x="79.0" y="-174.0"/>
      <point x="100.0" y="-195.0"/>
    </contour>
    <contour>
      <point x="336.0" y="-195.0" type="curve" smooth="yes"/>
      <point x="372.0" y="-195.0"/>
      <point x="393.0" y="-174.0"/>
      <point x="393.0" y="-138.0" type="curve" smooth="yes"/>
      <point x="393.0" y="-102.0"/>
      <point x="372.0" y="-81.0"/>
      <point x="336.0" y="-81.0" type="curve" smooth="yes"/>
      <point x="300.0" y="-81.0"/>
      <point x="279.0" y="-102.0"/>
      <point x="279.0" y="-138.0" type="curve" smooth="yes"/>
      <point x="279.0" y="-174.0"/>
      <point x="300.0" y="-195.0"/>
    </contour>
  </outline>
</glyph>
<glyph name="cedillacomb" format="2">
  <unicode hex="0327"/>
  <anchor x="147.0" y="0.0" name="_bottom"/>
  <anchor x="256.0" y="-260.0" name="bottom"/>
  <outline>
    <contour>
      <point x="148.0" y="-256.0" type="curve" smooth="yes"/>
      <point x="230.0" y="-256.0"/>
      <point x="277.0" y="-220.0"/>
      <point x="277.0" y="-157.0" type="curve" smooth="yes"/>
      <point x="277.0" y="-102.0"/>
      <point x="239.0" y="-70.0"/>
      <point x="163.0" y="-59.0" type="curve"/>
      <point x="174.0" y="5.0" type="line"/>
      <point x="116.0" y="5.0" type="line"/>
      <point x="96.0" y="-102.0" type="line"/>
      <point x="164.0" y="-105.0"/>
      <point x="204.0" y="-127.0"/>
      <point x="204.0" y="-161.0" type="curve" smooth="yes"/>
      <point x="204.0" y="-186.0"/>
      <point x="184.0" y="-200.0"/>
      <point x="147.0" y="-200.0" type="curve" smooth="yes"/>
      <point x="122.0" y="-200.0"/>
      <point x="90.0" y="-194.0"/>
      <point x="66.0" y="-183.0" type="curve"/>
      <point x="49.0" y="-232.0" type="line"/>
      <point x="77.0" y="-248.0"/>
      <point x="110.0" y="-256.0"/>
    </contour>
  </outline>
</glyph>
<glyph name="ogonekcomb" format="2">
  <unicode hex="0328"/>
  <anchor x="432.0" y="10.0" name="_ogonek"/>
  <outline>
    <contour>
      <point x="372.0" y="-252.0" type="curve" smooth="yes"/>
      <point x="401.0" y="-252.0"/>
      <point x="426.0" y="-245.0"/>
      <point x="450.0" y="-231.0" type="curve"/>
      <point x="444.0" y="-179.0" type="line"/>
      <point x="429.0" y="-185.0"/>
      <point x="409.0" y="-190.0"/>
      <point x="393.0" y="-190.0" type="curve" smooth="yes"/>
      <point x="359.0" y="-190.0"/>
      <point x="336.0" y="-168.0"/>
      <point x="336.0" y="-136.0" type="curve" smooth="yes"/>
      <point x="336.0" y="-90.0"/>
      <point x="383.0" y="-36.0"/>
      <point x="454.0" y="0.0" type="curve"/>
      <point x="414.0" y="22.0" type="line"/>
      <point x="313.0" y="-15.0"/>
      <point x="253.0" y="-79.0"/>
      <point x="253.0" y="-150.0" type="curve" smooth="yes"/>
      <point x="253.0" y="-212.0"/>
      <point x="299.0" y="-252.0"/>
    </contour>
  </outline>
</glyph>
<glyph name="verticallinebelowcomb" format="2">
  <unicode hex="0329"/>
  <anchor x="124.0" y="0.0" name="_bottom"/>
  <anchor x="124.0" y="-225.0" name="bottom"/>
  <outline>
    <contour>
      <point x="89.0" y="-225.0" type="line"/>
      <point x="159.0" y="-225.0" type="line"/>
      <point x="153.0" y="-41.0" type="line"/>
      <point x="95.0" y="-41.0" type="line"/>
    </contour>
  </outline>
</glyph>
<glyph name="brevebelowcomb" format="2">
  <unicode hex="032E"/>
  <anchor x="206.0" y="0.0" name="_bottom"/>
  <anchor x="206.0" y="-212.0" name="bottom"/>
  <outline>
    <contour>
      <point x="205.0" y="-212.0" type="curve" smooth="yes"/>
      <point x="279.0" y="-212.0"/>
      <point x="331.0" y="-171.0"/>
      <point x="356.0" y="-93.0" type="curve"/>
      <point x="317.0" y="-67.0" type="line"/>
      <point x="299.0" y="-121.0"/>
      <point x="265.0" y="-149.0"/>
      <point x="217.0" y="-149.0" type="curve" smooth="yes"/>
      <point x="176.0" y="-149.0"/>
      <point x="137.0" y="-116.0"/>
      <point x="119.0" y="-67.0" type="curve"/>
      <point x="55.0" y="-105.0" type="line"/>
      <point x="79.0" y="-169.0"/>
      <point x="139.0" y="-212.0"/>
    </contour>
  </outline>
</glyph>
<glyph name="macronbelowcomb" format="2">
  <unicode hex="0331"/>
  <anchor x="245.0" y="0.0" name="_bottom"/>
  <anchor x="245.0" y="-172.0" name="bottom"/>
  <outline>
    <contour>
      <point x="88.0" y="-171.0" type="line"/>
      <point x="401.0" y="-171.0" type="line"/>
      <point x="401.0" y="-106.0" type="line"/>
      <point x="88.0" y="-106.0" type="line"/>
    </contour>
  </outline>
</glyph>
<glyph name="strokeshortcomb" format="2">
  <unicode hex="0335"/>
  <anchor x="228.0" y="298.0" name="_center"/>
  <outline>
    <contour>
      <point x="89.0" y="269.0" type="line"/>
      <point x="366.0" y="269.0" type="line"/>
      <point x="366.0" y="327.0" type="line"/>
      <point x="89.0" y="327.0" type="line"/>
    </contour>
  </outline>
</glyph>
<glyph name="strokelongcomb" format="2">
  <unicode hex="0336"/>
  <anchor x="445.0" y="342.0" name="_center"/>
  <outline>
    <contour>
      <point x="88.0" y="312.0" type="line"/>
      <point x="801.0" y="312.0" type="line"/>
      <point x="801.0" y="372.0" type="line"/>
      <point x="88.0" y="372.0" type="line"/>
    </contour>
  </outline>
</glyph>
<glyph name="slashshortcomb" format="2">
  <unicode hex="0337"/>
  <anchor x="179.0" y="286.0" name="_center"/>
  <outline>
    <contour>
      <point x="68.0" y="192.0" type="line"/>
      <point x="320.0" y="329.0" type="line"/>
      <point x="291.0" y="379.0" type="line"/>
      <point x="38.0" y="241.0" type="line"/>
    </contour>
  </outline>
</glyph>
<glyph name="slashlongcomb" format="2">
  <unicode hex="0338"/>
  <anchor x="242.0" y="242.0" name="_center"/>
  <outline>
    <contour>
      <point x="67.0" y="-57.0" type="line"/>
      <point x="453.0" y="514.0" type="line"/>
      <point x="406.0" y="543.0" type="line"/>
      <point x="24.0" y="-28.0" type="line"/>
    </contour>
  </outline>
</glyph>
<glyph name="ypogegrammeni" format="2">
  <advance width="499"/>
  <unicode hex="037A"/>
  <anchor x="234" y="0" name="_bottom"/>
  <outline>
    <contour>
      <point x="200" y="-74" type="line"/>
      <point x="200" y="-150" type="line" smooth="yes"/>
      <point x="200" y="-194"/>
      <point x="224" y="-224"/>
      <point x="268" y="-224" type="curve" smooth="yes"/>
      <point x="291" y="-224"/>
      <point x="311" y="-219"/>
      <point x="329" y="-210" type="curve"/>
      <point x="317" y="-167" type="line"/>
      <point x="311" y="-169"/>
      <point x="303" y="-171"/>
      <point x="295" y="-171" type="curve" smooth="yes"/>
      <point x="279" y="-171"/>
      <point x="268" y="-163"/>
      <point x="268" y="-139" type="curve" smooth="yes"/>
      <point x="268" y="-74" type="line"/>
    </contour>
  </outline>
</glyph>
<glyph name="tonos" format="2">
  <advance width="257"/>
  <unicode hex="0384"/>
  <anchor x="105" y="482" name="_top"/>
  <outline>
    <contour>
      <point x="133" y="560" type="line"/>
      <point x="191" y="732" type="line"/>
      <point x="108" y="745" type="line"/>
      <point x="83" y="567" type="line"/>
    </contour>
  </outline>
</glyph>
<glyph name="dieresistonos" format="2">
  <advance width="519"/>
  <unicode hex="0385"/>
  <anchor x="236" y="482" name="_top"/>
  <outline>
    <contour>
      <point x="129" y="597" type="curve" smooth="yes"/>
      <point x="163" y="597"/>
      <point x="182" y="619"/>
      <point x="182" y="652" type="curve" smooth="yes"/>
      <point x="182" y="685"/>
      <point x="163" y="707"/>
      <point x="129" y="707" type="curve" smooth="yes"/>
      <point x="95" y="707"/>
      <point x="76" y="685"/>
      <point x="76" y="652" type="curve" smooth="yes"/>
      <point x="76" y="619"/>
      <point x="95" y="597"/>
    </contour>
    <contour>
      <point x="261" y="560" type="line"/>
      <point x="312" y="733" type="line"/>
      <point x="234" y="744" type="line"/>
      <point x="213" y="567" type="line"/>
    </contour>
    <contour>
      <point x="390" y="597" type="curve" smooth="yes"/>
      <point x="424" y="597"/>
      <point x="443" y="619"/>
      <point x="443" y="652" type="curve" smooth="yes"/>
      <point x="443" y="685"/>
      <point x="424" y="707"/>
      <point x="390" y="707" type="curve" smooth="yes"/>
      <point x="356" y="707"/>
      <point x="337" y="685"/>
      <point x="337" y="652" type="curve" smooth="yes"/>
      <point x="337" y="619"/>
      <point x="356" y="597"/>
    </contour>
  </outline>
</glyph>
<glyph name="Delta" format="2">
  <advance width="690"/>
  <unicode hex="0394"/>
  <anchor x="345" y="0" name="bottom"/>
  <anchor x="345" y="694" name="top"/>
  <outline>
    <contour>
      <point x="58" y="0" type="line"/>
      <point x="125" y="0" type="line"/>
      <point x="352" y="636" type="line"/>
      <point x="343" y="636" type="line"/>
      <point x="557" y="0" type="line"/>
      <point x="631" y="0" type="line"/>
      <point x="631" y="53" type="line"/>
      <point x="406" y="694" type="line"/>
      <point x="298" y="694" type="line"/>
      <point x="58" y="53" type="line"/>
    </contour>
    <contour>
      <point x="95" y="0" type="line"/>
      <point x="587" y="0" type="line"/>
      <point x="587" y="72" type="line"/>
      <point x="95" y="72" type="line"/>
    </contour>
  </outline>
</glyph>
<glyph name="Theta" format="2">
  <advance width="788"/>
  <unicode hex="0398"/>
  <anchor x="394" y="0" name="bottom"/>
  <anchor x="394" y="694" name="top"/>
  <outline>
    <contour>
      <point x="231" y="318" type="line"/>
      <point x="555" y="318" type="line"/>
      <point x="555" y="390" type="line"/>
      <point x="231" y="390" type="line"/>
    </contour>
    <component base="O"/>
  </outline>
</glyph>
<glyph name="Lambda" format="2">
  <advance width="699"/>
  <unicode hex="039B"/>
  <anchor x="350" y="0" name="bottom"/>
  <anchor x="350" y="694" name="top"/>
  <outline>
    <contour>
      <point x="43" y="0" type="line"/>
      <point x="130" y="0" type="line"/>
      <point x="357" y="636" type="line"/>
      <point x="348" y="636" type="line"/>
      <point x="562" y="0" type="line"/>
      <point x="655" y="0" type="line"/>
      <point x="411" y="694" type="line"/>
      <point x="303" y="694" type="line"/>
    </contour>
  </outline>
</glyph>
<glyph name="Xi" format="2">
  <advance width="585"/>
  <unicode hex="039E"/>
  <outline>
    <contour>
      <point x="63" y="0" type="line"/>
      <point x="529" y="0" type="line"/>
      <point x="529" y="72" type="line"/>
      <point x="63" y="72" type="line"/>
    </contour>
    <contour>
      <point x="108" y="323" type="line"/>
      <point x="480" y="323" type="line"/>
      <point x="480" y="395" type="line"/>
      <point x="108" y="395" type="line"/>
    </contour>
    <contour>
      <point x="63" y="622" type="line"/>
      <point x="529" y="622" type="line"/>
      <point x="529" y="694" type="line"/>
      <point x="63" y="694" type="line"/>
    </contour>
  </outline>
</glyph>
<glyph name="Sigma" format="2">
  <advance width="639"/>
  <unicode hex="03A3"/>
  <outline>
    <contour>
      <point x="407" y="357" type="line"/>
      <point x="160" y="646" type="line"/>
      <point x="160" y="622" type="line"/>
      <point x="575" y="622" type="line"/>
      <point x="575" y="694" type="line"/>
      <point x="65" y="694" type="line"/>
      <point x="65" y="641" type="line"/>
      <point x="352" y="306" type="line"/>
      <point x="352" y="404" type="line"/>
      <point x="57" y="53" type="line"/>
      <point x="57" y="0" type="line"/>
      <point x="587" y="0" type="line"/>
      <point x="587" y="72" type="line"/>
      <point x="141" y="72" type="line"/>
      <point x="141" y="40" type="line"/>
    </contour>
  </outline>
</glyph>
<glyph name="Phi" format="2">
  <advance width="826"/>
  <unicode hex="03A6"/>
  <outline>
    <contour>
      <point x="407" y="73" type="curve" smooth="yes"/>
      <point x="628" y="73"/>
      <point x="766" y="184"/>
      <point x="766" y="350" type="curve" smooth="yes"/>
      <point x="766" y="513"/>
      <point x="627" y="623"/>
      <point x="416" y="623" type="curve" smooth="yes"/>
      <point x="197" y="623"/>
      <point x="60" y="511"/>
      <point x="60" y="343" type="curve" smooth="yes"/>
      <point x="60" y="182"/>
      <point x="198" y="73"/>
    </contour>
    <contour>
      <point x="416" y="146" type="curve" smooth="yes"/>
      <point x="251" y="146"/>
      <point x="145" y="230"/>
      <point x="145" y="350" type="curve" smooth="yes"/>
      <point x="145" y="467"/>
      <point x="249" y="550"/>
      <point x="406" y="550" type="curve" smooth="yes"/>
      <point x="574" y="550"/>
      <point x="681" y="465"/>
      <point x="681" y="343" type="curve" smooth="yes"/>
      <point x="681" y="228"/>
      <point x="576" y="146"/>
    </contour>
    <contour>
      <point x="371" y="-10" type="line"/>
      <point x="454" y="-10" type="line"/>
      <point x="454" y="704" type="line"/>
      <point x="371" y="704" type="line"/>
    </contour>
  </outline>
</glyph>
<glyph name="Psi" format="2">
  <advance width="788"/>
  <unicode hex="03A8"/>
  <anchor x="395" y="0" name="bottom"/>
  <anchor x="395" y="694" name="top"/>
  <outline>
    <contour>
      <point x="366" y="210" type="curve"/>
      <point x="370" y="282" type="line"/>
      <point x="242" y="282"/>
      <point x="152" y="344"/>
      <point x="152" y="471" type="curve" smooth="yes"/>
      <point x="152" y="694" type="line"/>
      <point x="69" y="694" type="line"/>
      <point x="69" y="461" type="line" smooth="yes"/>
      <point x="69" y="301"/>
      <point x="200" y="210"/>
    </contour>
    <contour>
      <point x="419" y="210" type="line"/>
      <point x="592" y="210"/>
      <point x="720" y="301"/>
      <point x="720" y="462" type="curve" smooth="yes"/>
      <point x="720" y="694" type="line"/>
      <point x="637" y="694" type="line"/>
      <point x="637" y="453" type="line" smooth="yes"/>
      <point x="637" y="337"/>
      <point x="549" y="282"/>
      <point x="425" y="282" type="curve"/>
    </contour>
    <contour>
      <point x="353" y="0" type="line"/>
      <point x="436" y="0" type="line"/>
      <point x="436" y="694" type="line"/>
      <point x="353" y="694" type="line"/>
    </contour>
  </outline>
</glyph>
<glyph name="Omega" format="2">
  <advance width="796"/>
  <unicode hex="03A9"/>
  <anchor x="396" y="0" name="bottom"/>
  <anchor x="391" y="694" name="top"/>
  <anchor x="20" y="694" name="topleft"/>
  <outline>
    <contour>
      <point x="398" y="703" type="curve" smooth="yes"/>
      <point x="202" y="703"/>
      <point x="71" y="557"/>
      <point x="71" y="383" type="curve" smooth="yes"/>
      <point x="71" y="251"/>
      <point x="136" y="148"/>
      <point x="240" y="64" type="curve"/>
      <point x="240" y="72" type="line"/>
      <point x="55" y="72" type="line"/>
      <point x="55" y="0" type="line"/>
      <point x="341" y="0" type="line"/>
      <point x="341" y="62" type="line"/>
      <point x="235" y="150"/>
      <point x="156" y="249"/>
      <point x="156" y="377" type="curve" smooth="yes"/>
      <point x="156" y="515"/>
      <point x="244" y="630"/>
      <point x="393" y="630" type="curve" smooth="yes"/>
      <point x="542" y="630"/>
      <point x="636" y="515"/>
      <point x="636" y="377" type="curve" smooth="yes"/>
      <point x="636" y="249"/>
      <point x="556" y="151"/>
      <point x="451" y="62" type="curve"/>
      <point x="451" y="0" type="line"/>
      <point x="738" y="0" type="line"/>
      <point x="738" y="72" type="line"/>
      <point x="550" y="72" type="line"/>
      <point x="550" y="65" type="line"/>
      <point x="652" y="150"/>
      <point x="721" y="257"/>
      <point x="721" y="389" type="curve" smooth="yes"/>
      <point x="721" y="562"/>
      <point x="592" y="703"/>
    </contour>
  </outline>
</glyph>
<glyph name="alpha" format="2">
  <advance width="575"/>
  <unicode hex="03B1"/>
  <anchor x="253" y="0" name="bottom"/>
  <anchor x="266" y="482" name="top"/>
  <outline>
    <contour>
      <point x="241" y="-10" type="curve" smooth="yes"/>
      <point x="344" y="-10"/>
      <point x="419" y="80"/>
      <point x="435" y="204" type="curve"/>
      <point x="392" y="220" type="line"/>
      <point x="374" y="150"/>
      <point x="328" y="60"/>
      <point x="252" y="60" type="curve" smooth="yes"/>
      <point x="172" y="60"/>
      <point x="134" y="137"/>
      <point x="134" y="243" type="curve" smooth="yes"/>
      <point x="134" y="347"/>
      <point x="175" y="422"/>
      <point x="248" y="422" type="curve" smooth="yes"/>
      <point x="322" y="422"/>
      <point x="356" y="332"/>
      <point x="373" y="252" type="curve" smooth="yes"/>
      <point x="398" y="134" type="line" smooth="yes"/>
      <point x="419" y="34"/>
      <point x="449" y="-6"/>
      <point x="512" y="-6" type="curve" smooth="yes"/>
      <point x="538" y="-6"/>
      <point x="559" y="2"/>
      <point x="578" y="11" type="curve"/>
      <point x="562" y="66" type="line"/>
      <point x="551" y="61"/>
      <point x="538" y="58"/>
      <point x="526" y="58" type="curve" smooth="yes"/>
      <point x="489" y="58"/>
      <point x="478" y="97"/>
      <point x="464" y="160" type="curve" smooth="yes"/>
      <point x="437" y="280" type="line" smooth="yes"/>
      <point x="415" y="381"/>
      <point x="371" y="492"/>
      <point x="250" y="492" type="curve" smooth="yes"/>
      <point x="125" y="492"/>
      <point x="54" y="383"/>
      <point x="54" y="236" type="curve" smooth="yes"/>
      <point x="54" y="93"/>
      <point x="119" y="-10"/>
    </contour>
    <contour>
      <point x="451" y="175" type="line"/>
      <point x="552" y="482" type="line"/>
      <point x="470" y="482" type="line"/>
      <point x="400" y="196" type="line"/>
    </contour>
  </outline>
</glyph>
<glyph name="beta" format="2">
  <advance width="572"/>
  <unicode hex="03B2"/>
  <outline>
    <contour>
      <point x="323" y="60" type="curve" smooth="yes"/>
      <point x="248" y="60"/>
      <point x="176" y="103"/>
      <point x="152" y="172" type="curve"/>
      <point x="120" y="122" type="line"/>
      <point x="150" y="43"/>
      <point x="234" y="-10"/>
      <point x="328" y="-10" type="curve" smooth="yes"/>
      <point x="454" y="-10"/>
      <point x="532" y="68"/>
      <point x="532" y="197" type="curve" smooth="yes"/>
      <point x="532" y="308"/>
      <point x="440" y="394"/>
      <point x="323" y="398" type="curve"/>
      <point x="322" y="390" type="line"/>
      <point x="415" y="394"/>
      <point x="482" y="479"/>
      <point x="482" y="570" type="curve" smooth="yes"/>
      <point x="482" y="676"/>
      <point x="404" y="749"/>
      <point x="292" y="749" type="curve" smooth="yes"/>
      <point x="163" y="749"/>
      <point x="85" y="664"/>
      <point x="85" y="522" type="curve" smooth="yes"/>
      <point x="85" y="-217" type="line"/>
      <point x="165" y="-217" type="line"/>
      <point x="165" y="529" type="line" smooth="yes"/>
      <point x="165" y="616"/>
      <point x="201" y="679"/>
      <point x="284" y="679" type="curve" smooth="yes"/>
      <point x="352" y="679"/>
      <point x="402" y="634"/>
      <point x="402" y="559" type="curve" smooth="yes"/>
      <point x="402" y="480"/>
      <point x="350" y="422"/>
      <point x="269" y="422" type="curve" smooth="yes"/>
      <point x="232" y="422" type="line"/>
      <point x="232" y="355" type="line"/>
      <point x="274" y="355" type="line" smooth="yes"/>
      <point x="376" y="355"/>
      <point x="452" y="291"/>
      <point x="452" y="191" type="curve" smooth="yes"/>
      <point x="452" y="118"/>
      <point x="407" y="60"/>
    </contour>
  </outline>
</glyph>
<glyph name="gamma" format="2">
  <advance width="516"/>
  <unicode hex="03B3"/>
  <outline>
    <contour>
      <point x="225" y="-7" type="line"/>
      <point x="299" y="-2" type="line"/>
      <point x="360" y="122" type="line" smooth="yes"/>
      <point x="416" y="236"/>
      <point x="475" y="380"/>
      <point x="475" y="482" type="curve"/>
      <point x="392" y="482" type="line"/>
      <point x="392" y="385"/>
      <point x="351" y="257"/>
      <point x="302" y="152" type="curve" smooth="yes"/>
      <point x="237" y="11" type="line"/>
      <point x="288" y="11" type="line"/>
      <point x="115" y="482" type="line"/>
      <point x="26" y="482" type="line"/>
    </contour>
    <contour>
      <point x="221" y="-217" type="line"/>
      <point x="305" y="-217" type="line"/>
      <point x="299" y="-2" type="line"/>
      <point x="225" y="-7" type="line"/>
    </contour>
  </outline>
</glyph>
<glyph name="delta" format="2">
  <advance width="565"/>
  <unicode hex="03B4"/>
  <outline>
    <contour>
      <point x="491" y="686" type="line"/>
      <point x="425" y="720"/>
      <point x="344" y="749"/>
      <point x="274" y="749" type="curve" smooth="yes"/>
      <point x="167" y="749"/>
      <point x="98" y="695"/>
      <point x="98" y="615" type="curve" smooth="yes"/>
      <point x="98" y="542"/>
      <point x="167" y="489"/>
      <point x="263" y="427" type="curve" smooth="yes"/>
      <point x="358" y="366"/>
      <point x="432" y="319"/>
      <point x="432" y="208" type="curve" smooth="yes"/>
      <point x="432" y="128"/>
      <point x="374" y="60"/>
      <point x="284" y="60" type="curve" smooth="yes"/>
      <point x="192" y="60"/>
      <point x="133" y="128"/>
      <point x="133" y="211" type="curve" smooth="yes"/>
      <point x="133" y="290"/>
      <point x="183" y="374"/>
      <point x="302" y="435" type="curve"/>
      <point x="268" y="484" type="line"/>
      <point x="140" y="424"/>
      <point x="53" y="326"/>
      <point x="53" y="205" type="curve" smooth="yes"/>
      <point x="53" y="75"/>
      <point x="141" y="-10"/>
      <point x="277" y="-10" type="curve" smooth="yes"/>
      <point x="418" y="-10"/>
      <point x="512" y="89"/>
      <point x="512" y="216" type="curve" smooth="yes"/>
      <point x="512" y="355"/>
      <point x="412" y="416"/>
      <point x="306" y="484" type="curve" smooth="yes"/>
      <point x="212" y="544"/>
      <point x="178" y="581"/>
      <point x="178" y="619" type="curve" smooth="yes"/>
      <point x="178" y="658"/>
      <point x="218" y="679"/>
      <point x="277" y="679" type="curve" smooth="yes"/>
      <point x="332" y="679"/>
      <point x="404" y="655"/>
      <point x="467" y="626" type="curve"/>
    </contour>
  </outline>
</glyph>
<glyph name="epsilon" format="2">
  <advance width="472"/>
  <unicode hex="03B5"/>
  <anchor x="240" y="0" name="bottom"/>
  <anchor x="230" y="482" name="top"/>
  <outline>
    <contour>
      <point x="242" y="-7" type="curve" smooth="yes"/>
      <point x="318" y="-7"/>
      <point x="386" y="14"/>
      <point x="444" y="40" type="curve"/>
      <point x="426" y="99" type="line"/>
      <point x="379" y="80"/>
      <point x="316" y="63"/>
      <point x="253" y="63" type="curve" smooth="yes"/>
      <point x="177" y="63"/>
      <point x="130" y="94"/>
      <point x="130" y="140" type="curve" smooth="yes"/>
      <point x="130" y="190"/>
      <point x="184" y="214"/>
      <point x="273" y="214" type="curve" smooth="yes"/>
      <point x="345" y="214" type="line"/>
      <point x="345" y="281" type="line"/>
      <point x="277" y="281" type="line" smooth="yes"/>
      <point x="189" y="281"/>
      <point x="143" y="313"/>
      <point x="143" y="356" type="curve" smooth="yes"/>
      <point x="143" y="400"/>
      <point x="191" y="422"/>
      <point x="258" y="422" type="curve" smooth="yes"/>
      <point x="304" y="422"/>
      <point x="346" y="411"/>
      <point x="398" y="395" type="curve"/>
      <point x="416" y="454" type="line"/>
      <point x="361" y="478"/>
      <point x="308" y="492"/>
      <point x="250" y="492" type="curve" smooth="yes"/>
      <point x="142" y="492"/>
      <point x="63" y="436"/>
      <point x="63" y="358" type="curve" smooth="yes"/>
      <point x="63" y="292"/>
      <point x="129" y="245"/>
      <point x="210" y="244" type="curve"/>
      <point x="212" y="249" type="line"/>
      <point x="117" y="250"/>
      <point x="48" y="200"/>
      <point x="48" y="129" type="curve" smooth="yes"/>
      <point x="48" y="47"/>
      <point x="135" y="-7"/>
    </contour>
  </outline>
</glyph>
<glyph name="zeta" format="2">
  <advance width="437"/>
  <unicode hex="03B6"/>
  <outline>
    <contour>
      <point x="128" y="235" type="curve" smooth="yes"/>
      <point x="128" y="341"/>
      <point x="220" y="435"/>
      <point x="323" y="556" type="curve" smooth="yes"/>
      <point x="437" y="690" type="line"/>
      <point x="437" y="739" type="line"/>
      <point x="50" y="739" type="line"/>
      <point x="50" y="672" type="line"/>
      <point x="358" y="672" type="line"/>
      <point x="348" y="691" type="line"/>
      <point x="254" y="585" type="line" smooth="yes"/>
      <point x="146" y="464"/>
      <point x="48" y="347"/>
      <point x="48" y="225" type="curve" smooth="yes"/>
      <point x="48" y="110"/>
      <point x="123" y="57"/>
      <point x="240" y="9" type="curve" smooth="yes"/>
      <point x="327" y="-27"/>
      <point x="350" y="-50"/>
      <point x="350" y="-86" type="curve" smooth="yes"/>
      <point x="350" y="-121"/>
      <point x="326" y="-148"/>
      <point x="292" y="-187" type="curve"/>
      <point x="340" y="-227" type="line"/>
      <point x="394" y="-170"/>
      <point x="427" y="-125"/>
      <point x="427" y="-72" type="curve" smooth="yes"/>
      <point x="427" y="0"/>
      <point x="375" y="29"/>
      <point x="271" y="75" type="curve" smooth="yes"/>
      <point x="177" y="117"/>
      <point x="128" y="153"/>
    </contour>
  </outline>
</glyph>
<glyph name="eta" format="2">
  <advance width="565"/>
  <unicode hex="03B7"/>
  <anchor x="125" y="0" name="bottom"/>
  <anchor x="288" y="482" name="top"/>
  <outline>
    <contour>
      <point x="85" y="0" type="line"/>
      <point x="165" y="0" type="line"/>
      <point x="165" y="426" type="line"/>
      <point x="141" y="482" type="line"/>
      <point x="85" y="482" type="line"/>
    </contour>
    <contour>
      <point x="409" y="-217" type="line"/>
      <point x="489" y="-217" type="line"/>
      <point x="489" y="316" type="line" smooth="yes"/>
      <point x="489" y="425"/>
      <point x="420" y="492"/>
      <point x="313" y="492" type="curve" smooth="yes"/>
      <point x="245" y="492"/>
      <point x="176" y="462"/>
      <point x="125" y="409" type="curve"/>
      <point x="144" y="358" type="line"/>
      <point x="184" y="399"/>
      <point x="237" y="422"/>
      <point x="291" y="422" type="curve" smooth="yes"/>
      <point x="368" y="422"/>
      <point x="409" y="380"/>
      <point x="409" y="302" type="curve" smooth="yes"/>
    </contour>
  </outline>
</glyph>
<glyph name="theta" format="2">
  <advance width="585"/>
  <unicode hex="03B8"/>
  <outline>
    <contour>
      <point x="286" y="-10" type="curve" smooth="yes"/>
      <point x="446" y="-10"/>
      <point x="527" y="127"/>
      <point x="527" y="375" type="curve" smooth="yes"/>
      <point x="527" y="613"/>
      <point x="453" y="749"/>
      <point x="298" y="749" type="curve" smooth="yes"/>
      <point x="138" y="749"/>
      <point x="58" y="614"/>
      <point x="58" y="366" type="curve" smooth="yes"/>
      <point x="58" y="128"/>
      <point x="131" y="-10"/>
    </contour>
    <contour>
      <point x="297" y="60" type="curve" smooth="yes"/>
      <point x="186" y="60"/>
      <point x="138" y="175"/>
      <point x="138" y="374" type="curve" smooth="yes"/>
      <point x="138" y="570"/>
      <point x="179" y="679"/>
      <point x="287" y="679" type="curve" smooth="yes"/>
      <point x="398" y="679"/>
      <point x="447" y="564"/>
      <point x="447" y="366" type="curve" smooth="yes"/>
      <point x="447" y="171"/>
      <point x="405" y="60"/>
    </contour>
    <contour>
      <point x="98" y="342" type="line"/>
      <point x="487" y="342" type="line"/>
      <point x="487" y="409" type="line"/>
      <point x="98" y="409" type="line"/>
    </contour>
  </outline>
</glyph>
<glyph name="iota" format="2">
  <advance width="272"/>
  <unicode hex="03B9"/>
  <anchor x="160" y="0" name="bottom"/>
  <anchor x="120" y="482" name="top"/>
  <outline>
    <contour>
      <point x="189" y="-6" type="curve" smooth="yes"/>
      <point x="215" y="-6"/>
      <point x="246" y="0"/>
      <point x="265" y="10" type="curve"/>
      <point x="247" y="66" type="line"/>
      <point x="235" y="61"/>
      <point x="224" y="58"/>
      <point x="212" y="58" type="curve" smooth="yes"/>
      <point x="178" y="58"/>
      <point x="160" y="81"/>
      <point x="160" y="118" type="curve" smooth="yes"/>
      <point x="160" y="482" type="line"/>
      <point x="80" y="482" type="line"/>
      <point x="80" y="108" type="line" smooth="yes"/>
      <point x="80" y="39"/>
      <point x="123" y="-6"/>
    </contour>
  </outline>
</glyph>
<glyph name="kappa" format="2">
  <advance width="499"/>
  <unicode hex="03BA"/>
  <outline>
    <contour>
      <point x="85" y="0" type="line"/>
      <point x="165" y="0" type="line"/>
      <point x="165" y="482" type="line"/>
      <point x="85" y="482" type="line"/>
    </contour>
    <contour>
      <point x="262" y="306" type="line"/>
      <point x="214" y="245" type="line"/>
      <point x="389" y="0" type="line"/>
      <point x="489" y="0" type="line"/>
    </contour>
    <contour>
      <point x="232" y="338" type="curve" smooth="yes"/>
      <point x="144" y="226" type="line"/>
      <point x="144" y="118" type="line"/>
      <point x="274" y="280" type="line" smooth="yes"/>
      <point x="352" y="378"/>
      <point x="391" y="420"/>
      <point x="435" y="420" type="curve" smooth="yes"/>
      <point x="443" y="420"/>
      <point x="450" y="419"/>
      <point x="458" y="417" type="curve"/>
      <point x="476" y="483" type="line"/>
      <point x="458" y="489"/>
      <point x="446" y="490"/>
      <point x="430" y="490" type="curve" smooth="yes"/>
      <point x="369" y="490"/>
      <point x="320" y="450"/>
    </contour>
  </outline>
</glyph>
<glyph name="lambda" format="2">
  <advance width="482"/>
  <unicode hex="03BB"/>
  <outline>
    <contour>
      <point x="169" y="594" type="curve" smooth="yes"/>
      <point x="207" y="492" type="line"/>
      <point x="0" y="0" type="line"/>
      <point x="83" y="0" type="line"/>
      <point x="276" y="476" type="line"/>
      <point x="218" y="476" type="line"/>
      <point x="386" y="0" type="line"/>
      <point x="472" y="0" type="line"/>
      <point x="240" y="622" type="line" smooth="yes"/>
      <point x="207" y="710"/>
      <point x="166" y="749"/>
      <point x="105" y="749" type="curve" smooth="yes"/>
      <point x="73" y="749"/>
      <point x="40" y="738"/>
      <point x="10" y="721" type="curve"/>
      <point x="29" y="668" type="line"/>
      <point x="52" y="679"/>
      <point x="70" y="684"/>
      <point x="90" y="684" type="curve" smooth="yes"/>
      <point x="120" y="684"/>
      <point x="145" y="659"/>
    </contour>
  </outline>
</glyph>
<glyph name="mu" format="2">
  <advance width="580"/>
  <unicode hex="03BC"/>
  <anchor x="285" y="482" name="top"/>
  <outline>
    <contour>
      <point x="501" y="-6" type="curve" smooth="yes"/>
      <point x="528" y="-6"/>
      <point x="553" y="1"/>
      <point x="573" y="10" type="curve"/>
      <point x="557" y="65" type="line"/>
      <point x="548" y="61"/>
      <point x="536" y="58"/>
      <point x="524" y="58" type="curve" smooth="yes"/>
      <point x="496" y="58"/>
      <point x="480" y="79"/>
      <point x="480" y="124" type="curve" smooth="yes"/>
      <point x="480" y="482" type="line"/>
      <point x="400" y="482" type="line"/>
      <point x="400" y="102" type="line" smooth="yes"/>
      <point x="400" y="34"/>
      <point x="438" y="-6"/>
    </contour>
    <contour>
      <point x="85" y="-217" type="line" smooth="yes"/>
      <point x="169" y="-217" type="line"/>
      <point x="156" y="36" type="line"/>
      <point x="165" y="36" type="line"/>
      <point x="165" y="482" type="line"/>
      <point x="85" y="482" type="line"/>
    </contour>
    <contour>
      <point x="279" y="-10" type="curve" smooth="yes"/>
      <point x="335" y="-10"/>
      <point x="397" y="26"/>
      <point x="445" y="74" type="curve"/>
      <point x="421" y="122" type="line"/>
      <point x="385" y="83"/>
      <point x="337" y="60"/>
      <point x="287" y="60" type="curve" smooth="yes"/>
      <point x="254" y="60"/>
      <point x="195" y="70"/>
      <point x="142" y="148" type="curve"/>
      <point x="91" y="105" type="line"/>
      <point x="159" y="4"/>
      <point x="230" y="-10"/>
    </contour>
  </outline>
</glyph>
<glyph name="nu" format="2">
  <advance width="516"/>
  <unicode hex="03BD"/>
  <anchor x="259" y="0" name="bottom"/>
  <anchor x="254" y="482" name="top"/>
  <outline>
    <contour>
      <point x="237" y="17" type="line"/>
      <point x="286" y="17" type="line"/>
      <point x="115" y="482" type="line"/>
      <point x="26" y="482" type="line"/>
      <point x="222" y="0" type="line"/>
      <point x="298" y="0" type="line"/>
      <point x="361" y="124" type="line" smooth="yes"/>
      <point x="422" y="244"/>
      <point x="475" y="380"/>
      <point x="475" y="482" type="curve"/>
      <point x="392" y="482" type="line"/>
      <point x="392" y="385"/>
      <point x="355" y="264"/>
      <point x="303" y="155" type="curve" smooth="yes"/>
    </contour>
  </outline>
</glyph>
<glyph name="xi" format="2">
  <advance width="438"/>
  <unicode hex="03BE"/>
  <outline>
    <contour>
      <point x="62" y="739" type="line"/>
      <point x="62" y="672" type="line"/>
      <point x="364" y="672" type="line"/>
      <point x="345" y="691" type="line"/>
      <point x="305" y="676" type="line" smooth="yes"/>
      <point x="176" y="627"/>
      <point x="84" y="564"/>
      <point x="84" y="486" type="curve" smooth="yes"/>
      <point x="84" y="417"/>
      <point x="155" y="369"/>
      <point x="235" y="368" type="curve"/>
      <point x="237" y="374" type="line"/>
      <point x="133" y="372"/>
      <point x="48" y="292"/>
      <point x="48" y="198" type="curve" smooth="yes"/>
      <point x="48" y="90"/>
      <point x="131" y="36"/>
      <point x="239" y="4" type="curve" smooth="yes"/>
      <point x="326" y="-22"/>
      <point x="347" y="-42"/>
      <point x="347" y="-83" type="curve" smooth="yes"/>
      <point x="347" y="-119"/>
      <point x="322" y="-148"/>
      <point x="288" y="-187" type="curve"/>
      <point x="336" y="-227" type="line"/>
      <point x="390" y="-170"/>
      <point x="424" y="-125"/>
      <point x="424" y="-70" type="curve" smooth="yes"/>
      <point x="424" y="7"/>
      <point x="374" y="42"/>
      <point x="273" y="71" type="curve" smooth="yes"/>
      <point x="185" y="96"/>
      <point x="128" y="135"/>
      <point x="128" y="211" type="curve" smooth="yes"/>
      <point x="128" y="286"/>
      <point x="204" y="339"/>
      <point x="293" y="339" type="curve" smooth="yes"/>
      <point x="405" y="339" type="line"/>
      <point x="405" y="406" type="line"/>
      <point x="298" y="406" type="line" smooth="yes"/>
      <point x="215" y="406"/>
      <point x="164" y="445"/>
      <point x="164" y="492" type="curve" smooth="yes"/>
      <point x="164" y="547"/>
      <point x="239" y="590"/>
      <point x="354" y="644" type="curve" smooth="yes"/>
      <point x="443" y="686" type="line"/>
      <point x="443" y="739" type="line"/>
    </contour>
  </outline>
</glyph>
<glyph name="omicron" format="2">
  <advance width="561"/>
  <unicode hex="03BF"/>
  <anchor x="281" y="0" name="bottom"/>
  <anchor x="281" y="482" name="top"/>
  <outline>
    <contour>
      <point x="276" y="-10" type="curve" smooth="yes"/>
      <point x="415" y="-10"/>
      <point x="508" y="93"/>
      <point x="508" y="247" type="curve" smooth="yes"/>
      <point x="508" y="395"/>
      <point x="418" y="492"/>
      <point x="284" y="492" type="curve" smooth="yes"/>
      <point x="145" y="492"/>
      <point x="53" y="390"/>
      <point x="53" y="236" type="curve" smooth="yes"/>
      <point x="53" y="88"/>
      <point x="142" y="-10"/>
    </contour>
    <contour>
      <point x="285" y="60" type="curve" smooth="yes"/>
      <point x="195" y="60"/>
      <point x="133" y="136"/>
      <point x="133" y="246" type="curve" smooth="yes"/>
      <point x="133" y="352"/>
      <point x="189" y="422"/>
      <point x="275" y="422" type="curve" smooth="yes"/>
      <point x="365" y="422"/>
      <point x="428" y="345"/>
      <point x="428" y="236" type="curve" smooth="yes"/>
      <point x="428" y="131"/>
      <point x="371" y="60"/>
    </contour>
  </outline>
</glyph>
<glyph name="pi" format="2">
  <advance width="611"/>
  <unicode hex="03C0"/>
  <outline>
    <contour>
      <point x="496" y="-6" type="curve" smooth="yes"/>
      <point x="524" y="-6"/>
      <point x="553" y="2"/>
      <point x="572" y="11" type="curve"/>
      <point x="554" y="67" type="line"/>
      <point x="544" y="63"/>
      <point x="532" y="58"/>
      <point x="515" y="58" type="curve" smooth="yes"/>
      <point x="485" y="58"/>
      <point x="469" y="78"/>
      <point x="469" y="121" type="curve" smooth="yes"/>
      <point x="469" y="424" type="line"/>
      <point x="389" y="424" type="line"/>
      <point x="389" y="110" type="line" smooth="yes"/>
      <point x="389" y="33"/>
      <point x="433" y="-6"/>
    </contour>
    <contour>
      <point x="111" y="0" type="line"/>
      <point x="191" y="0" type="line"/>
      <point x="191" y="425" type="line"/>
      <point x="111" y="425" type="line"/>
    </contour>
    <contour>
      <point x="31" y="415" type="line"/>
      <point x="566" y="415" type="line"/>
      <point x="566" y="482" type="line"/>
      <point x="31" y="482" type="line"/>
    </contour>
  </outline>
</glyph>
<glyph name="rho" format="2">
  <advance width="562"/>
  <unicode hex="03C1"/>
  <anchor x="273" y="0" name="bottom"/>
  <anchor x="273" y="482" name="top"/>
  <outline>
    <contour>
      <point x="65" y="254" type="curve" smooth="yes"/>
      <point x="65" y="-217" type="line"/>
      <point x="149" y="-217" type="line"/>
      <point x="142" y="49" type="line"/>
      <point x="145" y="49" type="line"/>
      <point x="145" y="251" type="line" smooth="yes"/>
      <point x="145" y="371"/>
      <point x="205" y="422"/>
      <point x="282" y="422" type="curve" smooth="yes"/>
      <point x="361" y="422"/>
      <point x="429" y="361"/>
      <point x="429" y="239" type="curve" smooth="yes"/>
      <point x="429" y="130"/>
      <point x="372" y="60"/>
      <point x="284" y="60" type="curve" smooth="yes"/>
      <point x="211" y="60"/>
      <point x="149" y="107"/>
      <point x="132" y="178" type="curve"/>
      <point x="99" y="123" type="line"/>
      <point x="121" y="40"/>
      <point x="195" y="-10"/>
      <point x="280" y="-10" type="curve" smooth="yes"/>
      <point x="415" y="-10"/>
      <point x="509" y="92"/>
      <point x="509" y="249" type="curve" smooth="yes"/>
      <point x="509" y="400"/>
      <point x="427" y="492"/>
      <point x="287" y="492" type="curve" smooth="yes"/>
      <point x="166" y="492"/>
      <point x="65" y="412"/>
    </contour>
  </outline>
</glyph>
<glyph name="sigmafinal" format="2">
  <advance width="466"/>
  <unicode hex="03C2"/>
  <outline>
    <contour>
      <point x="135" y="254" type="curve"/>
      <point x="135" y="360"/>
      <point x="192" y="422"/>
      <point x="291" y="422" type="curve" smooth="yes"/>
      <point x="329" y="422"/>
      <point x="372" y="413"/>
      <point x="412" y="395" type="curve"/>
      <point x="431" y="460" type="line"/>
      <point x="387" y="481"/>
      <point x="340" y="492"/>
      <point x="292" y="492" type="curve" smooth="yes"/>
      <point x="152" y="492"/>
      <point x="53" y="387"/>
      <point x="53" y="241" type="curve" smooth="yes"/>
      <point x="53" y="104"/>
      <point x="138" y="45"/>
      <point x="251" y="3" type="curve" smooth="yes"/>
      <point x="331" y="-27"/>
      <point x="356" y="-44"/>
      <point x="356" y="-80" type="curve" smooth="yes"/>
      <point x="356" y="-118"/>
      <point x="328" y="-149"/>
      <point x="294" y="-187" type="curve"/>
      <point x="342" y="-227" type="line"/>
      <point x="396" y="-171"/>
      <point x="431" y="-119"/>
      <point x="431" y="-67" type="curve" smooth="yes"/>
      <point x="431" y="4"/>
      <point x="379" y="34"/>
      <point x="280" y="70" type="curve" smooth="yes"/>
      <point x="193" y="102"/>
      <point x="135" y="151"/>
    </contour>
  </outline>
</glyph>
<glyph name="sigma" format="2">
  <advance width="584"/>
  <unicode hex="03C3"/>
  <outline>
    <contour>
      <point x="336" y="444" type="line"/>
      <point x="392" y="373"/>
      <point x="430" y="306"/>
      <point x="430" y="215" type="curve" smooth="yes"/>
      <point x="430" y="128"/>
      <point x="373" y="60"/>
      <point x="287" y="60" type="curve" smooth="yes"/>
      <point x="195" y="60"/>
      <point x="133" y="133"/>
      <point x="133" y="241" type="curve" smooth="yes"/>
      <point x="133" y="343"/>
      <point x="206" y="411"/>
      <point x="313" y="412" type="curve" smooth="yes"/>
      <point x="579" y="415" type="line"/>
      <point x="579" y="482" type="line"/>
      <point x="310" y="482" type="line" smooth="yes"/>
      <point x="155" y="482"/>
      <point x="53" y="377"/>
      <point x="53" y="231" type="curve" smooth="yes"/>
      <point x="53" y="85"/>
      <point x="142" y="-10"/>
      <point x="276" y="-10" type="curve" smooth="yes"/>
      <point x="417" y="-10"/>
      <point x="510" y="86"/>
      <point x="510" y="222" type="curve" smooth="yes"/>
      <point x="510" y="315"/>
      <point x="456" y="406"/>
      <point x="393" y="474" type="curve"/>
    </contour>
  </outline>
</glyph>
<glyph name="tau" format="2">
  <advance width="476"/>
  <unicode hex="03C4"/>
  <outline>
    <contour>
      <point x="18" y="415" type="line"/>
      <point x="453" y="415" type="line"/>
      <point x="453" y="482" type="line"/>
      <point x="18" y="482" type="line"/>
    </contour>
    <contour>
      <point x="325" y="-5" type="curve" smooth="yes"/>
      <point x="360" y="-5"/>
      <point x="388" y="4"/>
      <point x="413" y="15" type="curve"/>
      <point x="395" y="73" type="line"/>
      <point x="379" y="66"/>
      <point x="359" y="60"/>
      <point x="338" y="60" type="curve" smooth="yes"/>
      <point x="293" y="60"/>
      <point x="263" y="90"/>
      <point x="263" y="154" type="curve" smooth="yes"/>
      <point x="263" y="482" type="line"/>
      <point x="183" y="482" type="line"/>
      <point x="183" y="141" type="line" smooth="yes"/>
      <point x="183" y="48"/>
      <point x="239" y="-5"/>
    </contour>
  </outline>
</glyph>
<glyph name="upsilon" format="2">
  <advance width="547"/>
  <unicode hex="03C5"/>
  <anchor x="251" y="0" name="bottom"/>
  <anchor x="251" y="482" name="top"/>
  <outline>
    <contour>
      <point x="272" y="-10" type="curve" smooth="yes"/>
      <point x="414" y="-10"/>
      <point x="489" y="82"/>
      <point x="489" y="236" type="curve" smooth="yes"/>
      <point x="489" y="333"/>
      <point x="470" y="403"/>
      <point x="440" y="482" type="curve"/>
      <point x="359" y="482" type="line"/>
      <point x="389" y="407"/>
      <point x="409" y="320"/>
      <point x="409" y="238" type="curve" smooth="yes"/>
      <point x="409" y="121"/>
      <point x="367" y="60"/>
      <point x="276" y="60" type="curve" smooth="yes"/>
      <point x="200" y="60"/>
      <point x="151" y="106"/>
      <point x="151" y="212" type="curve" smooth="yes"/>
      <point x="151" y="482" type="line"/>
      <point x="71" y="482" type="line"/>
      <point x="71" y="196" type="line" smooth="yes"/>
      <point x="71" y="63"/>
      <point x="145" y="-10"/>
    </contour>
  </outline>
</glyph>
<glyph name="phi" format="2">
  <advance width="710"/>
  <unicode hex="03C6"/>
  <outline>
    <contour>
      <point x="314" y="-5" type="curve"/>
      <point x="319" y="62" type="line"/>
      <point x="201" y="62"/>
      <point x="138" y="150"/>
      <point x="138" y="252" type="curve" smooth="yes"/>
      <point x="138" y="320"/>
      <point x="160" y="405"/>
      <point x="196" y="482" type="curve"/>
      <point x="115" y="482" type="line"/>
      <point x="82" y="410"/>
      <point x="58" y="324"/>
      <point x="58" y="242" type="curve" smooth="yes"/>
      <point x="58" y="91"/>
      <point x="168" y="-5"/>
    </contour>
    <contour>
      <point x="384" y="63" type="curve"/>
      <point x="379" y="-5" type="line"/>
      <point x="547" y="-5"/>
      <point x="656" y="99"/>
      <point x="656" y="265" type="curve" smooth="yes"/>
      <point x="656" y="392"/>
      <point x="600" y="492"/>
      <point x="483" y="492" type="curve" smooth="yes"/>
      <point x="377" y="492"/>
      <point x="309" y="432"/>
      <point x="309" y="264" type="curve" smooth="yes"/>
      <point x="309" y="-217" type="line"/>
      <point x="389" y="-217" type="line"/>
      <point x="389" y="260" type="line" smooth="yes"/>
      <point x="389" y="384"/>
      <point x="421" y="422"/>
      <point x="480" y="422" type="curve" smooth="yes"/>
      <point x="549" y="422"/>
      <point x="576" y="350"/>
      <point x="576" y="260" type="curve" smooth="yes"/>
      <point x="576" y="141"/>
      <point x="515" y="63"/>
    </contour>
  </outline>
</glyph>
<glyph name="chi" format="2">
  <advance width="528"/>
  <unicode hex="03C7"/>
  <outline>
    <contour>
      <point x="422" y="-217" type="line"/>
      <point x="512" y="-217" type="line"/>
      <point x="290" y="172" type="line"/>
      <point x="115" y="482" type="line"/>
      <point x="25" y="482" type="line"/>
      <point x="244" y="99" type="line"/>
    </contour>
    <contour>
      <point x="22" y="-217" type="line"/>
      <point x="109" y="-217" type="line"/>
      <point x="272" y="88" type="line"/>
      <point x="232" y="157" type="line"/>
    </contour>
    <contour>
      <point x="298" y="118" type="line"/>
      <point x="500" y="482" type="line"/>
      <point x="413" y="482" type="line"/>
      <point x="259" y="187" type="line"/>
    </contour>
  </outline>
</glyph>
<glyph name="psi" format="2">
  <advance width="708"/>
  <unicode hex="03C8"/>
  <outline>
    <contour>
      <point x="314" y="-217" type="line"/>
      <point x="394" y="-217" type="line"/>
      <point x="394" y="644" type="line"/>
      <point x="314" y="644" type="line"/>
    </contour>
    <contour>
      <point x="324" y="63" type="line"/>
      <point x="233" y="63"/>
      <point x="151" y="113"/>
      <point x="151" y="246" type="curve" smooth="yes"/>
      <point x="151" y="482" type="line"/>
      <point x="71" y="482" type="line"/>
      <point x="71" y="228" type="line" smooth="yes"/>
      <point x="71" y="73"/>
      <point x="193" y="-5"/>
      <point x="319" y="-5" type="curve"/>
    </contour>
    <contour>
      <point x="384" y="-5" type="line"/>
      <point x="538" y="-5"/>
      <point x="650" y="96"/>
      <point x="650" y="250" type="curve" smooth="yes"/>
      <point x="650" y="342"/>
      <point x="631" y="403"/>
      <point x="601" y="482" type="curve"/>
      <point x="520" y="482" type="line"/>
      <point x="550" y="407"/>
      <point x="570" y="329"/>
      <point x="570" y="253" type="curve" smooth="yes"/>
      <point x="570" y="143"/>
      <point x="496" y="64"/>
      <point x="389" y="64" type="curve"/>
    </contour>
  </outline>
</glyph>
